ply
format ascii 1.0
comment VCGLIB generated
element vertex 433
property float x
property float y
property float z
property float nx
property float ny
property float nz
property uchar red
property uchar green
property uchar blue
property uchar alpha
property float texture_u
property float texture_v
element face 160
property list uchar int vertex_indices
end_header
0 0.013753 0.064312 -0.3826949 0 0.9238748 255 255 255 255 0.5 0.04140986
-0.045475 0.176905 0.045475 -0.3826949 0 0.9238748 255 255 255 255 0.1464501 0.5326555
-0.045475 0.013753 0.045475 -0.3826949 0 0.9238747 255 255 255 255 0.1464501 0.04140986
0.045476 0.013753 0.045475 0.382687 0 0.9238781 255 255 255 255 0.8535576 0.04140986
0 0.176905 0.064312 0.382687 0 0.9238781 255 255 255 255 0.5 0.5326555
0 0.013753 0.064312 0.382687 0 0.9238781 255 255 255 255 0.5 0.04140986
0.064312 0.013753 -0 0.9238822 0 0.382677 255 255 255 255 1 0.04140986
0.045476 0.176905 0.045475 0.9238822 0 0.382677 255 255 255 255 0.8535576 0.5326555
0.045476 0.013753 0.045475 0.9238822 0 0.382677 255 255 255 255 0.8535576 0.04140986
0.045476 0.013753 -0.045476 0.9238851 -0 -0.38267 255 255 255 255 0.8535576 0.04140986
0.064312 0.176905 -0 0.9238851 -0 -0.38267 255 255 255 255 1 0.5326555
0.064312 0.013753 -0 0.9238851 -0 -0.38267 255 255 255 255 1 0.04140986
0 0.013753 -0.064312 0.38267 -0 -0.9238851 255 255 255 255 0.5 0.04140986
0.045476 0.176905 -0.045476 0.38267 -0 -0.9238851 255 255 255 255 0.8535576 0.5326555
0.045476 0.013753 -0.045476 0.38267 -0 -0.9238851 255 255 255 255 0.8535576 0.04140986
-0.045475 0.013753 -0.045476 -0.382677 -0 -0.9238822 255 255 255 255 0.1464501 0.04140986
0 0.176905 -0.064312 -0.382677 -0 -0.9238822 255 255 255 255 0.5 0.5326555
0 0.013753 -0.064312 -0.382677 -0 -0.9238822 255 255 255 255 0.5 0.04140986
-0.064312 0.013753 -0 -0.9238781 -0 -0.382687 255 255 255 255 0 0.04140986
-0.045475 0.176905 -0.045476 -0.9238781 -0 -0.382687 255 255 255 255 0.1464501 0.5326555
-0.045475 0.013753 -0.045476 -0.9238781 -0 -0.382687 255 255 255 255 0.1464501 0.04140986
-0.045475 0.013753 0.045475 -0.9238748 0 0.3826949 255 255 255 255 0.1464501 0.04140986
-0.064312 0.176905 -0 -0.9238748 0 0.3826949 255 255 255 255 0 0.5326555
-0.064312 0.013753 -0 -0.9238747 0 0.3826949 255 255 255 255 0 0.04140986
0 0 0.055254 -0 -1 0 255 255 255 255 0.5 0
-0.039071 0 0.039071 -0 -1 0 255 255 255 255 0.1962387 0
0 0 0 -0 -1 0 255 255 255 255 0.5 0
0.039071 0 0.039071 0 -1 0 255 255 255 255 0.8037614 0
0.055254 0 0 0 -1 0 255 255 255 255 0.9295777 0
0.039071 -0 -0.039071 0 -1 0 255 255 255 255 0.8037614 0
0 -0 -0.055254 -0 -1 0 255 255 255 255 0.5 0
-0.039071 -0 -0.039071 0 -1 0 255 255 255 255 0.1962387 -0
-0.055254 0 0 0 -1 0 255 255 255 255 0.07042233 0
-0.01647 0.327885 0.021457 -0.127646 0.9845499 -0.119867 255 255 255 255 0.3719524 0.9872516
0.003333 0.331078 0.026595 -0.127646 0.9845499 -0.119867 255 255 255 255 0.5259128 0.9968656
0 0.327408 -0 -0.127646 0.9845499 -0.119867 255 255 255 255 0.5 0.9858153
0.003333 0.331078 0.026595 -0.127541 0.9845616 -0.119882 255 255 255 255 0.5259128 0.9968656
0.021183 0.332119 0.016154 -0.127541 0.9845616 -0.119882 255 255 255 255 0.6646893 1
0 0.327408 -0 -0.127541 0.9845616 -0.119882 255 255 255 255 0.5 0.9858153
0.021183 0.332119 0.016154 -0.1275011 0.9845605 -0.1199341 255 255 255 255 0.6646893 1
0.026624 0.330399 -0.00375 -0.1275011 0.9845605 -0.1199341 255 255 255 255 0.7069909 0.9948212
0 0.327408 -0 -0.1275011 0.9845605 -0.1199341 255 255 255 255 0.5 0.9858153
0.026624 0.330399 -0.00375 -0.127502 0.9845599 -0.119938 255 255 255 255 0.7069909 0.9948212
0.01647 0.326927 -0.021457 -0.127502 0.9845599 -0.119938 255 255 255 255 0.6280476 0.9843671
0 0.327408 -0 -0.127502 0.9845599 -0.119938 255 255 255 255 0.5 0.9858153
0.01647 0.326927 -0.021457 -0.1276069 0.9845365 -0.1200179 255 255 255 255 0.6280476 0.9843671
-0.003333 0.323734 -0.026595 -0.1276069 0.9845365 -0.1200179 255 255 255 255 0.4740873 0.974753
0 0.327408 -0 -0.1276069 0.9845365 -0.1200179 255 255 255 255 0.5 0.9858153
-0.003333 0.323734 -0.026595 -0.127618 0.9845353 -0.120016 255 255 255 255 0.4740873 0.974753
-0.021183 0.322693 -0.016154 -0.127618 0.9845353 -0.120016 255 255 255 255 0.3353107 0.9716186
0 0.327408 -0 -0.127618 0.9845353 -0.120016 255 255 255 255 0.5 0.9858153
-0.021183 0.322693 -0.016154 -0.127651 0.9845362 -0.119974 255 255 255 255 0.3353107 0.9716186
-0.026624 0.324413 0.00375 -0.127651 0.9845362 -0.119974 255 255 255 255 0.2930091 0.9767975
0 0.327408 -0 -0.127651 0.9845362 -0.119974 255 255 255 255 0.5 0.9858153
-0.026624 0.324413 0.00375 -0.127636 0.9845521 -0.119859 255 255 255 255 0.2930091 0.9767975
-0.01647 0.327885 0.021457 -0.127636 0.9845521 -0.119859 255 255 255 255 0.3719524 0.9872516
0 0.327408 -0 -0.127636 0.9845521 -0.119859 255 255 255 255 0.5 0.9858153
0.055254 0 0 0.7892656 -0.5197977 0.3269098 255 255 255 255 0.9295777 0
0.045476 0.013753 0.045475 0.7892656 -0.5197977 0.3269098 255 255 255 255 0.8535576 0.04140986
0.039071 0 0.039071 0.7892656 -0.5197977 0.3269098 255 255 255 255 0.8037614 0
0.039071 -0 -0.039071 0.7892538 -0.5198189 -0.3269049 255 255 255 255 0.8037614 0
0.064312 0.013753 -0 0.7892538 -0.5198189 -0.3269049 255 255 255 255 1 0.04140986
0.055254 0 0 0.7892538 -0.5198189 -0.3269049 255 255 255 255 0.9295777 0
0.039071 -0 -0.039071 0.3269071 -0.5198152 -0.7892553 255 255 255 255 0.8037614 0
0 0.013753 -0.064312 0.3269071 -0.5198152 -0.7892553 255 255 255 255 0.5 0.04140986
0.045476 0.013753 -0.045476 0.3269071 -0.5198152 -0.7892553 255 255 255 255 0.8535576 0.04140986
0 -0 -0.055254 -0.3269129 -0.5198169 -0.7892518 255 255 255 255 0.5 0
-0.045475 0.013753 -0.045476 -0.3269129 -0.5198169 -0.7892518 255 255 255 255 0.1464501 0.04140986
0 0.013753 -0.064312 -0.3269129 -0.5198169 -0.7892518 255 255 255 255 0.5 0.04140986
-0.039071 -0 -0.039071 -0.7892711 -0.5197761 -0.3269311 255 255 255 255 0.1962387 -0
-0.064312 0.013753 -0 -0.7892711 -0.5197761 -0.3269311 255 255 255 255 0 0.04140986
-0.045475 0.013753 -0.045476 -0.7892711 -0.5197761 -0.3269311 255 255 255 255 0.1464501 0.04140986
-0.055254 0 0 -0.7892473 -0.5198142 0.3269281 255 255 255 255 0.07042233 0
-0.045475 0.013753 0.045475 -0.7892473 -0.5198142 0.3269281 255 255 255 255 0.1464501 0.04140986
-0.064312 0.013753 -0 -0.7892473 -0.5198142 0.3269281 255 255 255 255 0 0.04140986
0 0 0.055254 -0.326919 -0.519755 0.78929 255 255 255 255 0.5 0
-0.045475 0.013753 0.045475 -0.326919 -0.519755 0.78929 255 255 255 255 0.1464501 0.04140986
-0.039071 0 0.039071 -0.326919 -0.519755 0.78929 255 255 255 255 0.1962387 0
0.039071 0 0.039071 0.3269049 -0.5198189 0.7892538 255 255 255 255 0.8037614 0
0 0.013753 0.064312 0.3269049 -0.5198189 0.7892538 255 255 255 255 0.5 0.04140986
0 0 0.055254 0.3269049 -0.5198189 0.7892538 255 255 255 255 0.5 0
0 0.213428 0.05881 -0.2962169 0.6331198 0.7151328 255 255 255 255 0.5 0.6426251
-0.021217 0.245964 0.021217 -0.2962169 0.6331198 0.7151328 255 255 255 255 0.3350464 0.74059
-0.041585 0.213428 0.041585 -0.2962169 0.6331198 0.7151328 255 255 255 255 0.1766933 0.6426251
0 0.213428 0.05881 0.2962051 0.6331261 0.7151321 255 255 255 255 0.5 0.6426251
0.021217 0.245964 0.021217 0.2962051 0.6331261 0.7151321 255 255 255 255 0.6649536 0.74059
0 0.245964 0.030005 0.2962051 0.6331261 0.7151321 255 255 255 255 0.5 0.74059
0.05881 0.213428 -0 0.7151332 0.6331192 0.2962171 255 255 255 255 0.9572241 0.6426251
0.021217 0.245964 0.021217 0.7151332 0.6331192 0.2962171 255 255 255 255 0.6649536 0.74059
0.041585 0.213428 0.041585 0.7151332 0.6331192 0.2962171 255 255 255 255 0.8233067 0.6426251
0.05881 0.213428 -0 0.7151321 0.6331261 -0.2962051 255 255 255 255 0.9572241 0.6426251
0.021217 0.245964 -0.021217 0.7151321 0.6331261 -0.2962051 255 255 255 255 0.6649536 0.74059
0.030005 0.245964 -0 0.7151321 0.6331261 -0.2962051 255 255 255 255 0.7332768 0.74059
0 0.213428 -0.05881 0.2962171 0.6331192 -0.7151332 255 255 255 255 0.5 0.6426251
0.021217 0.245964 -0.021217 0.2962171 0.6331192 -0.7151332 255 255 255 255 0.6649536 0.74059
0.041585 0.213428 -0.041585 0.2962171 0.6331192 -0.7151332 255 255 255 255 0.8233067 0.6426251
0 0.213428 -0.05881 -0.2962051 0.6331261 -0.7151321 255 255 255 255 0.5 0.6426251
-0.021217 0.245964 -0.021217 -0.2962051 0.6331261 -0.7151321 255 255 255 255 0.3350464 0.74059
0 0.245964 -0.030005 -0.2962051 0.6331261 -0.7151321 255 255 255 255 0.5 0.74059
-0.05881 0.213428 -0 -0.7151332 0.6331192 -0.2962171 255 255 255 255 0.04277587 0.6426251
-0.021217 0.245964 -0.021217 -0.7151332 0.6331192 -0.2962171 255 255 255 255 0.3350464 0.74059
-0.041585 0.213428 -0.041585 -0.7151332 0.6331192 -0.2962171 255 255 255 255 0.1766933 0.6426251
-0.05881 0.213428 -0 -0.7151321 0.6331261 0.2962051 255 255 255 255 0.04277587 0.6426251
-0.021217 0.245964 0.021217 -0.7151321 0.6331261 0.2962051 255 255 255 255 0.3350464 0.74059
-0.030005 0.245964 -0 -0.7151321 0.6331261 0.2962051 255 255 255 255 0.2667232 0.74059
0 0.279387 0.026876 -0.3812459 0.08617099 0.9204489 255 255 255 255 0.5 0.8412256
-0.021217 0.245964 0.021217 -0.3812459 0.08617099 0.9204489 255 255 255 255 0.3350464 0.74059
0 0.245964 0.030005 -0.3812459 0.08617099 0.9204489 255 255 255 255 0.5 0.74059
0 0.279387 0.026876 0.381254 0.086177 0.920445 255 255 255 255 0.5 0.8412256
0.021217 0.245964 0.021217 0.381254 0.086177 0.920445 255 255 255 255 0.6649536 0.74059
0.019005 0.279387 0.019004 0.381254 0.086177 0.920445 255 255 255 255 0.6477562 0.8412256
0.019005 0.279387 0.019004 0.9204554 0.08617105 0.3812302 255 255 255 255 0.6477562 0.8412256
0.030005 0.245964 -0 0.9204554 0.08617105 0.3812302 255 255 255 255 0.7332768 0.74059
0.026876 0.279387 -0 0.9204554 0.08617105 0.3812302 255 255 255 255 0.7089501 0.8412256
0.026876 0.279387 -0 0.9204642 0.08614802 -0.3812141 255 255 255 255 0.7089501 0.8412256
0.021217 0.245964 -0.021217 0.9204642 0.08614802 -0.3812141 255 255 255 255 0.6649536 0.74059
0.019005 0.279387 -0.019005 0.9204642 0.08614802 -0.3812141 255 255 255 255 0.6477562 0.8412256
0.019005 0.279387 -0.019005 0.3812561 0.08614302 -0.9204473 255 255 255 255 0.6477562 0.8412256
0 0.245964 -0.030005 0.3812561 0.08614302 -0.9204473 255 255 255 255 0.5 0.74059
0 0.279387 -0.026877 0.3812561 0.08614302 -0.9204473 255 255 255 255 0.5 0.8412256
-0.019005 0.279387 -0.019005 -0.3812468 0.08614895 -0.9204506 255 255 255 255 0.3522438 0.8412256
0 0.245964 -0.030005 -0.3812468 0.08614895 -0.9204506 255 255 255 255 0.5 0.74059
-0.021217 0.245964 -0.021217 -0.3812468 0.08614895 -0.9204506 255 255 255 255 0.3350464 0.74059
-0.026876 0.279387 -0 -0.9204489 0.08617099 -0.3812459 255 255 255 255 0.2910499 0.8412256
-0.021217 0.245964 -0.021217 -0.9204489 0.08617099 -0.3812459 255 255 255 255 0.3350464 0.74059
-0.030005 0.245964 -0 -0.9204489 0.08617099 -0.3812459 255 255 255 255 0.2667232 0.74059
-0.019005 0.279387 0.019004 -0.9204496 0.08615995 0.3812468 255 255 255 255 0.3522438 0.8412256
-0.030005 0.245964 -0 -0.9204496 0.08615995 0.3812468 255 255 255 255 0.2667232 0.74059
-0.021217 0.245964 0.021217 -0.9204496 0.08615995 0.3812468 255 255 255 255 0.3350464 0.74059
0 0.279387 0.026876 -0.188051 -0.87093 0.454002 255 255 255 255 0.5 0.8412256
-0.0243 0.283291 0.0243 -0.188051 -0.87093 0.454002 255 255 255 255 0.3110772 0.8529805
-0.019005 0.279387 0.019004 -0.188051 -0.87093 0.454002 255 255 255 255 0.3522438 0.8412256
0 0.279387 0.026876 0.1880501 -0.8709494 0.4539652 255 255 255 255 0.5 0.8412256
0.0243 0.283291 0.0243 0.1880501 -0.8709494 0.4539652 255 255 255 255 0.6889228 0.8529805
0 0.283291 0.034366 0.1880501 -0.8709494 0.4539652 255 255 255 255 0.5 0.8529805
0.019005 0.279387 0.019004 0.4540199 -0.8709159 0.188073 255 255 255 255 0.6477562 0.8412256
0.034366 0.283291 -0 0.4540199 -0.8709159 0.188073 255 255 255 255 0.7671819 0.8529805
0.0243 0.283291 0.0243 0.4540199 -0.8709159 0.188073 255 255 255 255 0.6889228 0.8529805
0.019005 0.279387 -0.019005 0.453968 -0.870956 -0.188013 255 255 255 255 0.6477562 0.8412256
0.034366 0.283291 -0 0.453968 -0.870956 -0.188013 255 255 255 255 0.7671819 0.8529805
0.026876 0.279387 -0 0.453968 -0.870956 -0.188013 255 255 255 255 0.7089501 0.8412256
0 0.279387 -0.026877 0.18807 -0.8709019 -0.454048 255 255 255 255 0.5 0.8412256
0.0243 0.283291 -0.0243 0.18807 -0.8709019 -0.454048 255 255 255 255 0.6889228 0.8529805
0.019005 0.279387 -0.019005 0.18807 -0.8709019 -0.454048 255 255 255 255 0.6477562 0.8412256
0 0.279387 -0.026877 -0.1880691 -0.8709213 -0.4540111 255 255 255 255 0.5 0.8412256
-0.0243 0.283291 -0.0243 -0.1880691 -0.8709213 -0.4540111 255 255 255 255 0.3110772 0.8529805
0 0.283291 -0.034366 -0.1880691 -0.8709213 -0.4540111 255 255 255 255 0.5 0.8529805
-0.019005 0.279387 -0.019005 -0.4540391 -0.8709042 -0.188081 255 255 255 255 0.3522438 0.8412256
-0.034366 0.283291 -0 -0.4540391 -0.8709042 -0.188081 255 255 255 255 0.2328181 0.8529805
-0.0243 0.283291 -0.0243 -0.4540391 -0.8709042 -0.188081 255 255 255 255 0.3110772 0.8529805
-0.019005 0.279387 0.019004 -0.453968 -0.870954 0.188022 255 255 255 255 0.3522438 0.8412256
-0.034366 0.283291 -0 -0.453968 -0.870954 0.188022 255 255 255 255 0.2328181 0.8529805
-0.026876 0.279387 -0 -0.453968 -0.870954 0.188022 255 255 255 255 0.2910499 0.8412256
0 0.283291 0.034366 -0.3827032 0 0.9238713 255 255 255 255 0.5 0.8529805
-0.0243 0.305161 0.0243 -0.3827032 0 0.9238713 255 255 255 255 0.3110772 0.9188303
-0.0243 0.283291 0.0243 -0.3827032 0 0.9238713 255 255 255 255 0.3110772 0.8529805
0.0243 0.283291 0.0243 0.3827032 0 0.9238713 255 255 255 255 0.6889228 0.8529805
0 0.305161 0.034366 0.3827032 0 0.9238713 255 255 255 255 0.5 0.9188303
0 0.283291 0.034366 0.3827032 0 0.9238713 255 255 255 255 0.5 0.8529805
0.034366 0.283291 -0 0.9238713 0 0.3827032 255 255 255 255 0.7671819 0.8529805
0.0243 0.305161 0.0243 0.9238713 0 0.3827032 255 255 255 255 0.6889228 0.9188303
0.0243 0.283291 0.0243 0.9238713 0 0.3827032 255 255 255 255 0.6889228 0.8529805
0.0243 0.283291 -0.0243 0.9238713 -0 -0.3827032 255 255 255 255 0.6889228 0.8529805
0.034366 0.305161 -0 0.9238713 -0 -0.3827032 255 255 255 255 0.7671819 0.9188303
0.034366 0.283291 -0 0.9238713 -0 -0.3827032 255 255 255 255 0.7671819 0.8529805
0 0.283291 -0.034366 0.3827032 -0 -0.9238713 255 255 255 255 0.5 0.8529805
0.0243 0.305161 -0.0243 0.3827032 -0 -0.9238713 255 255 255 255 0.6889228 0.9188303
0.0243 0.283291 -0.0243 0.3827032 -0 -0.9238713 255 255 255 255 0.6889228 0.8529805
-0.0243 0.283291 -0.0243 -0.3827032 -0 -0.9238713 255 255 255 255 0.3110772 0.8529805
0 0.305161 -0.034366 -0.3827032 -0 -0.9238713 255 255 255 255 0.5 0.9188303
0 0.283291 -0.034366 -0.3827032 -0 -0.9238713 255 255 255 255 0.5 0.8529805
-0.034366 0.283291 -0 -0.9238713 -0 -0.3827032 255 255 255 255 0.2328181 0.8529805
-0.0243 0.305161 -0.0243 -0.9238713 -0 -0.3827032 255 255 255 255 0.3110772 0.9188303
-0.0243 0.283291 -0.0243 -0.9238713 -0 -0.3827032 255 255 255 255 0.3110772 0.8529805
-0.0243 0.283291 0.0243 -0.9238713 0 0.3827032 255 255 255 255 0.3110772 0.8529805
-0.034366 0.305161 -0 -0.9238713 0 0.3827032 255 255 255 255 0.2328181 0.9188303
-0.034366 0.283291 -0 -0.9238713 0 0.3827032 255 255 255 255 0.2328181 0.8529805
-0.0243 0.305161 0.0243 -0.07861903 0.9786702 0.189799 255 255 255 255 0.3110772 0.9188303
0 0.307167 0.024022 -0.07861903 0.9786702 0.189799 255 255 255 255 0.5 0.9248703
-0.016986 0.307167 0.016986 -0.07861903 0.9786702 0.189799 255 255 255 255 0.3679407 0.9248703
0.0243 0.305161 0.0243 0.07861897 0.9786716 0.1897919 255 255 255 255 0.6889228 0.9188303
0 0.307167 0.024022 0.07861897 0.9786716 0.1897919 255 255 255 255 0.5 0.9248703
0 0.305161 0.034366 0.07861897 0.9786716 0.1897919 255 255 255 255 0.5 0.9188303
0.0243 0.305161 0.0243 0.189791 0.9786711 0.07862701 255 255 255 255 0.6889228 0.9188303
0.024023 0.307167 -0 0.189791 0.9786711 0.07862701 255 255 255 255 0.6867692 0.9248703
0.016986 0.307167 0.016986 0.189791 0.9786711 0.07862701 255 255 255 255 0.6320593 0.9248703
0.0243 0.305161 -0.0243 0.1898099 0.9786675 -0.07862696 255 255 255 255 0.6889228 0.9188303
0.024023 0.307167 -0 0.1898099 0.9786675 -0.07862696 255 255 255 255 0.6867692 0.9248703
0.034366 0.305161 -0 0.1898099 0.9786675 -0.07862696 255 255 255 255 0.7671819 0.9188303
0.0243 0.305161 -0.0243 0.07862701 0.9786711 -0.189791 255 255 255 255 0.6889228 0.9188303
0 0.307167 -0.024023 0.07862701 0.9786711 -0.189791 255 255 255 255 0.5 0.9248703
0.016986 0.307167 -0.016986 0.07862701 0.9786711 -0.189791 255 255 255 255 0.6320593 0.9248703
-0.0243 0.305161 -0.0243 -0.07862696 0.9786675 -0.1898099 255 255 255 255 0.3110772 0.9188303
0 0.307167 -0.024023 -0.07862696 0.9786675 -0.1898099 255 255 255 255 0.5 0.9248703
0 0.305161 -0.034366 -0.07862696 0.9786675 -0.1898099 255 255 255 255 0.5 0.9188303
-0.0243 0.305161 -0.0243 -0.189791 0.9786711 -0.07862701 255 255 255 255 0.3110772 0.9188303
-0.024023 0.307167 -0 -0.189791 0.9786711 -0.07862701 255 255 255 255 0.3132308 0.9248703
-0.016986 0.307167 -0.016986 -0.189791 0.9786711 -0.07862701 255 255 255 255 0.3679407 0.9248703
-0.0243 0.305161 0.0243 -0.1898099 0.9786675 0.07862696 255 255 255 255 0.3110772 0.9188303
-0.024023 0.307167 -0 -0.1898099 0.9786675 0.07862696 255 255 255 255 0.3132308 0.9248703
-0.034366 0.305161 -0 -0.1898099 0.9786675 0.07862696 255 255 255 255 0.2328181 0.9188303
0 0.307167 0.024022 -0.3759759 -0.186512 0.9076648 255 255 255 255 0.5 0.9248703
-0.01647 0.327885 0.021457 -0.3759759 -0.186512 0.9076648 255 255 255 255 0.3719524 0.9872516
-0.016986 0.307167 0.016986 -0.3759759 -0.186512 0.9076648 255 255 255 255 0.3679407 0.9248703
0.016986 0.307167 0.016986 0.3783029 -0.151008 0.9132817 255 255 255 255 0.6320593 0.9248703
0.003333 0.331078 0.026595 0.3783029 -0.151008 0.9132817 255 255 255 255 0.5259128 0.9968656
0 0.307167 0.024022 0.3783029 -0.151008 0.9132817 255 255 255 255 0.5 0.9248703
0.024023 0.307167 -0 0.9146004 -0.1412041 0.3789032 255 255 255 255 0.6867692 0.9248703
0.021183 0.332119 0.016154 0.9146004 -0.1412041 0.3789032 255 255 255 255 0.6646893 1
0.016986 0.307167 0.016986 0.9146004 -0.1412041 0.3789032 255 255 255 255 0.6320593 0.9248703
0.016986 0.307167 -0.016986 0.911501 -0.163003 -0.377619 255 255 255 255 0.6320593 0.9248703
0.026624 0.330399 -0.00375 0.911501 -0.163003 -0.377619 255 255 255 255 0.7069909 0.9948212
0.024023 0.307167 -0 0.911501 -0.163003 -0.377619 255 255 255 255 0.6867692 0.9248703
0 0.307167 -0.024023 0.375374 -0.195213 -0.906083 255 255 255 255 0.5 0.9248703
0.01647 0.326927 -0.021457 0.375374 -0.195213 -0.906083 255 255 255 255 0.6280476 0.9843671
0.016986 0.307167 -0.016986 0.375374 -0.195213 -0.906083 255 255 255 255 0.6320593 0.9248703
-0.016986 0.307167 -0.016986 -0.373765 -0.21526 -0.902199 255 255 255 255 0.3679407 0.9248703
-0.003333 0.323734 -0.026595 -0.373765 -0.21526 -0.902199 255 255 255 255 0.4740873 0.974753
0 0.307167 -0.024023 -0.373765 -0.21526 -0.902199 255 255 255 255 0.5 0.9248703
-0.024023 0.307167 -0 -0.9005012 -0.223433 -0.3730621 255 255 255 255 0.3132308 0.9248703
-0.021183 0.322693 -0.016154 -0.9005012 -0.223433 -0.3730621 255 255 255 255 0.3353107 0.9716186
-0.016986 0.307167 -0.016986 -0.9005012 -0.223433 -0.3730621 255 255 255 255 0.3679407 0.9248703
-0.016986 0.307167 0.016986 -0.9017933 -0.2172421 0.3735971 255 255 255 255 0.3679407 0.9248703
-0.026624 0.324413 0.00375 -0.9017933 -0.2172421 0.3735971 255 255 255 255 0.2930091 0.9767975
-0.024023 0.307167 -0 -0.9017933 -0.2172421 0.3735971 255 255 255 255 0.3132308 0.9248703
0.045476 0.176905 0.045475 0.9150593 0.1378561 0.3790281 255 255 255 255 0.8535576 0.5326555
0.05881 0.213428 -0 0.9150593 0.1378561 0.3790281 255 255 255 255 0.9572241 0.6426251
0.041585 0.213428 0.041585 0.9150593 0.1378561 0.3790281 255 255 255 255 0.8233067 0.6426251
0.064312 0.176905 -0 0.91506 0.137849 -0.379029 255 255 255 255 1 0.5326555
0.041585 0.213428 -0.041585 0.91506 0.137849 -0.379029 255 255 255 255 0.8233067 0.6426251
0.05881 0.213428 -0 0.91506 0.137849 -0.379029 255 255 255 255 0.9572241 0.6426251
0 0.176905 -0.064312 0.379016 0.137865 -0.9150629 255 255 255 255 0.5 0.5326555
0.041585 0.213428 -0.041585 0.379016 0.137865 -0.9150629 255 255 255 255 0.8233067 0.6426251
0.045476 0.176905 -0.045476 0.379016 0.137865 -0.9150629 255 255 255 255 0.8535576 0.5326555
-0.045475 0.176905 -0.045476 -0.379024 0.137849 -0.915062 255 255 255 255 0.1464501 0.5326555
0 0.213428 -0.05881 -0.379024 0.137849 -0.915062 255 255 255 255 0.5 0.6426251
0 0.176905 -0.064312 -0.379024 0.137849 -0.915062 255 255 255 255 0.5 0.5326555
-0.064312 0.176905 -0 -0.915059 0.137842 -0.379034 255 255 255 255 0 0.5326555
-0.041585 0.213428 -0.041585 -0.915059 0.137842 -0.379034 255 255 255 255 0.1766933 0.6426251
-0.045475 0.176905 -0.045476 -0.915059 0.137842 -0.379034 255 255 255 255 0.1464501 0.5326555
-0.045475 0.176905 0.045475 -0.9150551 0.137848 0.379041 255 255 255 255 0.1464501 0.5326555
-0.05881 0.213428 -0 -0.9150551 0.137848 0.379041 255 255 255 255 0.04277587 0.6426251
-0.064312 0.176905 -0 -0.9150551 0.137848 0.379041 255 255 255 255 0 0.5326555
-0.045475 0.176905 0.045475 -0.37903 0.137832 0.9150621 255 255 255 255 0.1464501 0.5326555
0 0.213428 0.05881 -0.37903 0.137832 0.9150621 255 255 255 255 0.5 0.6426251
-0.041585 0.213428 0.041585 -0.37903 0.137832 0.9150621 255 255 255 255 0.1766933 0.6426251
0 0.176905 0.064312 0.379029 0.137849 0.91506 255 255 255 255 0.5 0.5326555
0.041585 0.213428 0.041585 0.379029 0.137849 0.91506 255 255 255 255 0.8233067 0.6426251
0 0.213428 0.05881 0.379029 0.137849 0.91506 255 255 255 255 0.5 0.6426251
0 0.176905 0.064312 -0.3826949 0 0.9238747 255 255 255 255 0.5 0.5326555
0.045476 0.176905 0.045475 0.382687 0 0.9238781 255 255 255 255 0.8535576 0.5326555
0.064312 0.176905 -0 0.9238822 0 0.382677 255 255 255 255 1 0.5326555
0.045476 0.176905 -0.045476 0.9238851 -0 -0.38267 255 255 255 255 0.8535576 0.5326555
0 0.176905 -0.064312 0.38267 -0 -0.9238851 255 255 255 255 0.5 0.5326555
-0.045475 0.176905 -0.045476 -0.382677 -0 -0.9238822 255 255 255 255 0.1464501 0.5326555
-0.064312 0.176905 -0 -0.9238781 -0 -0.382687 255 255 255 255 0 0.5326555
-0.045475 0.176905 0.045475 -0.9238747 0 0.3826949 255 255 255 255 0.1464501 0.5326555
0.055254 0 0 0.7892518 -0.5198169 0.3269129 255 255 255 255 0.9295777 0
0.064312 0.013753 -0 0.7892518 -0.5198169 0.3269129 255 255 255 255 1 0.04140986
0.045476 0.013753 0.045475 0.7892518 -0.5198169 0.3269129 255 255 255 255 0.8535576 0.04140986
0.039071 -0 -0.039071 0.7892553 -0.5198152 -0.3269071 255 255 255 255 0.8037614 0
0.045476 0.013753 -0.045476 0.7892553 -0.5198152 -0.3269071 255 255 255 255 0.8535576 0.04140986
0.064312 0.013753 -0 0.7892553 -0.5198152 -0.3269071 255 255 255 255 1 0.04140986
0.039071 -0 -0.039071 0.3269049 -0.5198189 -0.7892538 255 255 255 255 0.8037614 0
0 -0 -0.055254 0.3269049 -0.5198189 -0.7892538 255 255 255 255 0.5 0
0 0.013753 -0.064312 0.3269049 -0.5198189 -0.7892538 255 255 255 255 0.5 0.04140986
0 -0 -0.055254 -0.3269098 -0.5197977 -0.7892656 255 255 255 255 0.5 0
-0.039071 -0 -0.039071 -0.3269098 -0.5197977 -0.7892656 255 255 255 255 0.1962387 -0
-0.045475 0.013753 -0.045476 -0.3269098 -0.5197977 -0.7892656 255 255 255 255 0.1464501 0.04140986
-0.039071 -0 -0.039071 -0.7892538 -0.5198189 -0.3269049 255 255 255 255 0.1962387 -0
-0.055254 0 0 -0.7892538 -0.5198189 -0.3269049 255 255 255 255 0.07042233 0
-0.064312 0.013753 -0 -0.7892538 -0.5198189 -0.3269049 255 255 255 255 0 0.04140986
-0.055254 0 0 -0.789289 -0.519756 0.32692 255 255 255 255 0.07042233 0
-0.039071 0 0.039071 -0.789289 -0.519756 0.32692 255 255 255 255 0.1962387 0
-0.045475 0.013753 0.045475 -0.789289 -0.519756 0.32692 255 255 255 255 0.1464501 0.04140986
0 0 0.055254 -0.3269281 -0.5198142 0.7892473 255 255 255 255 0.5 0
0 0.013753 0.064312 -0.3269281 -0.5198142 0.7892473 255 255 255 255 0.5 0.04140986
-0.045475 0.013753 0.045475 -0.3269281 -0.5198142 0.7892473 255 255 255 255 0.1464501 0.04140986
0.039071 0 0.039071 0.3269311 -0.5197761 0.7892711 255 255 255 255 0.8037614 0
0.045476 0.013753 0.045475 0.3269311 -0.5197761 0.7892711 255 255 255 255 0.8535576 0.04140986
0 0.013753 0.064312 0.3269311 -0.5197761 0.7892711 255 255 255 255 0.5 0.04140986
0 0.213428 0.05881 -0.2962051 0.6331261 0.7151321 255 255 255 255 0.5 0.6426251
0 0.245964 0.030005 -0.2962051 0.6331261 0.7151321 255 255 255 255 0.5 0.74059
-0.021217 0.245964 0.021217 -0.2962051 0.6331261 0.7151321 255 255 255 255 0.3350464 0.74059
0 0.213428 0.05881 0.2962169 0.6331198 0.7151328 255 255 255 255 0.5 0.6426251
0.041585 0.213428 0.041585 0.2962169 0.6331198 0.7151328 255 255 255 255 0.8233067 0.6426251
0.021217 0.245964 0.021217 0.2962169 0.6331198 0.7151328 255 255 255 255 0.6649536 0.74059
0.05881 0.213428 -0 0.7151321 0.6331261 0.2962051 255 255 255 255 0.9572241 0.6426251
0.030005 0.245964 -0 0.7151321 0.6331261 0.2962051 255 255 255 255 0.7332768 0.74059
0.021217 0.245964 0.021217 0.7151321 0.6331261 0.2962051 255 255 255 255 0.6649536 0.74059
0.05881 0.213428 -0 0.7151332 0.6331192 -0.2962171 255 255 255 255 0.9572241 0.6426251
0.041585 0.213428 -0.041585 0.7151332 0.6331192 -0.2962171 255 255 255 255 0.8233067 0.6426251
0.021217 0.245964 -0.021217 0.7151332 0.6331192 -0.2962171 255 255 255 255 0.6649536 0.74059
0 0.213428 -0.05881 0.2962051 0.6331261 -0.7151321 255 255 255 255 0.5 0.6426251
0 0.245964 -0.030005 0.2962051 0.6331261 -0.7151321 255 255 255 255 0.5 0.74059
0.021217 0.245964 -0.021217 0.2962051 0.6331261 -0.7151321 255 255 255 255 0.6649536 0.74059
0 0.213428 -0.05881 -0.2962171 0.6331192 -0.7151332 255 255 255 255 0.5 0.6426251
-0.041585 0.213428 -0.041585 -0.2962171 0.6331192 -0.7151332 255 255 255 255 0.1766933 0.6426251
-0.021217 0.245964 -0.021217 -0.2962171 0.6331192 -0.7151332 255 255 255 255 0.3350464 0.74059
-0.05881 0.213428 -0 -0.7151321 0.6331261 -0.2962051 255 255 255 255 0.04277587 0.6426251
-0.030005 0.245964 -0 -0.7151321 0.6331261 -0.2962051 255 255 255 255 0.2667232 0.74059
-0.021217 0.245964 -0.021217 -0.7151321 0.6331261 -0.2962051 255 255 255 255 0.3350464 0.74059
-0.05881 0.213428 -0 -0.7151332 0.6331192 0.2962171 255 255 255 255 0.04277587 0.6426251
-0.041585 0.213428 0.041585 -0.7151332 0.6331192 0.2962171 255 255 255 255 0.1766933 0.6426251
-0.021217 0.245964 0.021217 -0.7151332 0.6331192 0.2962171 255 255 255 255 0.3350464 0.74059
0 0.279387 0.026876 -0.381254 0.086177 0.920445 255 255 255 255 0.5 0.8412256
-0.019005 0.279387 0.019004 -0.381254 0.086177 0.920445 255 255 255 255 0.3522438 0.8412256
-0.021217 0.245964 0.021217 -0.381254 0.086177 0.920445 255 255 255 255 0.3350464 0.74059
0 0.279387 0.026876 0.3812459 0.08617099 0.9204489 255 255 255 255 0.5 0.8412256
0 0.245964 0.030005 0.3812459 0.08617099 0.9204489 255 255 255 255 0.5 0.74059
0.021217 0.245964 0.021217 0.3812459 0.08617099 0.9204489 255 255 255 255 0.6649536 0.74059
0.019005 0.279387 0.019004 0.9204496 0.08615995 0.3812468 255 255 255 255 0.6477562 0.8412256
0.021217 0.245964 0.021217 0.9204496 0.08615995 0.3812468 255 255 255 255 0.6649536 0.74059
0.030005 0.245964 -0 0.9204496 0.08615995 0.3812468 255 255 255 255 0.7332768 0.74059
0.026876 0.279387 -0 0.9204489 0.08617099 -0.3812459 255 255 255 255 0.7089501 0.8412256
0.030005 0.245964 -0 0.9204489 0.08617099 -0.3812459 255 255 255 255 0.7332768 0.74059
0.021217 0.245964 -0.021217 0.9204489 0.08617099 -0.3812459 255 255 255 255 0.6649536 0.74059
0.019005 0.279387 -0.019005 0.3812468 0.08614895 -0.9204506 255 255 255 255 0.6477562 0.8412256
0.021217 0.245964 -0.021217 0.3812468 0.08614895 -0.9204506 255 255 255 255 0.6649536 0.74059
0 0.245964 -0.030005 0.3812468 0.08614895 -0.9204506 255 255 255 255 0.5 0.74059
-0.019005 0.279387 -0.019005 -0.3812561 0.08614302 -0.9204473 255 255 255 255 0.3522438 0.8412256
0 0.279387 -0.026877 -0.3812561 0.08614302 -0.9204473 255 255 255 255 0.5 0.8412256
0 0.245964 -0.030005 -0.3812561 0.08614302 -0.9204473 255 255 255 255 0.5 0.74059
-0.026876 0.279387 -0 -0.9204642 0.08614802 -0.3812141 255 255 255 255 0.2910499 0.8412256
-0.019005 0.279387 -0.019005 -0.9204642 0.08614802 -0.3812141 255 255 255 255 0.3522438 0.8412256
-0.021217 0.245964 -0.021217 -0.9204642 0.08614802 -0.3812141 255 255 255 255 0.3350464 0.74059
-0.019005 0.279387 0.019004 -0.9204554 0.08617105 0.3812302 255 255 255 255 0.3522438 0.8412256
-0.026876 0.279387 -0 -0.9204554 0.08617105 0.3812302 255 255 255 255 0.2910499 0.8412256
-0.030005 0.245964 -0 -0.9204554 0.08617105 0.3812302 255 255 255 255 0.2667232 0.74059
0 0.279387 0.026876 -0.1880501 -0.8709494 0.4539652 255 255 255 255 0.5 0.8412256
0 0.283291 0.034366 -0.1880501 -0.8709494 0.4539652 255 255 255 255 0.5 0.8529805
-0.0243 0.283291 0.0243 -0.1880501 -0.8709494 0.4539652 255 255 255 255 0.3110772 0.8529805
0 0.279387 0.026876 0.188051 -0.87093 0.454002 255 255 255 255 0.5 0.8412256
0.019005 0.279387 0.019004 0.188051 -0.87093 0.454002 255 255 255 255 0.6477562 0.8412256
0.0243 0.283291 0.0243 0.188051 -0.87093 0.454002 255 255 255 255 0.6889228 0.8529805
0.019005 0.279387 0.019004 0.453968 -0.870954 0.188022 255 255 255 255 0.6477562 0.8412256
0.026876 0.279387 -0 0.453968 -0.870954 0.188022 255 255 255 255 0.7089501 0.8412256
0.034366 0.283291 -0 0.453968 -0.870954 0.188022 255 255 255 255 0.7671819 0.8529805
0.019005 0.279387 -0.019005 0.4540391 -0.8709042 -0.188081 255 255 255 255 0.6477562 0.8412256
0.0243 0.283291 -0.0243 0.4540391 -0.8709042 -0.188081 255 255 255 255 0.6889228 0.8529805
0.034366 0.283291 -0 0.4540391 -0.8709042 -0.188081 255 255 255 255 0.7671819 0.8529805
0 0.279387 -0.026877 0.1880691 -0.8709213 -0.4540111 255 255 255 255 0.5 0.8412256
0 0.283291 -0.034366 0.1880691 -0.8709213 -0.4540111 255 255 255 255 0.5 0.8529805
0.0243 0.283291 -0.0243 0.1880691 -0.8709213 -0.4540111 255 255 255 255 0.6889228 0.8529805
0 0.279387 -0.026877 -0.18807 -0.8709019 -0.454048 255 255 255 255 0.5 0.8412256
-0.019005 0.279387 -0.019005 -0.18807 -0.8709019 -0.454048 255 255 255 255 0.3522438 0.8412256
-0.0243 0.283291 -0.0243 -0.18807 -0.8709019 -0.454048 255 255 255 255 0.3110772 0.8529805
-0.019005 0.279387 -0.019005 -0.453968 -0.870956 -0.188013 255 255 255 255 0.3522438 0.8412256
-0.026876 0.279387 -0 -0.453968 -0.870956 -0.188013 255 255 255 255 0.2910499 0.8412256
-0.034366 0.283291 -0 -0.453968 -0.870956 -0.188013 255 255 255 255 0.2328181 0.8529805
-0.019005 0.279387 0.019004 -0.4540199 -0.8709159 0.188073 255 255 255 255 0.3522438 0.8412256
-0.0243 0.283291 0.0243 -0.4540199 -0.8709159 0.188073 255 255 255 255 0.3110772 0.8529805
-0.034366 0.283291 -0 -0.4540199 -0.8709159 0.188073 255 255 255 255 0.2328181 0.8529805
0 0.305161 0.034366 -0.3827032 0 0.9238713 255 255 255 255 0.5 0.9188303
0.0243 0.305161 0.0243 0.3827032 0 0.9238713 255 255 255 255 0.6889228 0.9188303
0.034366 0.305161 -0 0.9238713 0 0.3827032 255 255 255 255 0.7671819 0.9188303
0.0243 0.305161 -0.0243 0.9238713 -0 -0.3827032 255 255 255 255 0.6889228 0.9188303
0 0.305161 -0.034366 0.3827032 -0 -0.9238713 255 255 255 255 0.5 0.9188303
-0.0243 0.305161 -0.0243 -0.3827032 -0 -0.9238713 255 255 255 255 0.3110772 0.9188303
-0.034366 0.305161 -0 -0.9238713 -0 -0.3827032 255 255 255 255 0.2328181 0.9188303
-0.0243 0.305161 0.0243 -0.9238713 0 0.3827032 255 255 255 255 0.3110772 0.9188303
-0.0243 0.305161 0.0243 -0.07861897 0.9786716 0.1897919 255 255 255 255 0.3110772 0.9188303
0 0.305161 0.034366 -0.07861897 0.9786716 0.1897919 255 255 255 255 0.5 0.9188303
0 0.307167 0.024022 -0.07861897 0.9786716 0.1897919 255 255 255 255 0.5 0.9248703
0.0243 0.305161 0.0243 0.07861903 0.9786702 0.189799 255 255 255 255 0.6889228 0.9188303
0.016986 0.307167 0.016986 0.07861903 0.9786702 0.189799 255 255 255 255 0.6320593 0.9248703
0 0.307167 0.024022 0.07861903 0.9786702 0.189799 255 255 255 255 0.5 0.9248703
0.0243 0.305161 0.0243 0.1898099 0.9786675 0.07862696 255 255 255 255 0.6889228 0.9188303
0.034366 0.305161 -0 0.1898099 0.9786675 0.07862696 255 255 255 255 0.7671819 0.9188303
0.024023 0.307167 -0 0.1898099 0.9786675 0.07862696 255 255 255 255 0.6867692 0.9248703
0.0243 0.305161 -0.0243 0.189791 0.9786711 -0.07862701 255 255 255 255 0.6889228 0.9188303
0.016986 0.307167 -0.016986 0.189791 0.9786711 -0.07862701 255 255 255 255 0.6320593 0.9248703
0.024023 0.307167 -0 0.189791 0.9786711 -0.07862701 255 255 255 255 0.6867692 0.9248703
0.0243 0.305161 -0.0243 0.07862696 0.9786675 -0.1898099 255 255 255 255 0.6889228 0.9188303
0 0.305161 -0.034366 0.07862696 0.9786675 -0.1898099 255 255 255 255 0.5 0.9188303
0 0.307167 -0.024023 0.07862696 0.9786675 -0.1898099 255 255 255 255 0.5 0.9248703
-0.0243 0.305161 -0.0243 -0.07862701 0.9786711 -0.189791 255 255 255 255 0.3110772 0.9188303
-0.016986 0.307167 -0.016986 -0.07862701 0.9786711 -0.189791 255 255 255 255 0.3679407 0.9248703
0 0.307167 -0.024023 -0.07862701 0.9786711 -0.189791 255 255 255 255 0.5 0.9248703
-0.0243 0.305161 -0.0243 -0.1898099 0.9786675 -0.07862696 255 255 255 255 0.3110772 0.9188303
-0.034366 0.305161 -0 -0.1898099 0.9786675 -0.07862696 255 255 255 255 0.2328181 0.9188303
-0.024023 0.307167 -0 -0.1898099 0.9786675 -0.07862696 255 255 255 255 0.3132308 0.9248703
-0.0243 0.305161 0.0243 -0.189791 0.9786711 0.07862701 255 255 255 255 0.3110772 0.9188303
-0.016986 0.307167 0.016986 -0.189791 0.9786711 0.07862701 255 255 255 255 0.3679407 0.9248703
-0.024023 0.307167 -0 -0.189791 0.9786711 0.07862701 255 255 255 255 0.3132308 0.9248703
0 0.307167 0.024022 -0.2398049 -0.07076298 0.9682388 255 255 255 255 0.5 0.9248703
0.003333 0.331078 0.026595 -0.2398049 -0.07076298 0.9682388 255 255 255 255 0.5259128 0.9968656
-0.01647 0.327885 0.021457 -0.2398049 -0.07076298 0.9682388 255 255 255 255 0.3719524 0.9872516
0.016986 0.307167 0.016986 0.5065459 -0.05651499 0.8603588 255 255 255 255 0.6320593 0.9248703
0.021183 0.332119 0.016154 0.5065459 -0.05651499 0.8603588 255 255 255 255 0.6646893 1
0.003333 0.331078 0.026595 0.5065459 -0.05651499 0.8603588 255 255 255 255 0.5259128 0.9968656
0.024023 0.307167 -0 0.9611847 -0.06430299 0.268308 255 255 255 255 0.6867692 0.9248703
0.026624 0.330399 -0.00375 0.9611847 -0.06430299 0.268308 255 255 255 255 0.7069909 0.9948212
0.021183 0.332119 0.016154 0.9611847 -0.06430299 0.268308 255 255 255 255 0.6646893 1
0.016986 0.307167 -0.016986 0.8714619 -0.086479 -0.482779 255 255 255 255 0.6320593 0.9248703
0.01647 0.326927 -0.021457 0.8714619 -0.086479 -0.482779 255 255 255 255 0.6280476 0.9843671
0.026624 0.330399 -0.00375 0.8714619 -0.086479 -0.482779 255 255 255 255 0.7069909 0.9948212
0 0.307167 -0.024023 0.2644271 -0.09578404 -0.9596373 255 255 255 255 0.5 0.9248703
-0.003333 0.323734 -0.026595 0.2644271 -0.09578404 -0.9596373 255 255 255 255 0.4740873 0.974753
0.01647 0.326927 -0.021457 0.2644271 -0.09578404 -0.9596373 255 255 255 255 0.6280476 0.9843671
-0.016986 0.307167 -0.016986 -0.4990491 -0.08871002 -0.8620212 255 255 255 255 0.3679407 0.9248703
-0.021183 0.322693 -0.016154 -0.4990491 -0.08871002 -0.8620212 255 255 255 255 0.3353107 0.9716186
-0.003333 0.323734 -0.026595 -0.4990491 -0.08871002 -0.8620212 255 255 255 255 0.4740873 0.974753
-0.024023 0.307167 -0 -0.9626675 -0.08964995 -0.2554099 255 255 255 255 0.3132308 0.9248703
-0.026624 0.324413 0.00375 -0.9626675 -0.08964995 -0.2554099 255 255 255 255 0.2930091 0.9767975
-0.021183 0.322693 -0.016154 -0.9626675 -0.08964995 -0.2554099 255 255 255 255 0.3353107 0.9716186
-0.016986 0.307167 0.016986 -0.8565131 -0.08840301 0.5084981 255 255 255 255 0.3679407 0.9248703
-0.01647 0.327885 0.021457 -0.8565131 -0.08840301 0.5084981 255 255 255 255 0.3719524 0.9872516
-0.026624 0.324413 0.00375 -0.8565131 -0.08840301 0.5084981 255 255 255 255 0.2930091 0.9767975
0.045476 0.176905 0.045475 0.915062 0.137849 0.379024 255 255 255 255 0.8535576 0.5326555
0.064312 0.176905 -0 0.915062 0.137849 0.379024 255 255 255 255 1 0.5326555
0.05881 0.213428 -0 0.915062 0.137849 0.379024 255 255 255 255 0.9572241 0.6426251
0.064312 0.176905 -0 0.915063 0.137865 -0.379016 255 255 255 255 1 0.5326555
0.045476 0.176905 -0.045476 0.915063 0.137865 -0.379016 255 255 255 255 0.8535576 0.5326555
0.041585 0.213428 -0.041585 0.915063 0.137865 -0.379016 255 255 255 255 0.8233067 0.6426251
0 0.176905 -0.064312 0.379029 0.137849 -0.91506 255 255 255 255 0.5 0.5326555
0 0.213428 -0.05881 0.379029 0.137849 -0.91506 255 255 255 255 0.5 0.6426251
0.041585 0.213428 -0.041585 0.379029 0.137849 -0.91506 255 255 255 255 0.8233067 0.6426251
-0.045475 0.176905 -0.045476 -0.3790281 0.1378561 -0.9150593 255 255 255 255 0.1464501 0.5326555
-0.041585 0.213428 -0.041585 -0.3790281 0.1378561 -0.9150593 255 255 255 255 0.1766933 0.6426251
0 0.213428 -0.05881 -0.3790281 0.1378561 -0.9150593 255 255 255 255 0.5 0.6426251
-0.064312 0.176905 -0 -0.91506 0.137849 -0.379029 255 255 255 255 0 0.5326555
-0.05881 0.213428 -0 -0.91506 0.137849 -0.379029 255 255 255 255 0.04277587 0.6426251
-0.041585 0.213428 -0.041585 -0.91506 0.137849 -0.379029 255 255 255 255 0.1766933 0.6426251
-0.045475 0.176905 0.045475 -0.9150622 0.137831 0.3790301 255 255 255 255 0.1464501 0.5326555
-0.041585 0.213428 0.041585 -0.9150622 0.137831 0.3790301 255 255 255 255 0.1766933 0.6426251
-0.05881 0.213428 -0 -0.9150622 0.137831 0.3790301 255 255 255 255 0.04277587 0.6426251
-0.045475 0.176905 0.045475 -0.379041 0.137848 0.9150551 255 255 255 255 0.1464501 0.5326555
0 0.176905 0.064312 -0.379041 0.137848 0.9150551 255 255 255 255 0.5 0.5326555
0 0.213428 0.05881 -0.379041 0.137848 0.9150551 255 255 255 255 0.5 0.6426251
0 0.176905 0.064312 0.379034 0.137842 0.915059 255 255 255 255 0.5 0.5326555
0.045476 0.176905 0.045475 0.379034 0.137842 0.915059 255 255 255 255 0.8535576 0.5326555
0.041585 0.213428 0.041585 0.379034 0.137842 0.915059 255 255 255 255 0.8233067 0.6426251
3 0 1 2 
3 3 4 5 
3 6 7 8 
3 9 10 11 
3 12 13 14 
3 15 16 17 
3 18 19 20 
3 21 22 23 
3 24 25 26 
3 27 24 26 
3 28 27 26 
3 29 28 26 
3 30 29 26 
3 31 30 26 
3 32 31 26 
3 25 32 26 
3 33 34 35 
3 36 37 38 
3 39 40 41 
3 42 43 44 
3 45 46 47 
3 48 49 50 
3 51 52 53 
3 54 55 56 
3 57 58 59 
3 60 61 62 
3 63 64 65 
3 66 67 68 
3 69 70 71 
3 72 73 74 
3 75 76 77 
3 78 79 80 
3 81 82 83 
3 84 85 86 
3 87 88 89 
3 90 91 92 
3 93 94 95 
3 96 97 98 
3 99 100 101 
3 102 103 104 
3 105 106 107 
3 108 109 110 
3 111 112 113 
3 114 115 116 
3 117 118 119 
3 120 121 122 
3 123 124 125 
3 126 127 128 
3 129 130 131 
3 132 133 134 
3 135 136 137 
3 138 139 140 
3 141 142 143 
3 144 145 146 
3 147 148 149 
3 150 151 152 
3 153 154 155 
3 156 157 158 
3 159 160 161 
3 162 163 164 
3 165 166 167 
3 168 169 170 
3 171 172 173 
3 174 175 176 
3 177 178 179 
3 180 181 182 
3 183 184 185 
3 186 187 188 
3 189 190 191 
3 192 193 194 
3 195 196 197 
3 198 199 200 
3 201 202 203 
3 204 205 206 
3 207 208 209 
3 210 211 212 
3 213 214 215 
3 216 217 218 
3 219 220 221 
3 222 223 224 
3 225 226 227 
3 228 229 230 
3 231 232 233 
3 234 235 236 
3 237 238 239 
3 240 241 242 
3 243 244 245 
3 246 247 248 
3 0 249 1 
3 3 250 4 
3 6 251 7 
3 9 252 10 
3 12 253 13 
3 15 254 16 
3 18 255 19 
3 21 256 22 
3 257 258 259 
3 260 261 262 
3 263 264 265 
3 266 267 268 
3 269 270 271 
3 272 273 274 
3 275 276 277 
3 278 279 280 
3 281 282 283 
3 284 285 286 
3 287 288 289 
3 290 291 292 
3 293 294 295 
3 296 297 298 
3 299 300 301 
3 302 303 304 
3 305 306 307 
3 308 309 310 
3 311 312 313 
3 314 315 316 
3 317 318 319 
3 320 321 322 
3 323 324 325 
3 326 327 328 
3 329 330 331 
3 332 333 334 
3 335 336 337 
3 338 339 340 
3 341 342 343 
3 344 345 346 
3 347 348 349 
3 350 351 352 
3 153 353 154 
3 156 354 157 
3 159 355 160 
3 162 356 163 
3 165 357 166 
3 168 358 169 
3 171 359 172 
3 174 360 175 
3 361 362 363 
3 364 365 366 
3 367 368 369 
3 370 371 372 
3 373 374 375 
3 376 377 378 
3 379 380 381 
3 382 383 384 
3 385 386 387 
3 388 389 390 
3 391 392 393 
3 394 395 396 
3 397 398 399 
3 400 401 402 
3 403 404 405 
3 406 407 408 
3 409 410 411 
3 412 413 414 
3 415 416 417 
3 418 419 420 
3 421 422 423 
3 424 425 426 
3 427 428 429 
3 430 431 432 
