ply
format ascii 1.0
comment VCGLIB generated
element vertex 497
property float x
property float y
property float z
property float nx
property float ny
property float nz
property uchar red
property uchar green
property uchar blue
property uchar alpha
property float texture_u
property float texture_v
element face 192
property list uchar int vertex_indices
end_header
0 0.116121 -0.060079 -0.1976779 0.3961059 -0.8966737 255 255 255 255 0.5 0.5559034
-0.045392 0.132988 -0.042621 -0.1976779 0.3961059 -0.8966737 255 255 255 255 0.2196225 0.6366505
0 0.132988 -0.052628 -0.1976779 0.3961059 -0.8966737 255 255 255 255 0.5 0.6366505
0 0.205719 -0 0.1361019 0.9906805 0.005324997 255 255 255 255 0.5 0.9848339
-0.018917 0.208244 0.01374 0.1361019 0.9906805 0.005324997 255 255 255 255 0.3831534 0.9969218
-0.003769 0.206113 0.02303 0.1361019 0.9906805 0.005324997 255 255 255 255 0.4767196 0.9867201
0 0.116121 0.059912 -0.07654199 0.6064839 0.7914029 255 255 255 255 0.5 0.5559034
-0.045392 0.132988 0.042596 -0.07654199 0.6064839 0.7914029 255 255 255 255 0.2196225 0.6366505
-0.057374 0.116121 0.054363 -0.07654199 0.6064839 0.7914029 255 255 255 255 0.145612 0.5559034
0 -0 -3e-06 0 -1 0 255 255 255 255 0.5 0
-0.023063 0 0.022129 0 -1 0 255 255 255 255 0.3575444 0
-0.03254 -0 -9e-06 0 -1 0 255 255 255 255 0.2990068 -0
-0.064042 0.132988 -3e-06 -0.670622 0.681223 0.293601 255 255 255 255 0.1044251 0.6366505
-0.057374 0.116121 0.054363 -0.670622 0.681223 0.293601 255 255 255 255 0.145612 0.5559034
-0.045392 0.132988 0.042596 -0.670622 0.681223 0.293601 255 255 255 255 0.2196225 0.6366505
0.057374 0.116121 0.054363 0.670622 0.681223 0.293601 255 255 255 255 0.8543879 0.5559034
0.064042 0.132988 -3e-06 0.670622 0.681223 0.293601 255 255 255 255 0.8955749 0.6366505
0.045392 0.132988 0.042596 0.670622 0.681223 0.293601 255 255 255 255 0.7803775 0.6366505
0 0.116121 -0.060079 0.07621702 0.6106941 -0.7881901 255 255 255 255 0.5 0.5559034
0.045392 0.132988 -0.042621 0.07621702 0.6106941 -0.7881901 255 255 255 255 0.7803775 0.6366505
0.057374 0.116121 -0.054531 0.07621702 0.6106941 -0.7881901 255 255 255 255 0.8543879 0.5559034
0.023063 0 0.022129 0 -1 0 255 255 255 255 0.6424556 0
0.03254 -0 -9e-06 0 -1 0 255 255 255 255 0.7009932 0
0.045392 0.132988 0.042596 0.07654199 0.6064839 0.7914029 255 255 255 255 0.7803775 0.6366505
0 0.116121 0.059912 0.07654199 0.6064839 0.7914029 255 255 255 255 0.5 0.5559034
0.057374 0.116121 0.054363 0.07654199 0.6064839 0.7914029 255 255 255 255 0.8543879 0.5559034
0 0.205719 -0 0.13613 0.990677 0.005274 255 255 255 255 0.5 0.9848339
0.013575 0.203753 0.018905 0.13613 0.990677 0.005274 255 255 255 255 0.5838501 0.9754221
0.022921 0.20255 0.003644 0.13613 0.990677 0.005274 255 255 255 255 0.6415786 0.969663
-0.023063 -0 -0.022155 0 -1 0 255 255 255 255 0.3575444 -0
0 -0 -0.030509 0 -1 0 255 255 255 255 0.5 0
0.023063 -0 -0.022155 -0 -1 0 255 255 255 255 0.6424556 0
0.064042 0.132988 -3e-06 0.6695541 0.68253 -0.293002 255 255 255 255 0.8955749 0.6366505
0.057374 0.116121 -0.054531 0.6695541 0.68253 -0.293002 255 255 255 255 0.8543879 0.5559034
0.045392 0.132988 -0.042621 0.6695541 0.68253 -0.293002 255 255 255 255 0.7803775 0.6366505
0.018917 0.203195 -0.01374 0.136109 0.9906791 0.005408001 255 255 255 255 0.6168466 0.9727508
0 0.205719 -0 0.136109 0.9906791 0.005408001 255 255 255 255 0.5 0.9848339
0.022921 0.20255 0.003644 0.136109 0.9906791 0.005408001 255 255 255 255 0.6415786 0.969663
0 0.205719 -0 0.136073 0.9906843 0.005369002 255 255 255 255 0.5 0.9848339
-0.013575 0.207686 -0.018905 0.136073 0.9906843 0.005369002 255 255 255 255 0.4161499 0.9942505
-0.022921 0.208887 -0.003644 0.136073 0.9906843 0.005369002 255 255 255 255 0.3584215 1
-0.057374 0.116121 -0.054531 -0.6695541 0.68253 -0.293002 255 255 255 255 0.145612 0.5559034
-0.064042 0.132988 -3e-06 -0.6695541 0.68253 -0.293002 255 255 255 255 0.1044251 0.6366505
-0.045392 0.132988 -0.042621 -0.6695541 0.68253 -0.293002 255 255 255 255 0.2196225 0.6366505
0 0.048434 0.048067 0.103462 -0.5719898 0.8137096 255 255 255 255 0.5 0.231867
0.024561 0.016939 0.022805 0.103462 -0.5719898 0.8137096 255 255 255 255 0.6517085 0.08109169
0.046033 0.048434 0.042214 0.103462 -0.5719898 0.8137096 255 255 255 255 0.7843369 0.231867
0.034653 0.016939 -3.2e-05 0.6891508 -0.6575128 0.3045459 255 255 255 255 0.7140448 0.08109169
0.046033 0.048434 0.042214 0.6891508 -0.6575128 0.3045459 255 255 255 255 0.7843369 0.231867
0.024561 0.016939 0.022805 0.6891508 -0.6575128 0.3045459 255 255 255 255 0.6517085 0.08109169
0.046033 0.048434 -0.042345 0.6889007 -0.6578507 -0.3043819 255 255 255 255 0.7843369 0.231867
0.034653 0.016939 -3.2e-05 0.6889007 -0.6578507 -0.3043819 255 255 255 255 0.7140448 0.08109169
0.024561 0.016939 -0.022873 0.6889007 -0.6578507 -0.3043819 255 255 255 255 0.6517085 0.08109169
0.024561 0.016939 -0.022873 0.103482 -0.5731331 -0.8129022 255 255 255 255 0.6517085 0.08109169
0 0.048434 -0.048205 0.103482 -0.5731331 -0.8129022 255 255 255 255 0.5 0.231867
0.046033 0.048434 -0.042345 0.103482 -0.5731331 -0.8129022 255 255 255 255 0.7843369 0.231867
0 0.048434 -0.048205 -0.103482 -0.5731331 -0.8129022 255 255 255 255 0.5 0.231867
-0.024561 0.016939 -0.022873 -0.103482 -0.5731331 -0.8129022 255 255 255 255 0.3482915 0.08109169
-0.046033 0.048434 -0.042345 -0.103482 -0.5731331 -0.8129022 255 255 255 255 0.2156632 0.231867
-0.034653 0.016939 -3.2e-05 -0.6889007 -0.6578507 -0.3043819 255 255 255 255 0.2859552 0.08109169
-0.046033 0.048434 -0.042345 -0.6889007 -0.6578507 -0.3043819 255 255 255 255 0.2156632 0.231867
-0.024561 0.016939 -0.022873 -0.6889007 -0.6578507 -0.3043819 255 255 255 255 0.3482915 0.08109169
-0.046033 0.048434 0.042214 -0.6891508 -0.6575128 0.3045459 255 255 255 255 0.2156632 0.231867
-0.034653 0.016939 -3.2e-05 -0.6891508 -0.6575128 0.3045459 255 255 255 255 0.2859552 0.08109169
-0.024561 0.016939 0.022805 -0.6891508 -0.6575128 0.3045459 255 255 255 255 0.3482915 0.08109169
-0.024561 0.016939 0.022805 -0.103462 -0.5719898 0.8137096 255 255 255 255 0.3482915 0.08109169
0 0.048434 0.048067 -0.103462 -0.5719898 0.8137096 255 255 255 255 0.5 0.231867
-0.046033 0.048434 0.042214 -0.103462 -0.5719898 0.8137096 255 255 255 255 0.2156632 0.231867
-0.045392 0.132988 0.042596 -0.3124481 0.9400343 0.1367911 255 255 255 255 0.2196225 0.6366505
-0.034295 0.142875 -1e-06 -0.3124481 0.9400343 0.1367911 255 255 255 255 0.2881665 0.6839823
-0.064042 0.132988 -3e-06 -0.3124481 0.9400343 0.1367911 255 255 255 255 0.1044251 0.6366505
0 0.132988 0.052561 -0.082917 0.92221 0.377695 255 255 255 255 0.5 0.6366505
-0.024307 0.142875 0.023084 -0.082917 0.92221 0.377695 255 255 255 255 0.3498604 0.6839823
-0.045392 0.132988 0.042596 -0.082917 0.92221 0.377695 255 255 255 255 0.2196225 0.6366505
0 0.132988 0.052561 0.142123 0.8972008 0.4181289 255 255 255 255 0.5 0.6366505
0.024307 0.142875 0.023084 0.142123 0.8972008 0.4181289 255 255 255 255 0.6501396 0.6839823
0 0.142875 0.031346 0.142123 0.8972008 0.4181289 255 255 255 255 0.5 0.6839823
0.045392 0.132988 0.042596 0.3145631 0.9394292 0.136099 255 255 255 255 0.7803775 0.6366505
0.034295 0.142875 -1e-06 0.3145631 0.9394292 0.136099 255 255 255 255 0.7118335 0.6839823
0.024307 0.142875 0.023084 0.3145631 0.9394292 0.136099 255 255 255 255 0.6501396 0.6839823
0 0.132988 -0.052628 0.08317997 0.9223456 -0.3773059 255 255 255 255 0.5 0.6366505
0.024307 0.142875 -0.0231 0.08317997 0.9223456 -0.3773059 255 255 255 255 0.6501396 0.6839823
0.045392 0.132988 -0.042621 0.08317997 0.9223456 -0.3773059 255 255 255 255 0.7803775 0.6366505
0.045392 0.132988 -0.042621 0.3124339 0.9400488 -0.136724 255 255 255 255 0.7803775 0.6366505
0.034295 0.142875 -1e-06 0.3124339 0.9400488 -0.136724 255 255 255 255 0.7118335 0.6839823
0.064042 0.132988 -3e-06 0.3124339 0.9400488 -0.136724 255 255 255 255 0.8955749 0.6366505
0 0.132988 -0.052628 -0.142093 0.8975053 -0.4174851 255 255 255 255 0.5 0.6366505
-0.024307 0.142875 -0.0231 -0.142093 0.8975053 -0.4174851 255 255 255 255 0.3498604 0.6839823
0 0.142875 -0.031373 -0.142093 0.8975053 -0.4174851 255 255 255 255 0.5 0.6839823
-0.045392 0.132988 -0.042621 -0.3145781 0.9394352 -0.136023 255 255 255 255 0.2196225 0.6366505
-0.034295 0.142875 -1e-06 -0.3145781 0.9394352 -0.136023 255 255 255 255 0.2881665 0.6839823
-0.024307 0.142875 -0.0231 -0.3145781 0.9394352 -0.136023 255 255 255 255 0.3498604 0.6839823
-0.024307 0.142875 0.023084 -0.6152139 0.7420648 0.2661799 255 255 255 255 0.3498604 0.6839823
-0.017617 0.156702 -1e-06 -0.6152139 0.7420648 0.2661799 255 255 255 255 0.3911832 0.750176
-0.034295 0.142875 -1e-06 -0.6152139 0.7420648 0.2661799 255 255 255 255 0.2881665 0.6839823
0 0.142875 0.031346 -0.2253889 0.7137908 0.6631008 255 255 255 255 0.5 0.6839823
-0.012486 0.156702 0.012218 -0.2253889 0.7137908 0.6631008 255 255 255 255 0.4228764 0.750176
-0.024307 0.142875 0.023084 -0.2253889 0.7137908 0.6631008 255 255 255 255 0.3498604 0.6839823
0 0.142875 0.031346 0.260159 0.6939071 0.671424 255 255 255 255 0.5 0.6839823
0.012486 0.156702 0.012218 0.260159 0.6939071 0.671424 255 255 255 255 0.5771236 0.750176
0 0.156702 0.017056 0.260159 0.6939071 0.671424 255 255 255 255 0.5 0.750176
0.024307 0.142875 0.023084 0.622529 0.737646 0.261412 255 255 255 255 0.6501396 0.6839823
0.017617 0.156702 -1e-06 0.622529 0.737646 0.261412 255 255 255 255 0.6088168 0.750176
0.012486 0.156702 0.012218 0.622529 0.737646 0.261412 255 255 255 255 0.5771236 0.750176
0 0.142875 -0.031373 0.225563 0.71408 -0.66273 255 255 255 255 0.5 0.6839823
0.012486 0.156702 -0.012225 0.225563 0.71408 -0.66273 255 255 255 255 0.5771236 0.750176
0.024307 0.142875 -0.0231 0.225563 0.71408 -0.66273 255 255 255 255 0.6501396 0.6839823
0.024307 0.142875 -0.0231 0.61524 0.742097 -0.26603 255 255 255 255 0.6501396 0.6839823
0.017617 0.156702 -1e-06 0.61524 0.742097 -0.26603 255 255 255 255 0.6088168 0.750176
0.034295 0.142875 -1e-06 0.61524 0.742097 -0.26603 255 255 255 255 0.7118335 0.6839823
0 0.142875 -0.031373 -0.2602198 0.6942706 -0.6710246 255 255 255 255 0.5 0.6839823
-0.012486 0.156702 -0.012225 -0.2602198 0.6942706 -0.6710246 255 255 255 255 0.4228764 0.750176
0 0.156702 -0.017067 -0.2602198 0.6942706 -0.6710246 255 255 255 255 0.5 0.750176
-0.024307 0.142875 -0.0231 -0.6225067 0.7377058 -0.2612959 255 255 255 255 0.3498604 0.6839823
-0.017617 0.156702 -1e-06 -0.6225067 0.7377058 -0.2612959 255 255 255 255 0.3911832 0.750176
-0.012486 0.156702 -0.012225 -0.6225067 0.7377058 -0.2612959 255 255 255 255 0.4228764 0.750176
-0.012486 0.156702 0.012218 -0.9186353 -0.08546202 0.3857531 255 255 255 255 0.4228764 0.750176
-0.01887 0.170175 -0 -0.9186353 -0.08546202 0.3857531 255 255 255 255 0.3834437 0.8146749
-0.017617 0.156702 -1e-06 -0.9186353 -0.08546202 0.3857531 255 255 255 255 0.3911832 0.750176
0 0.156702 0.017056 -0.3596749 -0.09473896 0.9282556 255 255 255 255 0.5 0.750176
-0.013374 0.170175 0.013249 -0.3596749 -0.09473896 0.9282556 255 255 255 255 0.4173914 0.8146749
-0.012486 0.156702 0.012218 -0.3596749 -0.09473896 0.9282556 255 255 255 255 0.4228764 0.750176
0 0.156702 0.017056 0.3668209 -0.102869 0.9245867 255 255 255 255 0.5 0.750176
0.013374 0.170175 0.013249 0.3668209 -0.102869 0.9245867 255 255 255 255 0.5826086 0.8146749
0 0.170175 0.018555 0.3668209 -0.102869 0.9245867 255 255 255 255 0.5 0.8146749
0.012486 0.156702 0.012218 0.9199454 -0.08983603 0.3816152 255 255 255 255 0.5771236 0.750176
0.01887 0.170175 -0 0.9199454 -0.08983603 0.3816152 255 255 255 255 0.6165563 0.8146749
0.013374 0.170175 0.013249 0.9199454 -0.08983603 0.3816152 255 255 255 255 0.5826086 0.8146749
0 0.156702 -0.017067 0.3599428 -0.09447595 -0.9281786 255 255 255 255 0.5 0.750176
0.013374 0.170175 -0.013252 0.3599428 -0.09447595 -0.9281786 255 255 255 255 0.5826086 0.8146749
0.012486 0.156702 -0.012225 0.3599428 -0.09447595 -0.9281786 255 255 255 255 0.5771236 0.750176
0.012486 0.156702 -0.012225 0.9186956 -0.08541097 -0.3856209 255 255 255 255 0.5771236 0.750176
0.01887 0.170175 -0 0.9186956 -0.08541097 -0.3856209 255 255 255 255 0.6165563 0.8146749
0.017617 0.156702 -1e-06 0.9186956 -0.08541097 -0.3856209 255 255 255 255 0.6088168 0.750176
0 0.156702 -0.017067 -0.367013 -0.102522 -0.924549 255 255 255 255 0.5 0.750176
-0.013374 0.170175 -0.013252 -0.367013 -0.102522 -0.924549 255 255 255 255 0.4173914 0.8146749
0 0.170175 -0.018561 -0.367013 -0.102522 -0.924549 255 255 255 255 0.5 0.8146749
-0.012486 0.156702 -0.012225 -0.9199858 -0.08971998 -0.3815449 255 255 255 255 0.4228764 0.750176
-0.01887 0.170175 -0 -0.9199858 -0.08971998 -0.3815449 255 255 255 255 0.3834437 0.8146749
-0.013374 0.170175 -0.013252 -0.9199858 -0.08971998 -0.3815449 255 255 255 255 0.4173914 0.8146749
-0.01887 0.170175 -0 0 -1 -0 255 255 255 255 0.3834437 0.8146749
-0.01757 0.170175 0.017355 0 -1 -0 255 255 255 255 0.3914736 0.8146749
-0.02479 0.170175 -0 0 -1 -0 255 255 255 255 0.346877 0.8146749
-0.013374 0.170175 0.013249 0 -1 -0 255 255 255 255 0.4173914 0.8146749
0 0.170175 0.024201 0 -1 -0 255 255 255 255 0.5 0.8146749
0.013374 0.170175 0.013249 0 -1 0 255 255 255 255 0.5826086 0.8146749
0 0.170175 0.018555 0 -1 0 255 255 255 255 0.5 0.8146749
0.01887 0.170175 -0 0 -1 0 255 255 255 255 0.6165563 0.8146749
0.01757 0.170175 0.017355 0 -1 0 255 255 255 255 0.6085264 0.8146749
0.013374 0.170175 -0.013252 -0 -1 0 255 255 255 255 0.5826086 0.8146749
0 0.170175 -0.02421 -0 -1 0 255 255 255 255 0.5 0.8146749
0.01757 0.170175 -0.01736 -0 -1 0 255 255 255 255 0.6085264 0.8146749
0.02479 0.170175 -0 -0 -1 0 255 255 255 255 0.653123 0.8146749
-0.013374 0.170175 -0.013252 -0 -1 -0 255 255 255 255 0.4173914 0.8146749
0 0.170175 -0.018561 -0 -1 -0 255 255 255 255 0.5 0.8146749
-0.01757 0.170175 -0.01736 -0 -1 0 255 255 255 255 0.3914736 0.8146749
-0.01757 0.170175 0.017355 -0.9232894 0 0.3841051 255 255 255 255 0.3914736 0.8146749
-0.02479 0.189132 -0 -0.9232894 0 0.3841051 255 255 255 255 0.346877 0.9054274
-0.02479 0.170175 -0 -0.9232894 0 0.3841051 255 255 255 255 0.346877 0.8146749
0 0.170175 0.024201 -0.363036 -0.010321 0.931718 255 255 255 255 0.5 0.8146749
-0.01757 0.189132 0.017565 -0.363036 -0.010321 0.931718 255 255 255 255 0.3914736 0.9054274
-0.01757 0.170175 0.017355 -0.363036 -0.010321 0.931718 255 255 255 255 0.3914736 0.8146749
0 0.170175 0.024201 0.3766308 -0.02491299 0.9260285 255 255 255 255 0.5 0.8146749
0.01757 0.189132 0.017565 0.3766308 -0.02491299 0.9260285 255 255 255 255 0.6085264 0.9054274
0 0.189132 0.024711 0.3766308 -0.02491299 0.9260285 255 255 255 255 0.5 0.9054274
0.01757 0.170175 0.017355 0.9249042 -0.004211001 0.3801771 255 255 255 255 0.6085264 0.8146749
0.02479 0.189132 -0 0.9249042 -0.004211001 0.3801771 255 255 255 255 0.653123 0.9054274
0.01757 0.189132 0.017565 0.9249042 -0.004211001 0.3801771 255 255 255 255 0.6085264 0.9054274
0 0.170175 -0.02421 0.3632212 -0.01007501 -0.9316485 255 255 255 255 0.5 0.8146749
0.01757 0.189132 -0.017565 0.3632212 -0.01007501 -0.9316485 255 255 255 255 0.6085264 0.9054274
0.01757 0.170175 -0.01736 0.3632212 -0.01007501 -0.9316485 255 255 255 255 0.6085264 0.8146749
0.01757 0.170175 -0.01736 0.9233286 -0 -0.3840108 255 255 255 255 0.6085264 0.8146749
0.02479 0.189132 -0 0.9233286 -0 -0.3840108 255 255 255 255 0.653123 0.9054274
0.02479 0.170175 -0 0.9233286 -0 -0.3840108 255 255 255 255 0.653123 0.8146749
0 0.170175 -0.02421 -0.3767239 -0.02456999 -0.9259997 255 255 255 255 0.5 0.8146749
-0.01757 0.189132 -0.017565 -0.3767239 -0.02456999 -0.9259997 255 255 255 255 0.3914736 0.9054274
0 0.189132 -0.024713 -0.3767239 -0.02456999 -0.9259997 255 255 255 255 0.5 0.9054274
-0.01757 0.170175 -0.01736 -0.9249047 -0.004110999 -0.3801769 255 255 255 255 0.3914736 0.8146749
-0.02479 0.189132 -0 -0.9249047 -0.004110999 -0.3801769 255 255 255 255 0.346877 0.9054274
-0.01757 0.189132 -0.017565 -0.9249047 -0.004110999 -0.3801769 255 255 255 255 0.3914736 0.9054274
-0.02479 0.189132 -0 0 1 -0 255 255 255 255 0.346877 0.9054274
-0.011678 0.189132 0.011677 0 1 -0 255 255 255 255 0.4278673 0.9054274
-0.016476 0.189132 -0 0 1 -0 255 255 255 255 0.398231 0.9054274
0 0.189132 0.024711 -0 1 0 255 255 255 255 0.5 0.9054274
-0.01757 0.189132 0.017565 -0 1 0 255 255 255 255 0.3914736 0.9054274
0.011678 0.189132 0.011677 -0 1 -0 255 255 255 255 0.5721328 0.9054274
0 0.189132 0.016466 -0 1 -0 255 255 255 255 0.5 0.9054274
0.02479 0.189132 -0 0 1 0 255 255 255 255 0.653123 0.9054274
0.01757 0.189132 0.017565 0 1 0 255 255 255 255 0.6085264 0.9054274
0 0.189132 -0.024713 0 1 0 255 255 255 255 0.5 0.9054274
0.011678 0.189132 -0.011678 0 1 0 255 255 255 255 0.5721328 0.9054274
0.01757 0.189132 -0.017565 0 1 0 255 255 255 255 0.6085264 0.9054274
0.016476 0.189132 -0 -0 1 0 255 255 255 255 0.601769 0.9054274
-0.011678 0.189132 -0.011678 0 1 0 255 255 255 255 0.4278673 0.9054274
0 0.189132 -0.016466 0 1 0 255 255 255 255 0.5 0.9054274
-0.01757 0.189132 -0.017565 0 1 -0 255 255 255 255 0.3914736 0.9054274
-0.016476 0.189132 -0 -0.9407525 -0.2687821 0.2067391 255 255 255 255 0.398231 0.9054274
-0.018917 0.208244 0.01374 -0.9407525 -0.2687821 0.2067391 255 255 255 255 0.3831534 0.9969218
-0.022921 0.208887 -0.003644 -0.9407525 -0.2687821 0.2067391 255 255 255 255 0.3584215 1
-0.011678 0.189132 0.011677 -0.5298288 -0.2868339 0.7981277 255 255 255 255 0.4278673 0.9054274
-0.003769 0.206113 0.02303 -0.5298288 -0.2868339 0.7981277 255 255 255 255 0.4767196 0.9867201
-0.018917 0.208244 0.01374 -0.5298288 -0.2868339 0.7981277 255 255 255 255 0.3831534 0.9969218
0 0.189132 0.016466 0.177733 -0.3202411 0.9305142 255 255 255 255 0.5 0.9054274
0.013575 0.203753 0.018905 0.177733 -0.3202411 0.9305142 255 255 255 255 0.5838501 0.9754221
-0.003769 0.206113 0.02303 0.177733 -0.3202411 0.9305142 255 255 255 255 0.4767196 0.9867201
0.011678 0.189132 0.011677 0.7851205 -0.3533298 0.5086687 255 255 255 255 0.5721328 0.9054274
0.022921 0.20255 0.003644 0.7851205 -0.3533298 0.5086687 255 255 255 255 0.6415786 0.969663
0.013575 0.203753 0.018905 0.7851205 -0.3533298 0.5086687 255 255 255 255 0.5838501 0.9754221
0.011678 0.189132 -0.011678 0.4525781 -0.353034 -0.8188651 255 255 255 255 0.5721328 0.9054274
0.003769 0.205324 -0.02303 0.4525781 -0.353034 -0.8188651 255 255 255 255 0.5232804 0.9829429
0.018917 0.203195 -0.01374 0.4525781 -0.353034 -0.8188651 255 255 255 255 0.6168466 0.9727508
0.016476 0.189132 -0 0.9011475 -0.3727208 -0.2213879 255 255 255 255 0.601769 0.9054274
0.018917 0.203195 -0.01374 0.9011475 -0.3727208 -0.2213879 255 255 255 255 0.6168466 0.9727508
0.022921 0.20255 0.003644 0.9011475 -0.3727208 -0.2213879 255 255 255 255 0.6415786 0.969663
0 0.189132 -0.016466 -0.2597471 -0.3102561 -0.9144794 255 255 255 255 0.5 0.9054274
-0.013575 0.207686 -0.018905 -0.2597471 -0.3102561 -0.9144794 255 255 255 255 0.4161499 0.9942505
0.003769 0.205324 -0.02303 -0.2597471 -0.3102561 -0.9144794 255 255 255 255 0.5232804 0.9829429
-0.011678 0.189132 -0.011678 -0.8295454 -0.2742871 -0.4864372 255 255 255 255 0.4278673 0.9054274
-0.022921 0.208887 -0.003644 -0.8295454 -0.2742871 -0.4864372 255 255 255 255 0.3584215 1
-0.013575 0.207686 -0.018905 -0.8295454 -0.2742871 -0.4864372 255 255 255 255 0.4161499 0.9942505
0 0.016939 0.031008 0.316099 -0.06572499 0.9464469 255 255 255 255 0.5 0.08109169
0.023063 0 0.022129 0.316099 -0.06572499 0.9464469 255 255 255 255 0.6424556 0
0.024561 0.016939 0.022805 0.316099 -0.06572499 0.9464469 255 255 255 255 0.6517085 0.08109169
0.03254 -0 -9e-06 0.915011 -0.096551 0.391705 255 255 255 255 0.7009932 0
0.024561 0.016939 0.022805 0.915011 -0.096551 0.391705 255 255 255 255 0.6517085 0.08109169
0.023063 0 0.022129 0.915011 -0.096551 0.391705 255 255 255 255 0.6424556 0
0.024561 0.016939 -0.022873 0.9149762 -0.09751301 -0.3915481 255 255 255 255 0.6517085 0.08109169
0.03254 -0 -9e-06 0.9149762 -0.09751301 -0.3915481 255 255 255 255 0.7009932 0
0.023063 -0 -0.022155 0.9149762 -0.09751301 -0.3915481 255 255 255 255 0.6424556 0
0.023063 -0 -0.022155 0.3161881 -0.06807102 -0.9462513 255 255 255 255 0.6424556 0
0 0.016939 -0.03108 0.3161881 -0.06807102 -0.9462513 255 255 255 255 0.5 0.08109169
0.024561 0.016939 -0.022873 0.3161881 -0.06807102 -0.9462513 255 255 255 255 0.6517085 0.08109169
0 0.016939 -0.03108 -0.3161881 -0.06807102 -0.9462513 255 255 255 255 0.5 0.08109169
-0.023063 -0 -0.022155 -0.3161881 -0.06807102 -0.9462513 255 255 255 255 0.3575444 -0
-0.024561 0.016939 -0.022873 -0.3161881 -0.06807102 -0.9462513 255 255 255 255 0.3482915 0.08109169
-0.03254 -0 -9e-06 -0.9149762 -0.09751301 -0.3915481 255 255 255 255 0.2990068 -0
-0.024561 0.016939 -0.022873 -0.9149762 -0.09751301 -0.3915481 255 255 255 255 0.3482915 0.08109169
-0.023063 -0 -0.022155 -0.9149762 -0.09751301 -0.3915481 255 255 255 255 0.3575444 -0
-0.024561 0.016939 0.022805 -0.915011 -0.096551 0.391705 255 255 255 255 0.3482915 0.08109169
-0.03254 -0 -9e-06 -0.915011 -0.096551 0.391705 255 255 255 255 0.2990068 -0
-0.023063 0 0.022129 -0.915011 -0.096551 0.391705 255 255 255 255 0.3575444 0
0 0.016939 0.031008 -0.34028 -0.029352 0.939866 255 255 255 255 0.5 0.08109169
-0.023063 0 0.022129 -0.34028 -0.029352 0.939866 255 255 255 255 0.3575444 0
0 0 0.030479 -0.34028 -0.029352 0.939866 255 255 255 255 0.5 0
-0.080948 0.116121 -8.4e-05 -0.8952802 -0.2195801 0.3876311 255 255 255 255 0 0.5559034
-0.046033 0.048434 0.042214 -0.8952802 -0.2195801 0.3876311 255 255 255 255 0.2156632 0.231867
-0.057374 0.116121 0.054363 -0.8952802 -0.2195801 0.3876311 255 255 255 255 0.145612 0.5559034
-0.046033 0.048434 -0.042345 -0.8952387 -0.2197819 -0.3876128 255 255 255 255 0.2156632 0.231867
-0.080948 0.116121 -8.4e-05 -0.8952387 -0.2197819 -0.3876128 255 255 255 255 0 0.5559034
-0.057374 0.116121 -0.054531 -0.8952387 -0.2197819 -0.3876128 255 255 255 255 0.145612 0.5559034
0 0.116121 -0.060079 -0.09446503 -0.1917031 -0.9768963 255 255 255 255 0.5 0.5559034
-0.046033 0.048434 -0.042345 -0.09446503 -0.1917031 -0.9768963 255 255 255 255 0.2156632 0.231867
-0.057374 0.116121 -0.054531 -0.09446503 -0.1917031 -0.9768963 255 255 255 255 0.145612 0.5559034
0.046033 0.048434 -0.042345 0.09446503 -0.1917031 -0.9768963 255 255 255 255 0.7843369 0.231867
0 0.116121 -0.060079 0.09446503 -0.1917031 -0.9768963 255 255 255 255 0.5 0.5559034
0.057374 0.116121 -0.054531 0.09446503 -0.1917031 -0.9768963 255 255 255 255 0.8543879 0.5559034
0.080948 0.116121 -8.4e-05 0.8952387 -0.2197819 -0.3876128 255 255 255 255 1 0.5559034
0.046033 0.048434 -0.042345 0.8952387 -0.2197819 -0.3876128 255 255 255 255 0.7843369 0.231867
0.057374 0.116121 -0.054531 0.8952387 -0.2197819 -0.3876128 255 255 255 255 0.8543879 0.5559034
0.046033 0.048434 0.042214 0.8952802 -0.2195801 0.3876311 255 255 255 255 0.7843369 0.231867
0.080948 0.116121 -8.4e-05 0.8952802 -0.2195801 0.3876311 255 255 255 255 1 0.5559034
0.057374 0.116121 0.054363 0.8952802 -0.2195801 0.3876311 255 255 255 255 0.8543879 0.5559034
0 0.116121 0.059912 0.09449101 -0.191191 0.9769941 255 255 255 255 0.5 0.5559034
0.046033 0.048434 0.042214 0.09449101 -0.191191 0.9769941 255 255 255 255 0.7843369 0.231867
0.057374 0.116121 0.054363 0.09449101 -0.191191 0.9769941 255 255 255 255 0.8543879 0.5559034
-0.046033 0.048434 0.042214 -0.09449101 -0.191191 0.9769941 255 255 255 255 0.2156632 0.231867
0 0.116121 0.059912 -0.09449101 -0.191191 0.9769941 255 255 255 255 0.5 0.5559034
-0.057374 0.116121 0.054363 -0.09449101 -0.191191 0.9769941 255 255 255 255 0.145612 0.5559034
0 0.116121 -0.060079 -0.07621702 0.6106941 -0.7881901 255 255 255 255 0.5 0.5559034
-0.057374 0.116121 -0.054531 -0.07621702 0.6106941 -0.7881901 255 255 255 255 0.145612 0.5559034
-0.045392 0.132988 -0.042621 -0.07621702 0.6106941 -0.7881901 255 255 255 255 0.2196225 0.6366505
0 0.205719 -0 0.136084 0.9906831 0.0053 255 255 255 255 0.5 0.9848339
-0.022921 0.208887 -0.003644 0.136084 0.9906831 0.0053 255 255 255 255 0.3584215 1
-0.018917 0.208244 0.01374 0.136084 0.9906831 0.0053 255 255 255 255 0.3831534 0.9969218
0 0.116121 0.059912 -0.197294 0.3916739 0.8987027 255 255 255 255 0.5 0.5559034
0 0.132988 0.052561 -0.197294 0.3916739 0.8987027 255 255 255 255 0.5 0.6366505
-0.045392 0.132988 0.042596 -0.197294 0.3916739 0.8987027 255 255 255 255 0.2196225 0.6366505
0 0 0.030479 0 -1 0 255 255 255 255 0.5 0
-0.064042 0.132988 -3e-06 -0.6760572 0.6762142 0.2927131 255 255 255 255 0.1044251 0.6366505
-0.080948 0.116121 -8.4e-05 -0.6760572 0.6762142 0.2927131 255 255 255 255 0 0.5559034
-0.057374 0.116121 0.054363 -0.6760572 0.6762142 0.2927131 255 255 255 255 0.145612 0.5559034
0.057374 0.116121 0.054363 0.6760572 0.6762142 0.2927131 255 255 255 255 0.8543879 0.5559034
0.080948 0.116121 -8.4e-05 0.6760572 0.6762142 0.2927131 255 255 255 255 1 0.5559034
0.064042 0.132988 -3e-06 0.6760572 0.6762142 0.2927131 255 255 255 255 0.8955749 0.6366505
0 0.116121 -0.060079 0.1976779 0.3961059 -0.8966737 255 255 255 255 0.5 0.5559034
0 0.132988 -0.052628 0.1976779 0.3961059 -0.8966737 255 255 255 255 0.5 0.6366505
0.045392 0.132988 -0.042621 0.1976779 0.3961059 -0.8966737 255 255 255 255 0.7803775 0.6366505
0.045392 0.132988 0.042596 0.197294 0.3916739 0.8987027 255 255 255 255 0.7803775 0.6366505
0 0.132988 0.052561 0.197294 0.3916739 0.8987027 255 255 255 255 0.5 0.6366505
0 0.116121 0.059912 0.197294 0.3916739 0.8987027 255 255 255 255 0.5 0.5559034
0 0.205719 -0 0.136068 0.9906852 0.005320001 255 255 255 255 0.5 0.9848339
-0.003769 0.206113 0.02303 0.136068 0.9906852 0.005320001 255 255 255 255 0.4767196 0.9867201
0.013575 0.203753 0.018905 0.136068 0.9906852 0.005320001 255 255 255 255 0.5838501 0.9754221
0.064042 0.132988 -3e-06 0.6747729 0.6777359 -0.292157 255 255 255 255 0.8955749 0.6366505
0.080948 0.116121 -8.4e-05 0.6747729 0.6777359 -0.292157 255 255 255 255 1 0.5559034
0.057374 0.116121 -0.054531 0.6747729 0.6777359 -0.292157 255 255 255 255 0.8543879 0.5559034
0.018917 0.203195 -0.01374 0.136008 0.9906937 0.005266998 255 255 255 255 0.6168466 0.9727508
0.003769 0.205324 -0.02303 0.136008 0.9906937 0.005266998 255 255 255 255 0.5232804 0.9829429
0 0.205719 -0 0.136008 0.9906937 0.005266998 255 255 255 255 0.5 0.9848339
0 0.205719 -0 0.136175 0.9906707 0.005293998 255 255 255 255 0.5 0.9848339
0.003769 0.205324 -0.02303 0.136175 0.9906707 0.005293998 255 255 255 255 0.5232804 0.9829429
-0.013575 0.207686 -0.018905 0.136175 0.9906707 0.005293998 255 255 255 255 0.4161499 0.9942505
-0.057374 0.116121 -0.054531 -0.6747729 0.6777359 -0.292157 255 255 255 255 0.145612 0.5559034
-0.080948 0.116121 -8.4e-05 -0.6747729 0.6777359 -0.292157 255 255 255 255 0 0.5559034
-0.064042 0.132988 -3e-06 -0.6747729 0.6777359 -0.292157 255 255 255 255 0.1044251 0.6366505
0 0.048434 0.048067 0.281774 -0.4569679 0.8436728 255 255 255 255 0.5 0.231867
0 0.016939 0.031008 0.281774 -0.4569679 0.8436728 255 255 255 255 0.5 0.08109169
0.024561 0.016939 0.022805 0.281774 -0.4569679 0.8436728 255 255 255 255 0.6517085 0.08109169
0.034653 0.016939 -3.2e-05 0.6860821 -0.6596081 0.3069341 255 255 255 255 0.7140448 0.08109169
0.064947 0.048434 -6.4e-05 0.6860821 -0.6596081 0.3069341 255 255 255 255 0.9011649 0.231867
0.046033 0.048434 0.042214 0.6860821 -0.6596081 0.3069341 255 255 255 255 0.7843369 0.231867
0.046033 0.048434 -0.042345 0.6858047 -0.6599646 -0.3067878 255 255 255 255 0.7843369 0.231867
0.064947 0.048434 -6.4e-05 0.6858047 -0.6599646 -0.3067878 255 255 255 255 0.9011649 0.231867
0.034653 0.016939 -3.2e-05 0.6858047 -0.6599646 -0.3067878 255 255 255 255 0.7140448 0.08109169
0.024561 0.016939 -0.022873 0.281672 -0.458348 -0.842958 255 255 255 255 0.6517085 0.08109169
0 0.016939 -0.03108 0.281672 -0.458348 -0.842958 255 255 255 255 0.5 0.08109169
0 0.048434 -0.048205 0.281672 -0.458348 -0.842958 255 255 255 255 0.5 0.231867
0 0.048434 -0.048205 -0.281672 -0.458348 -0.842958 255 255 255 255 0.5 0.231867
0 0.016939 -0.03108 -0.281672 -0.458348 -0.842958 255 255 255 255 0.5 0.08109169
-0.024561 0.016939 -0.022873 -0.281672 -0.458348 -0.842958 255 255 255 255 0.3482915 0.08109169
-0.034653 0.016939 -3.2e-05 -0.6858047 -0.6599646 -0.3067878 255 255 255 255 0.2859552 0.08109169
-0.064947 0.048434 -6.4e-05 -0.6858047 -0.6599646 -0.3067878 255 255 255 255 0.09883506 0.231867
-0.046033 0.048434 -0.042345 -0.6858047 -0.6599646 -0.3067878 255 255 255 255 0.2156632 0.231867
-0.046033 0.048434 0.042214 -0.6860821 -0.6596081 0.3069341 255 255 255 255 0.2156632 0.231867
-0.064947 0.048434 -6.4e-05 -0.6860821 -0.6596081 0.3069341 255 255 255 255 0.09883506 0.231867
-0.034653 0.016939 -3.2e-05 -0.6860821 -0.6596081 0.3069341 255 255 255 255 0.2859552 0.08109169
-0.024561 0.016939 0.022805 -0.281774 -0.4569679 0.8436728 255 255 255 255 0.3482915 0.08109169
0 0.016939 0.031008 -0.281774 -0.4569679 0.8436728 255 255 255 255 0.5 0.08109169
0 0.048434 0.048067 -0.281774 -0.4569679 0.8436728 255 255 255 255 0.5 0.231867
-0.045392 0.132988 0.042596 -0.3145631 0.9394292 0.136099 255 255 255 255 0.2196225 0.6366505
-0.024307 0.142875 0.023084 -0.3145631 0.9394292 0.136099 255 255 255 255 0.3498604 0.6839823
-0.034295 0.142875 -1e-06 -0.3145631 0.9394292 0.136099 255 255 255 255 0.2881665 0.6839823
0 0.132988 0.052561 -0.142123 0.8972008 0.4181289 255 255 255 255 0.5 0.6366505
0 0.142875 0.031346 -0.142123 0.8972008 0.4181289 255 255 255 255 0.5 0.6839823
-0.024307 0.142875 0.023084 -0.142123 0.8972008 0.4181289 255 255 255 255 0.3498604 0.6839823
0 0.132988 0.052561 0.082917 0.92221 0.377695 255 255 255 255 0.5 0.6366505
0.045392 0.132988 0.042596 0.082917 0.92221 0.377695 255 255 255 255 0.7803775 0.6366505
0.024307 0.142875 0.023084 0.082917 0.92221 0.377695 255 255 255 255 0.6501396 0.6839823
0.045392 0.132988 0.042596 0.3124481 0.9400343 0.1367911 255 255 255 255 0.7803775 0.6366505
0.064042 0.132988 -3e-06 0.3124481 0.9400343 0.1367911 255 255 255 255 0.8955749 0.6366505
0.034295 0.142875 -1e-06 0.3124481 0.9400343 0.1367911 255 255 255 255 0.7118335 0.6839823
0 0.132988 -0.052628 0.142093 0.8975053 -0.4174851 255 255 255 255 0.5 0.6366505
0 0.142875 -0.031373 0.142093 0.8975053 -0.4174851 255 255 255 255 0.5 0.6839823
0.024307 0.142875 -0.0231 0.142093 0.8975053 -0.4174851 255 255 255 255 0.6501396 0.6839823
0.045392 0.132988 -0.042621 0.3145781 0.9394352 -0.136023 255 255 255 255 0.7803775 0.6366505
0.024307 0.142875 -0.0231 0.3145781 0.9394352 -0.136023 255 255 255 255 0.6501396 0.6839823
0.034295 0.142875 -1e-06 0.3145781 0.9394352 -0.136023 255 255 255 255 0.7118335 0.6839823
0 0.132988 -0.052628 -0.08317997 0.9223456 -0.3773059 255 255 255 255 0.5 0.6366505
-0.045392 0.132988 -0.042621 -0.08317997 0.9223456 -0.3773059 255 255 255 255 0.2196225 0.6366505
-0.024307 0.142875 -0.0231 -0.08317997 0.9223456 -0.3773059 255 255 255 255 0.3498604 0.6839823
-0.045392 0.132988 -0.042621 -0.3124339 0.9400488 -0.136724 255 255 255 255 0.2196225 0.6366505
-0.064042 0.132988 -3e-06 -0.3124339 0.9400488 -0.136724 255 255 255 255 0.1044251 0.6366505
-0.034295 0.142875 -1e-06 -0.3124339 0.9400488 -0.136724 255 255 255 255 0.2881665 0.6839823
-0.024307 0.142875 0.023084 -0.622529 0.737646 0.261412 255 255 255 255 0.3498604 0.6839823
-0.012486 0.156702 0.012218 -0.622529 0.737646 0.261412 255 255 255 255 0.4228764 0.750176
-0.017617 0.156702 -1e-06 -0.622529 0.737646 0.261412 255 255 255 255 0.3911832 0.750176
0 0.142875 0.031346 -0.260159 0.6939071 0.671424 255 255 255 255 0.5 0.6839823
0 0.156702 0.017056 -0.260159 0.6939071 0.671424 255 255 255 255 0.5 0.750176
-0.012486 0.156702 0.012218 -0.260159 0.6939071 0.671424 255 255 255 255 0.4228764 0.750176
0 0.142875 0.031346 0.2253889 0.7137908 0.6631008 255 255 255 255 0.5 0.6839823
0.024307 0.142875 0.023084 0.2253889 0.7137908 0.6631008 255 255 255 255 0.6501396 0.6839823
0.012486 0.156702 0.012218 0.2253889 0.7137908 0.6631008 255 255 255 255 0.5771236 0.750176
0.024307 0.142875 0.023084 0.6152139 0.7420648 0.2661799 255 255 255 255 0.6501396 0.6839823
0.034295 0.142875 -1e-06 0.6152139 0.7420648 0.2661799 255 255 255 255 0.7118335 0.6839823
0.017617 0.156702 -1e-06 0.6152139 0.7420648 0.2661799 255 255 255 255 0.6088168 0.750176
0 0.142875 -0.031373 0.2602198 0.6942706 -0.6710246 255 255 255 255 0.5 0.6839823
0 0.156702 -0.017067 0.2602198 0.6942706 -0.6710246 255 255 255 255 0.5 0.750176
0.012486 0.156702 -0.012225 0.2602198 0.6942706 -0.6710246 255 255 255 255 0.5771236 0.750176
0.024307 0.142875 -0.0231 0.6225067 0.7377058 -0.2612959 255 255 255 255 0.6501396 0.6839823
0.012486 0.156702 -0.012225 0.6225067 0.7377058 -0.2612959 255 255 255 255 0.5771236 0.750176
0.017617 0.156702 -1e-06 0.6225067 0.7377058 -0.2612959 255 255 255 255 0.6088168 0.750176
0 0.142875 -0.031373 -0.225563 0.71408 -0.66273 255 255 255 255 0.5 0.6839823
-0.024307 0.142875 -0.0231 -0.225563 0.71408 -0.66273 255 255 255 255 0.3498604 0.6839823
-0.012486 0.156702 -0.012225 -0.225563 0.71408 -0.66273 255 255 255 255 0.4228764 0.750176
-0.024307 0.142875 -0.0231 -0.61524 0.742097 -0.26603 255 255 255 255 0.3498604 0.6839823
-0.034295 0.142875 -1e-06 -0.61524 0.742097 -0.26603 255 255 255 255 0.2881665 0.6839823
-0.017617 0.156702 -1e-06 -0.61524 0.742097 -0.26603 255 255 255 255 0.3911832 0.750176
-0.012486 0.156702 0.012218 -0.9199454 -0.08983603 0.3816152 255 255 255 255 0.4228764 0.750176
-0.013374 0.170175 0.013249 -0.9199454 -0.08983603 0.3816152 255 255 255 255 0.4173914 0.8146749
-0.01887 0.170175 -0 -0.9199454 -0.08983603 0.3816152 255 255 255 255 0.3834437 0.8146749
0 0.156702 0.017056 -0.3668209 -0.102869 0.9245867 255 255 255 255 0.5 0.750176
0 0.170175 0.018555 -0.3668209 -0.102869 0.9245867 255 255 255 255 0.5 0.8146749
-0.013374 0.170175 0.013249 -0.3668209 -0.102869 0.9245867 255 255 255 255 0.4173914 0.8146749
0 0.156702 0.017056 0.3596749 -0.09473896 0.9282556 255 255 255 255 0.5 0.750176
0.012486 0.156702 0.012218 0.3596749 -0.09473896 0.9282556 255 255 255 255 0.5771236 0.750176
0.013374 0.170175 0.013249 0.3596749 -0.09473896 0.9282556 255 255 255 255 0.5826086 0.8146749
0.012486 0.156702 0.012218 0.9186353 -0.08546202 0.3857531 255 255 255 255 0.5771236 0.750176
0.017617 0.156702 -1e-06 0.9186353 -0.08546202 0.3857531 255 255 255 255 0.6088168 0.750176
0.01887 0.170175 -0 0.9186353 -0.08546202 0.3857531 255 255 255 255 0.6165563 0.8146749
0 0.156702 -0.017067 0.367013 -0.102522 -0.924549 255 255 255 255 0.5 0.750176
0 0.170175 -0.018561 0.367013 -0.102522 -0.924549 255 255 255 255 0.5 0.8146749
0.013374 0.170175 -0.013252 0.367013 -0.102522 -0.924549 255 255 255 255 0.5826086 0.8146749
0.012486 0.156702 -0.012225 0.9199858 -0.08971998 -0.3815449 255 255 255 255 0.5771236 0.750176
0.013374 0.170175 -0.013252 0.9199858 -0.08971998 -0.3815449 255 255 255 255 0.5826086 0.8146749
0.01887 0.170175 -0 0.9199858 -0.08971998 -0.3815449 255 255 255 255 0.6165563 0.8146749
0 0.156702 -0.017067 -0.3599428 -0.09447595 -0.9281786 255 255 255 255 0.5 0.750176
-0.012486 0.156702 -0.012225 -0.3599428 -0.09447595 -0.9281786 255 255 255 255 0.4228764 0.750176
-0.013374 0.170175 -0.013252 -0.3599428 -0.09447595 -0.9281786 255 255 255 255 0.4173914 0.8146749
-0.012486 0.156702 -0.012225 -0.9186956 -0.08541097 -0.3856209 255 255 255 255 0.4228764 0.750176
-0.017617 0.156702 -1e-06 -0.9186956 -0.08541097 -0.3856209 255 255 255 255 0.3911832 0.750176
-0.01887 0.170175 -0 -0.9186956 -0.08541097 -0.3856209 255 255 255 255 0.3834437 0.8146749
-0.01757 0.170175 0.017355 -0.9249042 -0.004211001 0.3801771 255 255 255 255 0.3914736 0.8146749
-0.01757 0.189132 0.017565 -0.9249042 -0.004211001 0.3801771 255 255 255 255 0.3914736 0.9054274
-0.02479 0.189132 -0 -0.9249042 -0.004211001 0.3801771 255 255 255 255 0.346877 0.9054274
0 0.170175 0.024201 -0.3766308 -0.02491299 0.9260285 255 255 255 255 0.5 0.8146749
0 0.189132 0.024711 -0.3766308 -0.02491299 0.9260285 255 255 255 255 0.5 0.9054274
-0.01757 0.189132 0.017565 -0.3766308 -0.02491299 0.9260285 255 255 255 255 0.3914736 0.9054274
0 0.170175 0.024201 0.363036 -0.010321 0.931718 255 255 255 255 0.5 0.8146749
0.01757 0.170175 0.017355 0.363036 -0.010321 0.931718 255 255 255 255 0.6085264 0.8146749
0.01757 0.189132 0.017565 0.363036 -0.010321 0.931718 255 255 255 255 0.6085264 0.9054274
0.01757 0.170175 0.017355 0.9232894 0 0.3841051 255 255 255 255 0.6085264 0.8146749
0.02479 0.170175 -0 0.9232894 0 0.3841051 255 255 255 255 0.653123 0.8146749
0.02479 0.189132 -0 0.9232894 0 0.3841051 255 255 255 255 0.653123 0.9054274
0 0.170175 -0.02421 0.3767239 -0.02456999 -0.9259997 255 255 255 255 0.5 0.8146749
0 0.189132 -0.024713 0.3767239 -0.02456999 -0.9259997 255 255 255 255 0.5 0.9054274
0.01757 0.189132 -0.017565 0.3767239 -0.02456999 -0.9259997 255 255 255 255 0.6085264 0.9054274
0.01757 0.170175 -0.01736 0.9249047 -0.004110999 -0.3801769 255 255 255 255 0.6085264 0.8146749
0.01757 0.189132 -0.017565 0.9249047 -0.004110999 -0.3801769 255 255 255 255 0.6085264 0.9054274
0.02479 0.189132 -0 0.9249047 -0.004110999 -0.3801769 255 255 255 255 0.653123 0.9054274
0 0.170175 -0.02421 -0.3632212 -0.01007501 -0.9316485 255 255 255 255 0.5 0.8146749
-0.01757 0.170175 -0.01736 -0.3632212 -0.01007501 -0.9316485 255 255 255 255 0.3914736 0.8146749
-0.01757 0.189132 -0.017565 -0.3632212 -0.01007501 -0.9316485 255 255 255 255 0.3914736 0.9054274
-0.01757 0.170175 -0.01736 -0.9233286 -0 -0.3840108 255 255 255 255 0.3914736 0.8146749
-0.02479 0.170175 -0 -0.9233286 -0 -0.3840108 255 255 255 255 0.346877 0.8146749
-0.02479 0.189132 -0 -0.9233286 -0 -0.3840108 255 255 255 255 0.346877 0.9054274
-0.016476 0.189132 -0 -0.8613448 -0.3644519 0.3539209 255 255 255 255 0.398231 0.9054274
-0.011678 0.189132 0.011677 -0.8613448 -0.3644519 0.3539209 255 255 255 255 0.4278673 0.9054274
-0.018917 0.208244 0.01374 -0.8613448 -0.3644519 0.3539209 255 255 255 255 0.3831534 0.9969218
-0.011678 0.189132 0.011677 -0.347053 -0.4041629 0.8462899 255 255 255 255 0.4278673 0.9054274
0 0.189132 0.016466 -0.347053 -0.4041629 0.8462899 255 255 255 255 0.5 0.9054274
-0.003769 0.206113 0.02303 -0.347053 -0.4041629 0.8462899 255 255 255 255 0.4767196 0.9867201
0 0.189132 0.016466 0.3384651 -0.4519311 0.8253482 255 255 255 255 0.5 0.9054274
0.011678 0.189132 0.011677 0.3384651 -0.4519311 0.8253482 255 255 255 255 0.5721328 0.9054274
0.013575 0.203753 0.018905 0.3384651 -0.4519311 0.8253482 255 255 255 255 0.5838501 0.9754221
0.011678 0.189132 0.011677 0.8113217 -0.4802329 0.3333669 255 255 255 255 0.5721328 0.9054274
0.016476 0.189132 -0 0.8113217 -0.4802329 0.3333669 255 255 255 255 0.601769 0.9054274
0.022921 0.20255 0.003644 0.8113217 -0.4802329 0.3333669 255 255 255 255 0.6415786 0.969663
0.011678 0.189132 -0.011678 0.3441958 -0.4204398 -0.8394997 255 255 255 255 0.5721328 0.9054274
0 0.189132 -0.016466 0.3441958 -0.4204398 -0.8394997 255 255 255 255 0.5 0.9054274
0.003769 0.205324 -0.02303 0.3441958 -0.4204398 -0.8394997 255 255 255 255 0.5232804 0.9829429
0.016476 0.189132 -0 0.816653 -0.469573 -0.335528 255 255 255 255 0.601769 0.9054274
0.011678 0.189132 -0.011678 0.816653 -0.469573 -0.335528 255 255 255 255 0.5721328 0.9054274
0.018917 0.203195 -0.01374 0.816653 -0.469573 -0.335528 255 255 255 255 0.6168466 0.9727508
0 0.189132 -0.016466 -0.3523211 -0.3707362 -0.8593163 255 255 255 255 0.5 0.9054274
-0.011678 0.189132 -0.011678 -0.3523211 -0.3707362 -0.8593163 255 255 255 255 0.4278673 0.9054274
-0.013575 0.207686 -0.018905 -0.3523211 -0.3707362 -0.8593163 255 255 255 255 0.4161499 0.9942505
-0.011678 0.189132 -0.011678 -0.8669682 -0.3485501 -0.3562011 255 255 255 255 0.4278673 0.9054274
-0.016476 0.189132 -0 -0.8669682 -0.3485501 -0.3562011 255 255 255 255 0.398231 0.9054274
-0.022921 0.208887 -0.003644 -0.8669682 -0.3485501 -0.3562011 255 255 255 255 0.3584215 1
0 0.016939 0.031008 0.34028 -0.029352 0.939866 255 255 255 255 0.5 0.08109169
0 0 0.030479 0.34028 -0.029352 0.939866 255 255 255 255 0.5 0
0.023063 0 0.022129 0.34028 -0.029352 0.939866 255 255 255 255 0.6424556 0
0.03254 -0 -9e-06 0.9088284 -0.112823 0.4016242 255 255 255 255 0.7009932 0
0.034653 0.016939 -3.2e-05 0.9088284 -0.112823 0.4016242 255 255 255 255 0.7140448 0.08109169
0.024561 0.016939 0.022805 0.9088284 -0.112823 0.4016242 255 255 255 255 0.6517085 0.08109169
0.024561 0.016939 -0.022873 0.9087416 -0.1139029 -0.4015158 255 255 255 255 0.6517085 0.08109169
0.034653 0.016939 -3.2e-05 0.9087416 -0.1139029 -0.4015158 255 255 255 255 0.7140448 0.08109169
0.03254 -0 -9e-06 0.9087416 -0.1139029 -0.4015158 255 255 255 255 0.7009932 0
0.023063 -0 -0.022155 0.3404 -0.031678 -0.939747 255 255 255 255 0.6424556 0
0 -0 -0.030509 0.3404 -0.031678 -0.939747 255 255 255 255 0.5 0
0 0.016939 -0.03108 0.3404 -0.031678 -0.939747 255 255 255 255 0.5 0.08109169
0 0.016939 -0.03108 -0.3404 -0.031678 -0.939747 255 255 255 255 0.5 0.08109169
0 -0 -0.030509 -0.3404 -0.031678 -0.939747 255 255 255 255 0.5 0
-0.023063 -0 -0.022155 -0.3404 -0.031678 -0.939747 255 255 255 255 0.3575444 -0
-0.03254 -0 -9e-06 -0.9087416 -0.1139029 -0.4015158 255 255 255 255 0.2990068 -0
-0.034653 0.016939 -3.2e-05 -0.9087416 -0.1139029 -0.4015158 255 255 255 255 0.2859552 0.08109169
-0.024561 0.016939 -0.022873 -0.9087416 -0.1139029 -0.4015158 255 255 255 255 0.3482915 0.08109169
-0.024561 0.016939 0.022805 -0.9088284 -0.112823 0.4016242 255 255 255 255 0.3482915 0.08109169
-0.034653 0.016939 -3.2e-05 -0.9088284 -0.112823 0.4016242 255 255 255 255 0.2859552 0.08109169
-0.03254 -0 -9e-06 -0.9088284 -0.112823 0.4016242 255 255 255 255 0.2990068 -0
0 0.016939 0.031008 -0.316099 -0.06572499 0.9464469 255 255 255 255 0.5 0.08109169
-0.024561 0.016939 0.022805 -0.316099 -0.06572499 0.9464469 255 255 255 255 0.3482915 0.08109169
-0.023063 0 0.022129 -0.316099 -0.06572499 0.9464469 255 255 255 255 0.3575444 0
-0.080948 0.116121 -8.4e-05 -0.8923014 -0.2108191 0.3991912 255 255 255 255 0 0.5559034
-0.064947 0.048434 -6.4e-05 -0.8923014 -0.2108191 0.3991912 255 255 255 255 0.09883506 0.231867
-0.046033 0.048434 0.042214 -0.8923014 -0.2108191 0.3991912 255 255 255 255 0.2156632 0.231867
-0.046033 0.048434 -0.042345 -0.8922672 -0.211047 -0.3991471 255 255 255 255 0.2156632 0.231867
-0.064947 0.048434 -6.4e-05 -0.8922672 -0.211047 -0.3991471 255 255 255 255 0.09883506 0.231867
-0.080948 0.116121 -8.4e-05 -0.8922672 -0.211047 -0.3991471 255 255 255 255 0 0.5559034
0 0.116121 -0.060079 -0.124411 -0.171444 -0.977307 255 255 255 255 0.5 0.5559034
0 0.048434 -0.048205 -0.124411 -0.171444 -0.977307 255 255 255 255 0.5 0.231867
-0.046033 0.048434 -0.042345 -0.124411 -0.171444 -0.977307 255 255 255 255 0.2156632 0.231867
0.046033 0.048434 -0.042345 0.124411 -0.171444 -0.977307 255 255 255 255 0.7843369 0.231867
0 0.048434 -0.048205 0.124411 -0.171444 -0.977307 255 255 255 255 0.5 0.231867
0 0.116121 -0.060079 0.124411 -0.171444 -0.977307 255 255 255 255 0.5 0.5559034
0.080948 0.116121 -8.4e-05 0.8922672 -0.211047 -0.3991471 255 255 255 255 1 0.5559034
0.064947 0.048434 -6.4e-05 0.8922672 -0.211047 -0.3991471 255 255 255 255 0.9011649 0.231867
0.046033 0.048434 -0.042345 0.8922672 -0.211047 -0.3991471 255 255 255 255 0.7843369 0.231867
0.046033 0.048434 0.042214 0.8923014 -0.2108191 0.3991912 255 255 255 255 0.7843369 0.231867
0.064947 0.048434 -6.4e-05 0.8923014 -0.2108191 0.3991912 255 255 255 255 0.9011649 0.231867
0.080948 0.116121 -8.4e-05 0.8923014 -0.2108191 0.3991912 255 255 255 255 1 0.5559034
0 0.116121 0.059912 0.124274 -0.171041 0.977395 255 255 255 255 0.5 0.5559034
0 0.048434 0.048067 0.124274 -0.171041 0.977395 255 255 255 255 0.5 0.231867
0.046033 0.048434 0.042214 0.124274 -0.171041 0.977395 255 255 255 255 0.7843369 0.231867
-0.046033 0.048434 0.042214 -0.124274 -0.171041 0.977395 255 255 255 255 0.2156632 0.231867
0 0.048434 0.048067 -0.124274 -0.171041 0.977395 255 255 255 255 0.5 0.231867
0 0.116121 0.059912 -0.124274 -0.171041 0.977395 255 255 255 255 0.5 0.5559034
3 0 1 2 
3 3 4 5 
3 6 7 8 
3 9 10 11 
3 12 13 14 
3 15 16 17 
3 18 19 20 
3 21 9 22 
3 23 24 25 
3 26 27 28 
3 9 29 30 
3 9 31 22 
3 32 33 34 
3 35 36 37 
3 38 39 40 
3 41 42 43 
3 44 45 46 
3 47 48 49 
3 50 51 52 
3 53 54 55 
3 56 57 58 
3 59 60 61 
3 62 63 64 
3 65 66 67 
3 68 69 70 
3 71 72 73 
3 74 75 76 
3 77 78 79 
3 80 81 82 
3 83 84 85 
3 86 87 88 
3 89 90 91 
3 92 93 94 
3 95 96 97 
3 98 99 100 
3 101 102 103 
3 104 105 106 
3 107 108 109 
3 110 111 112 
3 113 114 115 
3 116 117 118 
3 119 120 121 
3 122 123 124 
3 125 126 127 
3 128 129 130 
3 131 132 133 
3 134 135 136 
3 137 138 139 
3 140 141 142 
3 143 144 141 
3 145 144 146 
3 147 148 145 
3 149 150 151 
3 147 151 152 
3 153 150 154 
3 140 155 153 
3 156 157 158 
3 159 160 161 
3 162 163 164 
3 165 166 167 
3 168 169 170 
3 171 172 173 
3 174 175 176 
3 177 178 179 
3 180 181 182 
3 183 181 184 
3 183 185 186 
3 187 185 188 
3 189 190 191 
3 187 190 192 
3 189 193 194 
3 180 193 195 
3 196 197 198 
3 199 200 201 
3 202 203 204 
3 205 206 207 
3 208 209 210 
3 211 212 213 
3 214 215 216 
3 217 218 219 
3 220 221 222 
3 223 224 225 
3 226 227 228 
3 229 230 231 
3 232 233 234 
3 235 236 237 
3 238 239 240 
3 241 242 243 
3 244 245 246 
3 247 248 249 
3 250 251 252 
3 253 254 255 
3 256 257 258 
3 259 260 261 
3 262 263 264 
3 265 266 267 
3 268 269 270 
3 271 272 273 
3 274 275 276 
3 9 277 10 
3 278 279 280 
3 281 282 283 
3 284 285 286 
3 21 277 9 
3 287 288 289 
3 290 291 292 
3 9 11 29 
3 9 30 31 
3 293 294 295 
3 296 297 298 
3 299 300 301 
3 302 303 304 
3 305 306 307 
3 308 309 310 
3 311 312 313 
3 314 315 316 
3 317 318 319 
3 320 321 322 
3 323 324 325 
3 326 327 328 
3 329 330 331 
3 332 333 334 
3 335 336 337 
3 338 339 340 
3 341 342 343 
3 344 345 346 
3 347 348 349 
3 350 351 352 
3 353 354 355 
3 356 357 358 
3 359 360 361 
3 362 363 364 
3 365 366 367 
3 368 369 370 
3 371 372 373 
3 374 375 376 
3 377 378 379 
3 380 381 382 
3 383 384 385 
3 386 387 388 
3 389 390 391 
3 392 393 394 
3 395 396 397 
3 398 399 400 
3 140 143 141 
3 143 146 144 
3 145 148 144 
3 147 152 148 
3 149 154 150 
3 147 149 151 
3 153 155 150 
3 140 142 155 
3 401 402 403 
3 404 405 406 
3 407 408 409 
3 410 411 412 
3 413 414 415 
3 416 417 418 
3 419 420 421 
3 422 423 424 
3 180 184 181 
3 183 186 181 
3 183 188 185 
3 187 192 185 
3 189 194 190 
3 187 191 190 
3 189 195 193 
3 180 182 193 
3 425 426 427 
3 428 429 430 
3 431 432 433 
3 434 435 436 
3 437 438 439 
3 440 441 442 
3 443 444 445 
3 446 447 448 
3 449 450 451 
3 452 453 454 
3 455 456 457 
3 458 459 460 
3 461 462 463 
3 464 465 466 
3 467 468 469 
3 470 471 472 
3 473 474 475 
3 476 477 478 
3 479 480 481 
3 482 483 484 
3 485 486 487 
3 488 489 490 
3 491 492 493 
3 494 495 496 
