ply
format ascii 1.0
comment VCGLIB generated
element vertex 433
property float x
property float y
property float z
property float nx
property float ny
property float nz
property uchar red
property uchar green
property uchar blue
property uchar alpha
property float texture_u
property float texture_v
element face 176
property list uchar int vertex_indices
end_header
0 0.035105 -0.083295 -0.3601461 0.3193521 -0.8765324 255 255 255 255 0.5 0.134504
-0.050587 0.067855 -0.050578 -0.3601461 0.3193521 -0.8765324 255 255 255 255 0.1960354 0.2599848
0 0.067855 -0.071363 -0.3601461 0.3193521 -0.8765324 255 255 255 255 0.5 0.2599848
0 0.256732 -0 -0.117991 0.9755484 -0.1854281 255 255 255 255 0.5 0.9836625
-0.013842 0.257801 0.014432 -0.117991 0.9755484 -0.1854281 255 255 255 255 0.4168269 0.9877583
0.000302 0.260494 0.0196 -0.117991 0.9755484 -0.1854281 255 255 255 255 0.5018147 0.9980765
0 0.035105 0.083128 -0.3607118 0.3148969 0.8779106 255 255 255 255 0.5 0.134504
-0.050587 0.067855 0.050596 -0.3607118 0.3148969 0.8779106 255 255 255 255 0.1960354 0.2599848
-0.058979 0.035105 0.058895 -0.3607118 0.3148969 0.8779106 255 255 255 255 0.14561 0.134504
0 0 0 0 -1 0 255 255 255 255 0.5 0
-0.048831 0 0.048841 0 -1 0 255 255 255 255 0.2065868 0
-0.068896 0 9e-06 0 -1 0 255 255 255 255 0.08602124 0
-0.071372 0.067855 9e-06 -0.8775036 0.3162192 0.3605452 255 255 255 255 0.07114359 0.2599848
-0.058979 0.035105 0.058895 -0.8775036 0.3162192 0.3605452 255 255 255 255 0.14561 0.134504
-0.050587 0.067855 0.050596 -0.8775036 0.3162192 0.3605452 255 255 255 255 0.1960354 0.2599848
0.058979 0.035105 0.058895 0.8775036 0.3162192 0.3605452 255 255 255 255 0.85439 0.134504
0.071372 0.067855 9e-06 0.8775036 0.3162192 0.3605452 255 255 255 255 0.9288564 0.2599848
0.050587 0.067855 0.050596 0.8775036 0.3162192 0.3605452 255 255 255 255 0.8039646 0.2599848
0 0.035105 -0.083295 0.360145 0.319354 -0.8765321 255 255 255 255 0.5 0.134504
0.050587 0.067855 -0.050578 0.360145 0.319354 -0.8765321 255 255 255 255 0.8039646 0.2599848
0.058979 0.035105 -0.059062 0.360145 0.319354 -0.8765321 255 255 255 255 0.85439 0.134504
0.048831 0 0.048841 -0 -1 0 255 255 255 255 0.7934132 0
0.068896 0 9e-06 -0 -1 0 255 255 255 255 0.9139788 0
0.050587 0.067855 0.050596 0.3607118 0.3148969 0.8779106 255 255 255 255 0.8039646 0.2599848
0 0.035105 0.083128 0.3607118 0.3148969 0.8779106 255 255 255 255 0.5 0.134504
0.058979 0.035105 0.058895 0.3607118 0.3148969 0.8779106 255 255 255 255 0.85439 0.134504
0 0.256732 -0 -0.118006 0.9755469 -0.185426 255 255 255 255 0.5 0.9836625
0.01427 0.260996 0.013352 -0.118006 0.9755469 -0.185426 255 255 255 255 0.5857449 1
0.019831 0.258986 -0.000762 -0.118006 0.9755469 -0.185426 255 255 255 255 0.6191595 0.9922987
-0.048831 -0 -0.048823 -0 -1 0 255 255 255 255 0.2065868 -0
0 -0 -0.068886 -0 -1 0 255 255 255 255 0.5 0
0.048831 -0 -0.048823 0 -1 0 255 255 255 255 0.7934132 0
0.083212 0.035105 -8.4e-05 0.8769348 0.3180579 -0.3603119 255 255 255 255 1 0.134504
0.050587 0.067855 -0.050578 0.8769348 0.3180579 -0.3603119 255 255 255 255 0.8039646 0.2599848
0.071372 0.067855 9e-06 0.8769348 0.3180579 -0.3603119 255 255 255 255 0.9288564 0.2599848
0.013842 0.25566 -0.014432 -0.11801 0.9755048 -0.185645 255 255 255 255 0.5831731 0.9795552
0 0.256732 -0 -0.11801 0.9755048 -0.185645 255 255 255 255 0.5 0.9836625
0.019831 0.258986 -0.000762 -0.11801 0.9755048 -0.185645 255 255 255 255 0.6191595 0.9922987
0 0.256732 -0 -0.118054 0.9755383 -0.185441 255 255 255 255 0.5 0.9836625
-0.01427 0.252467 -0.013352 -0.118054 0.9755383 -0.185441 255 255 255 255 0.4142552 0.9673213
-0.019831 0.254477 0.000762 -0.118054 0.9755383 -0.185441 255 255 255 255 0.3808405 0.9750226
-0.083212 0.035105 -8.4e-05 -0.8769351 0.318051 -0.360317 255 255 255 255 0 0.134504
-0.050587 0.067855 -0.050578 -0.8769351 0.318051 -0.360317 255 255 255 255 0.1960354 0.2599848
-0.058979 0.035105 -0.059062 -0.8769351 0.318051 -0.360317 255 255 255 255 0.14561 0.134504
0 0.035105 0.083128 0.3558752 -0.3509352 0.8661394 255 255 255 255 0.5 0.134504
0.048831 0 0.048841 0.3558752 -0.3509352 0.8661394 255 255 255 255 0.7934132 0
0.058979 0.035105 0.058895 0.3558752 -0.3509352 0.8661394 255 255 255 255 0.85439 0.134504
0.068896 0 9e-06 0.8657157 -0.3521349 0.3557209 255 255 255 255 0.9139788 0
0.058979 0.035105 0.058895 0.8657157 -0.3521349 0.3557209 255 255 255 255 0.85439 0.134504
0.048831 0 0.048841 0.8657157 -0.3521349 0.3557209 255 255 255 255 0.7934132 0
0.083212 0.035105 -8.4e-05 0.8651487 -0.3537739 -0.3554739 255 255 255 255 1 0.134504
0.048831 -0 -0.048823 0.8651487 -0.3537739 -0.3554739 255 255 255 255 0.7934132 0
0.058979 0.035105 -0.059062 0.8651487 -0.3537739 -0.3554739 255 255 255 255 0.85439 0.134504
0.048831 -0 -0.048823 0.355303 -0.354928 -0.8647462 255 255 255 255 0.7934132 0
0 0.035105 -0.083295 0.355303 -0.354928 -0.8647462 255 255 255 255 0.5 0.134504
0.058979 0.035105 -0.059062 0.355303 -0.354928 -0.8647462 255 255 255 255 0.85439 0.134504
0 0.035105 -0.083295 -0.355303 -0.354928 -0.8647462 255 255 255 255 0.5 0.134504
-0.048831 -0 -0.048823 -0.355303 -0.354928 -0.8647462 255 255 255 255 0.2065868 -0
-0.058979 0.035105 -0.059062 -0.355303 -0.354928 -0.8647462 255 255 255 255 0.14561 0.134504
-0.048831 -0 -0.048823 -0.8651487 -0.3537739 -0.3554739 255 255 255 255 0.2065868 -0
-0.083212 0.035105 -8.4e-05 -0.8651487 -0.3537739 -0.3554739 255 255 255 255 0 0.134504
-0.058979 0.035105 -0.059062 -0.8651487 -0.3537739 -0.3554739 255 255 255 255 0.14561 0.134504
-0.058979 0.035105 0.058895 -0.8657155 -0.3521352 0.3557212 255 255 255 255 0.14561 0.134504
-0.068896 0 9e-06 -0.8657155 -0.3521352 0.3557212 255 255 255 255 0.08602124 0
-0.048831 0 0.048841 -0.8657155 -0.3521352 0.3557212 255 255 255 255 0.2065868 0
0 0.035105 0.083128 -0.3558668 -0.3509458 0.8661385 255 255 255 255 0.5 0.134504
-0.048831 0 0.048841 -0.3558668 -0.3509458 0.8661385 255 255 255 255 0.2065868 0
0 0 0.068904 -0.3558668 -0.3509458 0.8661385 255 255 255 255 0.5 0
-0.071372 0.067855 9e-06 -0.6343722 0.7277572 0.2606561 255 255 255 255 0.07114359 0.2599848
-0.030198 0.092933 0.030198 -0.6343722 0.7277572 0.2606561 255 255 255 255 0.3185478 0.3560706
-0.042606 0.092933 -0 -0.6343722 0.7277572 0.2606561 255 255 255 255 0.2439913 0.3560706
0 0.067855 0.071382 -0.2606322 0.7278284 0.6343003 255 255 255 255 0.5 0.2599848
-0.030198 0.092933 0.030198 -0.2606322 0.7278284 0.6343003 255 255 255 255 0.3185478 0.3560706
-0.050587 0.067855 0.050596 -0.2606322 0.7278284 0.6343003 255 255 255 255 0.1960354 0.2599848
0 0.067855 0.071382 0.2606261 0.7278323 0.6342983 255 255 255 255 0.5 0.2599848
0.030198 0.092933 0.030198 0.2606261 0.7278323 0.6342983 255 255 255 255 0.6814522 0.3560706
0 0.092933 0.042606 0.2606261 0.7278323 0.6342983 255 255 255 255 0.5 0.3560706
0.071372 0.067855 9e-06 0.6343691 0.7277631 0.260647 255 255 255 255 0.9288564 0.2599848
0.030198 0.092933 0.030198 0.6343691 0.7277631 0.260647 255 255 255 255 0.6814522 0.3560706
0.050587 0.067855 0.050596 0.6343691 0.7277631 0.260647 255 255 255 255 0.8039646 0.2599848
0 0.067855 -0.071363 0.2607079 0.7276117 -0.6345177 255 255 255 255 0.5 0.2599848
0.030198 0.092933 -0.030198 0.2607079 0.7276117 -0.6345177 255 255 255 255 0.6814522 0.3560706
0.050587 0.067855 -0.050578 0.2607079 0.7276117 -0.6345177 255 255 255 255 0.8039646 0.2599848
0.071372 0.067855 9e-06 0.6344582 0.7276692 -0.2606921 255 255 255 255 0.9288564 0.2599848
0.030198 0.092933 -0.030198 0.6344582 0.7276692 -0.2606921 255 255 255 255 0.6814522 0.3560706
0.042606 0.092933 -0 0.6344582 0.7276692 -0.2606921 255 255 255 255 0.7560087 0.3560706
0 0.067855 -0.071363 -0.2607169 0.7276058 -0.6345208 255 255 255 255 0.5 0.2599848
-0.030198 0.092933 -0.030198 -0.2607169 0.7276058 -0.6345208 255 255 255 255 0.3185478 0.3560706
0 0.092933 -0.042606 -0.2607169 0.7276058 -0.6345208 255 255 255 255 0.5 0.3560706
-0.071372 0.067855 9e-06 -0.6344557 0.7276747 -0.2606829 255 255 255 255 0.07114359 0.2599848
-0.030198 0.092933 -0.030198 -0.6344557 0.7276747 -0.2606829 255 255 255 255 0.3185478 0.3560706
-0.050587 0.067855 -0.050578 -0.6344557 0.7276747 -0.2606829 255 255 255 255 0.1960354 0.2599848
-0.02528 0.119701 -0 -0.9213853 0.08816504 0.3785181 255 255 255 255 0.3480988 0.4586315
-0.012502 0.199565 0.012502 -0.9213853 0.08816504 0.3785181 255 255 255 255 0.4248786 0.7646285
-0.017638 0.199565 -0 -0.9213853 0.08816504 0.3785181 255 255 255 255 0.3940177 0.7646285
0 0.119701 0.02528 -0.3785642 0.08815505 0.9213674 255 255 255 255 0.5 0.4586315
-0.012502 0.199565 0.012502 -0.3785642 0.08815505 0.9213674 255 255 255 255 0.4248786 0.7646285
-0.017918 0.119701 0.017918 -0.3785642 0.08815505 0.9213674 255 255 255 255 0.3923353 0.4586315
0 0.119701 0.02528 0.3785181 0.08816503 0.9213853 255 255 255 255 0.5 0.4586315
0.012502 0.199565 0.012502 0.3785181 0.08816503 0.9213853 255 255 255 255 0.5751213 0.7646285
0 0.199565 0.017638 0.3785181 0.08816503 0.9213853 255 255 255 255 0.5 0.7646285
0.02528 0.119701 -0 0.9213676 0.08815496 0.3785638 255 255 255 255 0.6519011 0.4586315
0.012502 0.199565 0.012502 0.9213676 0.08815496 0.3785638 255 255 255 255 0.5751213 0.7646285
0.017918 0.119701 0.017918 0.9213676 0.08815496 0.3785638 255 255 255 255 0.6076648 0.4586315
0 0.119701 -0.02528 0.3785638 0.08815496 -0.9213676 255 255 255 255 0.5 0.4586315
0.012502 0.199565 -0.012502 0.3785638 0.08815496 -0.9213676 255 255 255 255 0.5751213 0.7646285
0.017918 0.119701 -0.017918 0.3785638 0.08815496 -0.9213676 255 255 255 255 0.6076648 0.4586315
0.02528 0.119701 -0 0.9213853 0.08816504 -0.3785181 255 255 255 255 0.6519011 0.4586315
0.012502 0.199565 -0.012502 0.9213853 0.08816504 -0.3785181 255 255 255 255 0.5751213 0.7646285
0.017638 0.199565 -0 0.9213853 0.08816504 -0.3785181 255 255 255 255 0.6059823 0.7646285
0 0.119701 -0.02528 -0.3785181 0.08816503 -0.9213853 255 255 255 255 0.5 0.4586315
-0.012502 0.199565 -0.012502 -0.3785181 0.08816503 -0.9213853 255 255 255 255 0.4248786 0.7646285
0 0.199565 -0.017638 -0.3785181 0.08816503 -0.9213853 255 255 255 255 0.5 0.7646285
-0.02528 0.119701 -0 -0.9213674 0.08815505 -0.3785642 255 255 255 255 0.3480988 0.4586315
-0.012502 0.199565 -0.012502 -0.9213674 0.08815505 -0.3785642 255 255 255 255 0.4248786 0.7646285
-0.017918 0.119701 -0.017918 -0.9213674 0.08815505 -0.3785642 255 255 255 255 0.3923353 0.4586315
-0.012502 0.199565 0.012502 -0.9224734 -0.07367803 0.3789651 255 255 255 255 0.4248786 0.7646285
-0.018893 0.215278 -0 -0.9224734 -0.07367803 0.3789651 255 255 255 255 0.3864767 0.8248325
-0.017638 0.199565 -0 -0.9224734 -0.07367803 0.3789651 255 255 255 255 0.3940177 0.7646285
-0.012502 0.199565 0.012502 -0.3790131 -0.07363401 0.9224572 255 255 255 255 0.4248786 0.7646285
0 0.215278 0.018893 -0.3790131 -0.07363401 0.9224572 255 255 255 255 0.5 0.8248325
-0.013391 0.215278 0.013391 -0.3790131 -0.07363401 0.9224572 255 255 255 255 0.4195368 0.8248325
0.012502 0.199565 0.012502 0.3789651 -0.07367803 0.9224734 255 255 255 255 0.5751213 0.7646285
0 0.215278 0.018893 0.3789651 -0.07367803 0.9224734 255 255 255 255 0.5 0.8248325
0 0.199565 0.017638 0.3789651 -0.07367803 0.9224734 255 255 255 255 0.5 0.7646285
0.012502 0.199565 0.012502 0.9224572 -0.07363401 0.3790131 255 255 255 255 0.5751213 0.7646285
0.018893 0.215278 -0 0.9224572 -0.07363401 0.3790131 255 255 255 255 0.6135233 0.8248325
0.013391 0.215278 0.013391 0.9224572 -0.07363401 0.3790131 255 255 255 255 0.5804632 0.8248325
0.012502 0.199565 -0.012502 0.3790131 -0.07363401 -0.9224572 255 255 255 255 0.5751213 0.7646285
0 0.215278 -0.018893 0.3790131 -0.07363401 -0.9224572 255 255 255 255 0.5 0.8248325
0.013391 0.215278 -0.013391 0.3790131 -0.07363401 -0.9224572 255 255 255 255 0.5804632 0.8248325
0.012502 0.199565 -0.012502 0.9224734 -0.07367803 -0.3789651 255 255 255 255 0.5751213 0.7646285
0.018893 0.215278 -0 0.9224734 -0.07367803 -0.3789651 255 255 255 255 0.6135233 0.8248325
0.017638 0.199565 -0 0.9224734 -0.07367803 -0.3789651 255 255 255 255 0.6059823 0.7646285
-0.012502 0.199565 -0.012502 -0.3789651 -0.07367803 -0.9224734 255 255 255 255 0.4248786 0.7646285
0 0.215278 -0.018893 -0.3789651 -0.07367803 -0.9224734 255 255 255 255 0.5 0.8248325
0 0.199565 -0.017638 -0.3789651 -0.07367803 -0.9224734 255 255 255 255 0.5 0.7646285
-0.012502 0.199565 -0.012502 -0.9224572 -0.07363401 -0.3790131 255 255 255 255 0.4248786 0.7646285
-0.018893 0.215278 -0 -0.9224572 -0.07363401 -0.3790131 255 255 255 255 0.3864767 0.8248325
-0.013391 0.215278 -0.013391 -0.9224572 -0.07363401 -0.3790131 255 255 255 255 0.4195368 0.8248325
-0.013391 0.215278 0.013391 0 -1 0 255 255 255 255 0.4195368 0.8248325
-0.024821 0.215278 -0 0 -1 0 255 255 255 255 0.3508569 0.8248325
-0.018893 0.215278 -0 0 -1 0 255 255 255 255 0.3864767 0.8248325
0 0.215278 0.024821 0 -1 -0 255 255 255 255 0.5 0.8248325
-0.017592 0.215278 0.017592 0 -1 -0 255 255 255 255 0.3942941 0.8248325
0.013391 0.215278 0.013391 0 -1 0 255 255 255 255 0.5804632 0.8248325
0 0.215278 0.018893 0 -1 0 255 255 255 255 0.5 0.8248325
0.024821 0.215278 -0 -0 -1 -0 255 255 255 255 0.6491432 0.8248325
0.017592 0.215278 0.017592 -0 -1 -0 255 255 255 255 0.6057059 0.8248325
0.013391 0.215278 -0.013391 -0 -1 0 255 255 255 255 0.5804632 0.8248325
0 0.215278 -0.024821 -0 -1 0 255 255 255 255 0.5 0.8248325
0.017592 0.215278 -0.017592 -0 -1 0 255 255 255 255 0.6057059 0.8248325
0.018893 0.215278 -0 0 -1 -0 255 255 255 255 0.6135233 0.8248325
-0.013391 0.215278 -0.013391 -0 -1 -0 255 255 255 255 0.4195368 0.8248325
0 0.215278 -0.018893 -0 -1 -0 255 255 255 255 0.5 0.8248325
-0.017592 0.215278 -0.017592 0 -1 0 255 255 255 255 0.3942941 0.8248325
-0.017592 0.215278 0.017592 -0.9249511 0 0.3800861 255 255 255 255 0.3942941 0.8248325
-0.024821 0.237386 -0 -0.9249511 0 0.3800861 255 255 255 255 0.3508569 0.9095388
-0.024821 0.215278 -0 -0.9249511 0 0.3800861 255 255 255 255 0.3508569 0.8248325
0 0.215278 0.024821 -0.3800861 0 0.9249511 255 255 255 255 0.5 0.8248325
-0.017592 0.237386 0.017592 -0.3800861 0 0.9249511 255 255 255 255 0.3942941 0.9095388
-0.017592 0.215278 0.017592 -0.3800861 0 0.9249511 255 255 255 255 0.3942941 0.8248325
0.017592 0.215278 0.017592 0.3800861 0 0.9249511 255 255 255 255 0.6057059 0.8248325
0 0.237386 0.024821 0.3800861 0 0.9249511 255 255 255 255 0.5 0.9095388
0 0.215278 0.024821 0.3800861 0 0.9249511 255 255 255 255 0.5 0.8248325
0.024821 0.215278 -0 0.9249511 0 0.3800861 255 255 255 255 0.6491432 0.8248325
0.017592 0.237386 0.017592 0.9249511 0 0.3800861 255 255 255 255 0.6057059 0.9095388
0.017592 0.215278 0.017592 0.9249511 0 0.3800861 255 255 255 255 0.6057059 0.8248325
0 0.215278 -0.024821 0.3800861 -0 -0.9249511 255 255 255 255 0.5 0.8248325
0.017592 0.237386 -0.017592 0.3800861 -0 -0.9249511 255 255 255 255 0.6057059 0.9095388
0.017592 0.215278 -0.017592 0.3800861 -0 -0.9249511 255 255 255 255 0.6057059 0.8248325
0.017592 0.215278 -0.017592 0.9249511 -0 -0.3800861 255 255 255 255 0.6057059 0.8248325
0.024821 0.237386 -0 0.9249511 -0 -0.3800861 255 255 255 255 0.6491432 0.9095388
0.024821 0.215278 -0 0.9249511 -0 -0.3800861 255 255 255 255 0.6491432 0.8248325
-0.017592 0.215278 -0.017592 -0.3800861 -0 -0.9249511 255 255 255 255 0.3942941 0.8248325
0 0.237386 -0.024821 -0.3800861 -0 -0.9249511 255 255 255 255 0.5 0.9095388
0 0.215278 -0.024821 -0.3800861 -0 -0.9249511 255 255 255 255 0.5 0.8248325
-0.024821 0.215278 -0 -0.9249511 -0 -0.3800861 255 255 255 255 0.3508569 0.8248325
-0.017592 0.237386 -0.017592 -0.9249511 -0 -0.3800861 255 255 255 255 0.3942941 0.9095388
-0.017592 0.215278 -0.017592 -0.9249511 -0 -0.3800861 255 255 255 255 0.3942941 0.8248325
-0.024821 0.237386 -0 0 1 -0 255 255 255 255 0.3508569 0.9095388
-0.011692 0.237386 0.011692 0 1 -0 255 255 255 255 0.4297457 0.9095388
-0.016496 0.237386 -0 0 1 -0 255 255 255 255 0.4008797 0.9095388
0 0.237386 0.024821 -0 1 0 255 255 255 255 0.5 0.9095388
-0.017592 0.237386 0.017592 -0 1 0 255 255 255 255 0.3942941 0.9095388
0.011692 0.237386 0.011692 -0 1 -0 255 255 255 255 0.5702543 0.9095388
0 0.237386 0.016496 -0 1 -0 255 255 255 255 0.5 0.9095388
0.024821 0.237386 -0 0 1 0 255 255 255 255 0.6491432 0.9095388
0.017592 0.237386 0.017592 0 1 0 255 255 255 255 0.6057059 0.9095388
0 0.237386 -0.024821 0 1 0 255 255 255 255 0.5 0.9095388
0.011692 0.237386 -0.011692 0 1 0 255 255 255 255 0.5702543 0.9095388
0.017592 0.237386 -0.017592 0 1 0 255 255 255 255 0.6057059 0.9095388
0.016496 0.237386 -0 -0 1 0 255 255 255 255 0.5991203 0.9095388
-0.011692 0.237386 -0.011692 0 1 0 255 255 255 255 0.4297457 0.9095388
0 0.237386 -0.016496 0 1 0 255 255 255 255 0.5 0.9095388
-0.017592 0.237386 -0.017592 0 1 -0 255 255 255 255 0.3942941 0.9095388
-0.011692 0.237386 0.011692 -0.9074488 -0.193696 0.3728519 255 255 255 255 0.4297457 0.9095388
-0.019831 0.254477 0.000762 -0.9074488 -0.193696 0.3728519 255 255 255 255 0.3808405 0.9750226
-0.016496 0.237386 -0 -0.9074488 -0.193696 0.3728519 255 255 255 255 0.4008797 0.9095388
0 0.237386 0.016496 -0.375029 -0.162001 0.912748 255 255 255 255 0.5 0.9095388
-0.013842 0.257801 0.014432 -0.375029 -0.162001 0.912748 255 255 255 255 0.4168269 0.9877583
-0.011692 0.237386 0.011692 -0.375029 -0.162001 0.912748 255 255 255 255 0.4297457 0.9095388
0.011692 0.237386 0.011692 0.3769159 -0.128148 0.9173399 255 255 255 255 0.5702543 0.9095388
0.000302 0.260494 0.0196 0.3769159 -0.128148 0.9173399 255 255 255 255 0.5018147 0.9980765
0 0.237386 0.016496 0.3769159 -0.128148 0.9173399 255 255 255 255 0.5 0.9095388
0.011692 0.237386 0.011692 0.9165958 -0.126745 0.3791939 255 255 255 255 0.5702543 0.9095388
0.019831 0.258986 -0.000762 0.9165958 -0.126745 0.3791939 255 255 255 255 0.6191595 0.9922987
0.01427 0.260996 0.013352 0.9165958 -0.126745 0.3791939 255 255 255 255 0.5857449 1
0.011692 0.237386 -0.011692 0.367647 -0.180056 -0.9123681 255 255 255 255 0.5702543 0.9095388
-0.000302 0.252967 -0.0196 0.367647 -0.180056 -0.9123681 255 255 255 255 0.4981853 0.969237
0.013842 0.25566 -0.014432 0.367647 -0.180056 -0.9123681 255 255 255 255 0.5831731 0.9795552
0.016496 0.237386 -0 0.918212 -0.154635 -0.364657 255 255 255 255 0.5991203 0.9095388
0.013842 0.25566 -0.014432 0.918212 -0.154635 -0.364657 255 255 255 255 0.5831731 0.9795552
0.019831 0.258986 -0.000762 0.918212 -0.154635 -0.364657 255 255 255 255 0.6191595 0.9922987
-0.011692 0.237386 -0.011692 -0.373257 -0.188211 -0.908436 255 255 255 255 0.4297457 0.9095388
-0.000302 0.252967 -0.0196 -0.373257 -0.188211 -0.908436 255 255 255 255 0.4981853 0.969237
0 0.237386 -0.016496 -0.373257 -0.188211 -0.908436 255 255 255 255 0.5 0.9095388
-0.016496 0.237386 -0 -0.9070126 -0.1960689 -0.3726729 255 255 255 255 0.4008797 0.9095388
-0.01427 0.252467 -0.013352 -0.9070126 -0.1960689 -0.3726729 255 255 255 255 0.4142552 0.9673213
-0.011692 0.237386 -0.011692 -0.9070126 -0.1960689 -0.3726729 255 255 255 255 0.4297457 0.9095388
0.042606 0.092933 -0 0.7936091 0.513667 0.326084 255 255 255 255 0.7560087 0.3560706
0.017918 0.119701 0.017918 0.7936091 0.513667 0.326084 255 255 255 255 0.6076648 0.4586315
0.030198 0.092933 0.030198 0.7936091 0.513667 0.326084 255 255 255 255 0.6814522 0.3560706
0.042606 0.092933 -0 0.7936092 0.5136751 -0.3260711 255 255 255 255 0.7560087 0.3560706
0.017918 0.119701 -0.017918 0.7936092 0.5136751 -0.3260711 255 255 255 255 0.6076648 0.4586315
0.02528 0.119701 -0 0.7936092 0.5136751 -0.3260711 255 255 255 255 0.6519011 0.4586315
0 0.092933 -0.042606 0.3260849 0.5136669 -0.7936088 255 255 255 255 0.5 0.3560706
0.017918 0.119701 -0.017918 0.3260849 0.5136669 -0.7936088 255 255 255 255 0.6076648 0.4586315
0.030198 0.092933 -0.030198 0.3260849 0.5136669 -0.7936088 255 255 255 255 0.6814522 0.3560706
0 0.092933 -0.042606 -0.3260711 0.5136751 -0.7936092 255 255 255 255 0.5 0.3560706
-0.017918 0.119701 -0.017918 -0.3260711 0.5136751 -0.7936092 255 255 255 255 0.3923353 0.4586315
0 0.119701 -0.02528 -0.3260711 0.5136751 -0.7936092 255 255 255 255 0.5 0.4586315
-0.042606 0.092933 -0 -0.7936088 0.5136669 -0.3260849 255 255 255 255 0.2439913 0.3560706
-0.017918 0.119701 -0.017918 -0.7936088 0.5136669 -0.3260849 255 255 255 255 0.3923353 0.4586315
-0.030198 0.092933 -0.030198 -0.7936088 0.5136669 -0.3260849 255 255 255 255 0.3185478 0.3560706
-0.042606 0.092933 -0 -0.7936088 0.5136759 0.3260709 255 255 255 255 0.2439913 0.3560706
-0.017918 0.119701 0.017918 -0.7936088 0.5136759 0.3260709 255 255 255 255 0.3923353 0.4586315
-0.02528 0.119701 -0 -0.7936088 0.5136759 0.3260709 255 255 255 255 0.3480988 0.4586315
0 0.092933 0.042606 -0.326084 0.513667 0.7936091 255 255 255 255 0.5 0.3560706
-0.017918 0.119701 0.017918 -0.326084 0.513667 0.7936091 255 255 255 255 0.3923353 0.4586315
-0.030198 0.092933 0.030198 -0.326084 0.513667 0.7936091 255 255 255 255 0.3185478 0.3560706
0 0.092933 0.042606 0.3260718 0.5136757 0.7936085 255 255 255 255 0.5 0.3560706
0.017918 0.119701 0.017918 0.3260718 0.5136757 0.7936085 255 255 255 255 0.6076648 0.4586315
0 0.119701 0.02528 0.3260718 0.5136757 0.7936085 255 255 255 255 0.5 0.4586315
0 0.035105 -0.083295 -0.360145 0.319354 -0.8765321 255 255 255 255 0.5 0.134504
-0.058979 0.035105 -0.059062 -0.360145 0.319354 -0.8765321 255 255 255 255 0.14561 0.134504
-0.050587 0.067855 -0.050578 -0.360145 0.319354 -0.8765321 255 255 255 255 0.1960354 0.2599848
0 0.256732 -0 -0.118055 0.975529 -0.185489 255 255 255 255 0.5 0.9836625
-0.019831 0.254477 0.000762 -0.118055 0.975529 -0.185489 255 255 255 255 0.3808405 0.9750226
-0.013842 0.257801 0.014432 -0.118055 0.975529 -0.185489 255 255 255 255 0.4168269 0.9877583
0 0.035105 0.083128 -0.3607309 0.3148689 0.8779128 255 255 255 255 0.5 0.134504
0 0.067855 0.071382 -0.3607309 0.3148689 0.8779128 255 255 255 255 0.5 0.2599848
-0.050587 0.067855 0.050596 -0.3607309 0.3148689 0.8779128 255 255 255 255 0.1960354 0.2599848
0 0 0.068904 0 -1 0 255 255 255 255 0.5 0
-0.071372 0.067855 9e-06 -0.8775041 0.316218 0.360545 255 255 255 255 0.07114359 0.2599848
-0.083212 0.035105 -8.4e-05 -0.8775041 0.316218 0.360545 255 255 255 255 0 0.134504
-0.058979 0.035105 0.058895 -0.8775041 0.316218 0.360545 255 255 255 255 0.14561 0.134504
0.058979 0.035105 0.058895 0.8775041 0.316218 0.360545 255 255 255 255 0.85439 0.134504
0.083212 0.035105 -8.4e-05 0.8775041 0.316218 0.360545 255 255 255 255 1 0.134504
0.071372 0.067855 9e-06 0.8775041 0.316218 0.360545 255 255 255 255 0.9288564 0.2599848
0 0.035105 -0.083295 0.3601461 0.3193521 -0.8765324 255 255 255 255 0.5 0.134504
0 0.067855 -0.071363 0.3601461 0.3193521 -0.8765324 255 255 255 255 0.5 0.2599848
0.050587 0.067855 -0.050578 0.3601461 0.3193521 -0.8765324 255 255 255 255 0.8039646 0.2599848
0.050587 0.067855 0.050596 0.3607309 0.3148689 0.8779128 255 255 255 255 0.8039646 0.2599848
0 0.067855 0.071382 0.3607309 0.3148689 0.8779128 255 255 255 255 0.5 0.2599848
0 0.035105 0.083128 0.3607309 0.3148689 0.8779128 255 255 255 255 0.5 0.134504
0 0.256732 -0 -0.118005 0.9755469 -0.185427 255 255 255 255 0.5 0.9836625
0.000302 0.260494 0.0196 -0.118005 0.9755469 -0.185427 255 255 255 255 0.5018147 0.9980765
0.01427 0.260996 0.013352 -0.118005 0.9755469 -0.185427 255 255 255 255 0.5857449 1
0.083212 0.035105 -8.4e-05 0.8769351 0.318051 -0.360317 255 255 255 255 1 0.134504
0.058979 0.035105 -0.059062 0.8769351 0.318051 -0.360317 255 255 255 255 0.85439 0.134504
0.050587 0.067855 -0.050578 0.8769351 0.318051 -0.360317 255 255 255 255 0.8039646 0.2599848
0.013842 0.25566 -0.014432 -0.117934 0.9755277 -0.185573 255 255 255 255 0.5831731 0.9795552
-0.000302 0.252967 -0.0196 -0.117934 0.9755277 -0.185573 255 255 255 255 0.4981853 0.969237
0 0.256732 -0 -0.117934 0.9755277 -0.185573 255 255 255 255 0.5 0.9836625
0 0.256732 -0 -0.1179281 0.9755284 -0.1855731 255 255 255 255 0.5 0.9836625
-0.000302 0.252967 -0.0196 -0.1179281 0.9755284 -0.1855731 255 255 255 255 0.4981853 0.969237
-0.01427 0.252467 -0.013352 -0.1179281 0.9755284 -0.1855731 255 255 255 255 0.4142552 0.9673213
-0.083212 0.035105 -8.4e-05 -0.8769348 0.3180579 -0.3603119 255 255 255 255 0 0.134504
-0.071372 0.067855 9e-06 -0.8769348 0.3180579 -0.3603119 255 255 255 255 0.07114359 0.2599848
-0.050587 0.067855 -0.050578 -0.8769348 0.3180579 -0.3603119 255 255 255 255 0.1960354 0.2599848
0 0.035105 0.083128 0.3558668 -0.3509458 0.8661385 255 255 255 255 0.5 0.134504
0 0 0.068904 0.3558668 -0.3509458 0.8661385 255 255 255 255 0.5 0
0.048831 0 0.048841 0.3558668 -0.3509458 0.8661385 255 255 255 255 0.7934132 0
0.068896 0 9e-06 0.865732 -0.352108 0.355708 255 255 255 255 0.9139788 0
0.083212 0.035105 -8.4e-05 0.865732 -0.352108 0.355708 255 255 255 255 1 0.134504
0.058979 0.035105 0.058895 0.865732 -0.352108 0.355708 255 255 255 255 0.85439 0.134504
0.083212 0.035105 -8.4e-05 0.8651502 -0.3537551 -0.3554891 255 255 255 255 1 0.134504
0.068896 0 9e-06 0.8651502 -0.3537551 -0.3554891 255 255 255 255 0.9139788 0
0.048831 -0 -0.048823 0.8651502 -0.3537551 -0.3554891 255 255 255 255 0.7934132 0
0.048831 -0 -0.048823 0.3552941 -0.3549391 -0.8647453 255 255 255 255 0.7934132 0
0 -0 -0.068886 0.3552941 -0.3549391 -0.8647453 255 255 255 255 0.5 0
0 0.035105 -0.083295 0.3552941 -0.3549391 -0.8647453 255 255 255 255 0.5 0.134504
0 0.035105 -0.083295 -0.3552941 -0.3549391 -0.8647453 255 255 255 255 0.5 0.134504
0 -0 -0.068886 -0.3552941 -0.3549391 -0.8647453 255 255 255 255 0.5 0
-0.048831 -0 -0.048823 -0.3552941 -0.3549391 -0.8647453 255 255 255 255 0.2065868 -0
-0.048831 -0 -0.048823 -0.8651502 -0.3537551 -0.3554891 255 255 255 255 0.2065868 -0
-0.068896 0 9e-06 -0.8651502 -0.3537551 -0.3554891 255 255 255 255 0.08602124 0
-0.083212 0.035105 -8.4e-05 -0.8651502 -0.3537551 -0.3554891 255 255 255 255 0 0.134504
-0.058979 0.035105 0.058895 -0.865732 -0.352108 0.355708 255 255 255 255 0.14561 0.134504
-0.083212 0.035105 -8.4e-05 -0.865732 -0.352108 0.355708 255 255 255 255 0 0.134504
-0.068896 0 9e-06 -0.865732 -0.352108 0.355708 255 255 255 255 0.08602124 0
0 0.035105 0.083128 -0.3558752 -0.3509352 0.8661394 255 255 255 255 0.5 0.134504
-0.058979 0.035105 0.058895 -0.3558752 -0.3509352 0.8661394 255 255 255 255 0.14561 0.134504
-0.048831 0 0.048841 -0.3558752 -0.3509352 0.8661394 255 255 255 255 0.2065868 0
-0.071372 0.067855 9e-06 -0.6343691 0.7277631 0.260647 255 255 255 255 0.07114359 0.2599848
-0.050587 0.067855 0.050596 -0.6343691 0.7277631 0.260647 255 255 255 255 0.1960354 0.2599848
-0.030198 0.092933 0.030198 -0.6343691 0.7277631 0.260647 255 255 255 255 0.3185478 0.3560706
0 0.067855 0.071382 -0.2606261 0.7278323 0.6342983 255 255 255 255 0.5 0.2599848
0 0.092933 0.042606 -0.2606261 0.7278323 0.6342983 255 255 255 255 0.5 0.3560706
-0.030198 0.092933 0.030198 -0.2606261 0.7278323 0.6342983 255 255 255 255 0.3185478 0.3560706
0 0.067855 0.071382 0.2606322 0.7278284 0.6343003 255 255 255 255 0.5 0.2599848
0.050587 0.067855 0.050596 0.2606322 0.7278284 0.6343003 255 255 255 255 0.8039646 0.2599848
0.030198 0.092933 0.030198 0.2606322 0.7278284 0.6343003 255 255 255 255 0.6814522 0.3560706
0.071372 0.067855 9e-06 0.6343722 0.7277572 0.2606561 255 255 255 255 0.9288564 0.2599848
0.042606 0.092933 -0 0.6343722 0.7277572 0.2606561 255 255 255 255 0.7560087 0.3560706
0.030198 0.092933 0.030198 0.6343722 0.7277572 0.2606561 255 255 255 255 0.6814522 0.3560706
0 0.067855 -0.071363 0.2607169 0.7276058 -0.6345208 255 255 255 255 0.5 0.2599848
0 0.092933 -0.042606 0.2607169 0.7276058 -0.6345208 255 255 255 255 0.5 0.3560706
0.030198 0.092933 -0.030198 0.2607169 0.7276058 -0.6345208 255 255 255 255 0.6814522 0.3560706
0.071372 0.067855 9e-06 0.6344557 0.7276747 -0.2606829 255 255 255 255 0.9288564 0.2599848
0.050587 0.067855 -0.050578 0.6344557 0.7276747 -0.2606829 255 255 255 255 0.8039646 0.2599848
0.030198 0.092933 -0.030198 0.6344557 0.7276747 -0.2606829 255 255 255 255 0.6814522 0.3560706
0 0.067855 -0.071363 -0.2607079 0.7276117 -0.6345177 255 255 255 255 0.5 0.2599848
-0.050587 0.067855 -0.050578 -0.2607079 0.7276117 -0.6345177 255 255 255 255 0.1960354 0.2599848
-0.030198 0.092933 -0.030198 -0.2607079 0.7276117 -0.6345177 255 255 255 255 0.3185478 0.3560706
-0.071372 0.067855 9e-06 -0.6344582 0.7276692 -0.2606921 255 255 255 255 0.07114359 0.2599848
-0.042606 0.092933 -0 -0.6344582 0.7276692 -0.2606921 255 255 255 255 0.2439913 0.3560706
-0.030198 0.092933 -0.030198 -0.6344582 0.7276692 -0.2606921 255 255 255 255 0.3185478 0.3560706
-0.02528 0.119701 -0 -0.9213676 0.08815496 0.3785638 255 255 255 255 0.3480988 0.4586315
-0.017918 0.119701 0.017918 -0.9213676 0.08815496 0.3785638 255 255 255 255 0.3923353 0.4586315
-0.012502 0.199565 0.012502 -0.9213676 0.08815496 0.3785638 255 255 255 255 0.4248786 0.7646285
0 0.119701 0.02528 -0.3785181 0.08816503 0.9213853 255 255 255 255 0.5 0.4586315
0 0.199565 0.017638 -0.3785181 0.08816503 0.9213853 255 255 255 255 0.5 0.7646285
-0.012502 0.199565 0.012502 -0.3785181 0.08816503 0.9213853 255 255 255 255 0.4248786 0.7646285
0 0.119701 0.02528 0.3785642 0.08815505 0.9213674 255 255 255 255 0.5 0.4586315
0.017918 0.119701 0.017918 0.3785642 0.08815505 0.9213674 255 255 255 255 0.6076648 0.4586315
0.012502 0.199565 0.012502 0.3785642 0.08815505 0.9213674 255 255 255 255 0.5751213 0.7646285
0.02528 0.119701 -0 0.9213853 0.08816504 0.3785181 255 255 255 255 0.6519011 0.4586315
0.017638 0.199565 -0 0.9213853 0.08816504 0.3785181 255 255 255 255 0.6059823 0.7646285
0.012502 0.199565 0.012502 0.9213853 0.08816504 0.3785181 255 255 255 255 0.5751213 0.7646285
0 0.119701 -0.02528 0.3785181 0.08816503 -0.9213853 255 255 255 255 0.5 0.4586315
0 0.199565 -0.017638 0.3785181 0.08816503 -0.9213853 255 255 255 255 0.5 0.7646285
0.012502 0.199565 -0.012502 0.3785181 0.08816503 -0.9213853 255 255 255 255 0.5751213 0.7646285
0.02528 0.119701 -0 0.9213676 0.08815496 -0.3785638 255 255 255 255 0.6519011 0.4586315
0.017918 0.119701 -0.017918 0.9213676 0.08815496 -0.3785638 255 255 255 255 0.6076648 0.4586315
0.012502 0.199565 -0.012502 0.9213676 0.08815496 -0.3785638 255 255 255 255 0.5751213 0.7646285
0 0.119701 -0.02528 -0.3785638 0.08815496 -0.9213676 255 255 255 255 0.5 0.4586315
-0.017918 0.119701 -0.017918 -0.3785638 0.08815496 -0.9213676 255 255 255 255 0.3923353 0.4586315
-0.012502 0.199565 -0.012502 -0.3785638 0.08815496 -0.9213676 255 255 255 255 0.4248786 0.7646285
-0.02528 0.119701 -0 -0.9213853 0.08816504 -0.3785181 255 255 255 255 0.3480988 0.4586315
-0.017638 0.199565 -0 -0.9213853 0.08816504 -0.3785181 255 255 255 255 0.3940177 0.7646285
-0.012502 0.199565 -0.012502 -0.9213853 0.08816504 -0.3785181 255 255 255 255 0.4248786 0.7646285
-0.012502 0.199565 0.012502 -0.9224572 -0.07363401 0.3790131 255 255 255 255 0.4248786 0.7646285
-0.013391 0.215278 0.013391 -0.9224572 -0.07363401 0.3790131 255 255 255 255 0.4195368 0.8248325
-0.018893 0.215278 -0 -0.9224572 -0.07363401 0.3790131 255 255 255 255 0.3864767 0.8248325
-0.012502 0.199565 0.012502 -0.3789651 -0.07367803 0.9224734 255 255 255 255 0.4248786 0.7646285
0 0.199565 0.017638 -0.3789651 -0.07367803 0.9224734 255 255 255 255 0.5 0.7646285
0 0.215278 0.018893 -0.3789651 -0.07367803 0.9224734 255 255 255 255 0.5 0.8248325
0.012502 0.199565 0.012502 0.3790131 -0.07363401 0.9224572 255 255 255 255 0.5751213 0.7646285
0.013391 0.215278 0.013391 0.3790131 -0.07363401 0.9224572 255 255 255 255 0.5804632 0.8248325
0 0.215278 0.018893 0.3790131 -0.07363401 0.9224572 255 255 255 255 0.5 0.8248325
0.012502 0.199565 0.012502 0.9224734 -0.07367803 0.3789651 255 255 255 255 0.5751213 0.7646285
0.017638 0.199565 -0 0.9224734 -0.07367803 0.3789651 255 255 255 255 0.6059823 0.7646285
0.018893 0.215278 -0 0.9224734 -0.07367803 0.3789651 255 255 255 255 0.6135233 0.8248325
0.012502 0.199565 -0.012502 0.3789651 -0.07367803 -0.9224734 255 255 255 255 0.5751213 0.7646285
0 0.199565 -0.017638 0.3789651 -0.07367803 -0.9224734 255 255 255 255 0.5 0.7646285
0 0.215278 -0.018893 0.3789651 -0.07367803 -0.9224734 255 255 255 255 0.5 0.8248325
0.012502 0.199565 -0.012502 0.9224572 -0.07363401 -0.3790131 255 255 255 255 0.5751213 0.7646285
0.013391 0.215278 -0.013391 0.9224572 -0.07363401 -0.3790131 255 255 255 255 0.5804632 0.8248325
0.018893 0.215278 -0 0.9224572 -0.07363401 -0.3790131 255 255 255 255 0.6135233 0.8248325
-0.012502 0.199565 -0.012502 -0.3790131 -0.07363401 -0.9224572 255 255 255 255 0.4248786 0.7646285
-0.013391 0.215278 -0.013391 -0.3790131 -0.07363401 -0.9224572 255 255 255 255 0.4195368 0.8248325
0 0.215278 -0.018893 -0.3790131 -0.07363401 -0.9224572 255 255 255 255 0.5 0.8248325
-0.012502 0.199565 -0.012502 -0.9224734 -0.07367803 -0.3789651 255 255 255 255 0.4248786 0.7646285
-0.017638 0.199565 -0 -0.9224734 -0.07367803 -0.3789651 255 255 255 255 0.3940177 0.7646285
-0.018893 0.215278 -0 -0.9224734 -0.07367803 -0.3789651 255 255 255 255 0.3864767 0.8248325
-0.017592 0.237386 0.017592 -0.9249511 0 0.3800861 255 255 255 255 0.3942941 0.9095388
0 0.237386 0.024821 -0.3800861 0 0.9249511 255 255 255 255 0.5 0.9095388
0.017592 0.237386 0.017592 0.3800861 0 0.9249511 255 255 255 255 0.6057059 0.9095388
0.024821 0.237386 -0 0.9249511 0 0.3800861 255 255 255 255 0.6491432 0.9095388
0 0.237386 -0.024821 0.3800861 -0 -0.9249511 255 255 255 255 0.5 0.9095388
0.017592 0.237386 -0.017592 0.9249511 -0 -0.3800861 255 255 255 255 0.6057059 0.9095388
-0.017592 0.237386 -0.017592 -0.3800861 -0 -0.9249511 255 255 255 255 0.3942941 0.9095388
-0.024821 0.237386 -0 -0.9249511 -0 -0.3800861 255 255 255 255 0.3508569 0.9095388
-0.011692 0.237386 0.011692 -0.8913756 -0.1512239 0.4272948 255 255 255 255 0.4297457 0.9095388
-0.013842 0.257801 0.014432 -0.8913756 -0.1512239 0.4272948 255 255 255 255 0.4168269 0.9877583
-0.019831 0.254477 0.000762 -0.8913756 -0.1512239 0.4272948 255 255 255 255 0.3808405 0.9750226
0 0.237386 0.016496 -0.320051 -0.122018 0.93951 255 255 255 255 0.5 0.9095388
0.000302 0.260494 0.0196 -0.320051 -0.122018 0.93951 255 255 255 255 0.5018147 0.9980765
-0.013842 0.257801 0.014432 -0.320051 -0.122018 0.93951 255 255 255 255 0.4168269 0.9877583
0.011692 0.237386 0.011692 0.4091582 -0.1083771 0.9060044 255 255 255 255 0.5702543 0.9095388
0.01427 0.260996 0.013352 0.4091582 -0.1083771 0.9060044 255 255 255 255 0.5857449 1
0.000302 0.260494 0.0196 0.4091582 -0.1083771 0.9060044 255 255 255 255 0.5018147 0.9980765
0.011692 0.237386 0.011692 0.9173173 -0.128336 0.3769071 255 255 255 255 0.5702543 0.9095388
0.016496 0.237386 -0 0.9173173 -0.128336 0.3769071 255 255 255 255 0.5991203 0.9095388
0.019831 0.258986 -0.000762 0.9173173 -0.128336 0.3769071 255 255 255 255 0.6191595 0.9922987
0.011692 0.237386 -0.011692 0.374239 -0.174198 -0.910824 255 255 255 255 0.5702543 0.9095388
0 0.237386 -0.016496 0.374239 -0.174198 -0.910824 255 255 255 255 0.5 0.9095388
-0.000302 0.252967 -0.0196 0.374239 -0.174198 -0.910824 255 255 255 255 0.4981853 0.969237
0.016496 0.237386 -0 0.9125075 -0.1635771 -0.3749302 255 255 255 255 0.5991203 0.9095388
0.011692 0.237386 -0.011692 0.9125075 -0.1635771 -0.3749302 255 255 255 255 0.5702543 0.9095388
0.013842 0.25566 -0.014432 0.9125075 -0.1635771 -0.3749302 255 255 255 255 0.5831731 0.9795552
-0.011692 0.237386 -0.011692 -0.397572 -0.167269 -0.902196 255 255 255 255 0.4297457 0.9095388
-0.01427 0.252467 -0.013352 -0.397572 -0.167269 -0.902196 255 255 255 255 0.4142552 0.9673213
-0.000302 0.252967 -0.0196 -0.397572 -0.167269 -0.902196 255 255 255 255 0.4981853 0.969237
-0.016496 0.237386 -0 -0.9253833 -0.165366 -0.3410571 255 255 255 255 0.4008797 0.9095388
-0.019831 0.254477 0.000762 -0.9253833 -0.165366 -0.3410571 255 255 255 255 0.3808405 0.9750226
-0.01427 0.252467 -0.013352 -0.9253833 -0.165366 -0.3410571 255 255 255 255 0.4142552 0.9673213
0.042606 0.092933 -0 0.7936088 0.5136759 0.3260709 255 255 255 255 0.7560087 0.3560706
0.02528 0.119701 -0 0.7936088 0.5136759 0.3260709 255 255 255 255 0.6519011 0.4586315
0.017918 0.119701 0.017918 0.7936088 0.5136759 0.3260709 255 255 255 255 0.6076648 0.4586315
0.042606 0.092933 -0 0.7936088 0.5136669 -0.3260849 255 255 255 255 0.7560087 0.3560706
0.030198 0.092933 -0.030198 0.7936088 0.5136669 -0.3260849 255 255 255 255 0.6814522 0.3560706
0.017918 0.119701 -0.017918 0.7936088 0.5136669 -0.3260849 255 255 255 255 0.6076648 0.4586315
0 0.092933 -0.042606 0.3260711 0.5136751 -0.7936092 255 255 255 255 0.5 0.3560706
0 0.119701 -0.02528 0.3260711 0.5136751 -0.7936092 255 255 255 255 0.5 0.4586315
0.017918 0.119701 -0.017918 0.3260711 0.5136751 -0.7936092 255 255 255 255 0.6076648 0.4586315
0 0.092933 -0.042606 -0.3260849 0.5136669 -0.7936088 255 255 255 255 0.5 0.3560706
-0.030198 0.092933 -0.030198 -0.3260849 0.5136669 -0.7936088 255 255 255 255 0.3185478 0.3560706
-0.017918 0.119701 -0.017918 -0.3260849 0.5136669 -0.7936088 255 255 255 255 0.3923353 0.4586315
-0.042606 0.092933 -0 -0.7936092 0.5136751 -0.3260711 255 255 255 255 0.2439913 0.3560706
-0.02528 0.119701 -0 -0.7936092 0.5136751 -0.3260711 255 255 255 255 0.3480988 0.4586315
-0.017918 0.119701 -0.017918 -0.7936092 0.5136751 -0.3260711 255 255 255 255 0.3923353 0.4586315
-0.042606 0.092933 -0 -0.7936091 0.513667 0.326084 255 255 255 255 0.2439913 0.3560706
-0.030198 0.092933 0.030198 -0.7936091 0.513667 0.326084 255 255 255 255 0.3185478 0.3560706
-0.017918 0.119701 0.017918 -0.7936091 0.513667 0.326084 255 255 255 255 0.3923353 0.4586315
0 0.092933 0.042606 -0.3260718 0.5136757 0.7936085 255 255 255 255 0.5 0.3560706
0 0.119701 0.02528 -0.3260718 0.5136757 0.7936085 255 255 255 255 0.5 0.4586315
-0.017918 0.119701 0.017918 -0.3260718 0.5136757 0.7936085 255 255 255 255 0.3923353 0.4586315
0 0.092933 0.042606 0.326084 0.513667 0.7936091 255 255 255 255 0.5 0.3560706
0.030198 0.092933 0.030198 0.326084 0.513667 0.7936091 255 255 255 255 0.6814522 0.3560706
0.017918 0.119701 0.017918 0.326084 0.513667 0.7936091 255 255 255 255 0.6076648 0.4586315
3 0 1 2 
3 3 4 5 
3 6 7 8 
3 9 10 11 
3 12 13 14 
3 15 16 17 
3 18 19 20 
3 21 9 22 
3 23 24 25 
3 26 27 28 
3 9 29 30 
3 9 31 22 
3 32 33 34 
3 35 36 37 
3 38 39 40 
3 41 42 43 
3 44 45 46 
3 47 48 49 
3 50 51 52 
3 53 54 55 
3 56 57 58 
3 59 60 61 
3 62 63 64 
3 65 66 67 
3 68 69 70 
3 71 72 73 
3 74 75 76 
3 77 78 79 
3 80 81 82 
3 83 84 85 
3 86 87 88 
3 89 90 91 
3 92 93 94 
3 95 96 97 
3 98 99 100 
3 101 102 103 
3 104 105 106 
3 107 108 109 
3 110 111 112 
3 113 114 115 
3 116 117 118 
3 119 120 121 
3 122 123 124 
3 125 126 127 
3 128 129 130 
3 131 132 133 
3 134 135 136 
3 137 138 139 
3 140 141 142 
3 140 143 144 
3 145 143 146 
3 145 147 148 
3 149 150 151 
3 149 147 152 
3 153 150 154 
3 153 141 155 
3 156 157 158 
3 159 160 161 
3 162 163 164 
3 165 166 167 
3 168 169 170 
3 171 172 173 
3 174 175 176 
3 177 178 179 
3 180 181 182 
3 183 181 184 
3 183 185 186 
3 187 185 188 
3 189 190 191 
3 187 190 192 
3 189 193 194 
3 180 193 195 
3 196 197 198 
3 199 200 201 
3 202 203 204 
3 205 206 207 
3 208 209 210 
3 211 212 213 
3 214 215 216 
3 217 218 219 
3 220 221 222 
3 223 224 225 
3 226 227 228 
3 229 230 231 
3 232 233 234 
3 235 236 237 
3 238 239 240 
3 241 242 243 
3 244 245 246 
3 247 248 249 
3 250 251 252 
3 9 253 10 
3 254 255 256 
3 257 258 259 
3 260 261 262 
3 21 253 9 
3 263 264 265 
3 266 267 268 
3 9 11 29 
3 9 30 31 
3 269 270 271 
3 272 273 274 
3 275 276 277 
3 278 279 280 
3 281 282 283 
3 284 285 286 
3 287 288 289 
3 290 291 292 
3 293 294 295 
3 296 297 298 
3 299 300 301 
3 302 303 304 
3 305 306 307 
3 308 309 310 
3 311 312 313 
3 314 315 316 
3 317 318 319 
3 320 321 322 
3 323 324 325 
3 326 327 328 
3 329 330 331 
3 332 333 334 
3 335 336 337 
3 338 339 340 
3 341 342 343 
3 344 345 346 
3 347 348 349 
3 350 351 352 
3 353 354 355 
3 356 357 358 
3 359 360 361 
3 362 363 364 
3 365 366 367 
3 368 369 370 
3 371 372 373 
3 374 375 376 
3 140 144 141 
3 140 146 143 
3 145 148 143 
3 145 152 147 
3 149 154 150 
3 149 151 147 
3 153 155 150 
3 153 142 141 
3 156 377 157 
3 159 378 160 
3 162 379 163 
3 165 380 166 
3 168 381 169 
3 171 382 172 
3 174 383 175 
3 177 384 178 
3 180 184 181 
3 183 186 181 
3 183 188 185 
3 187 192 185 
3 189 194 190 
3 187 191 190 
3 189 195 193 
3 180 182 193 
3 385 386 387 
3 388 389 390 
3 391 392 393 
3 394 395 396 
3 397 398 399 
3 400 401 402 
3 403 404 405 
3 406 407 408 
3 409 410 411 
3 412 413 414 
3 415 416 417 
3 418 419 420 
3 421 422 423 
3 424 425 426 
3 427 428 429 
3 430 431 432 
