ply
format ascii 1.0
comment VCGLIB generated
element vertex 310
property float x
property float y
property float z
property float nx
property float ny
property float nz
property uchar red
property uchar green
property uchar blue
property uchar alpha
property float texture_u
property float texture_v
element face 126
property list uchar int vertex_indices
end_header
-204.832 3.31159 -148.332 0.0006710002 0.9999993 -0.0009410004 255 255 255 255 0.180672 0.9850268
-9.70312 3.31238 -8.37891 0.0006710002 0.9999993 -0.0009410004 255 255 255 255 0.9611875 0.985055
-8.30859 3.16707 -161.746 0.0006710002 0.9999993 -0.0009410004 255 255 255 255 0.9667656 0.9798537
-250 0 0 -0.9999818 -0.005644999 -0.002182 255 255 255 255 0 0.8664898
-249.846 -4.66463 -58.6406 -0.9999818 -0.005644999 -0.002182 255 255 255 255 0.0006160279 0.6995215
-249.846 -24.2073 -8.08984 -0.9999818 -0.005644999 -0.002182 255 255 255 255 0.0006160279 0
-240.084 3.31263 -241.289 9e-06 1 8e-06 255 255 255 255 0.039664 0.985064
-204.832 3.31159 -148.332 9e-06 1 8e-06 255 255 255 255 0.180672 0.9850268
-33.7832 3.31047 -193.855 9e-06 1 8e-06 255 255 255 255 0.8648672 0.9849867
-242.216 3.08114 -53.5098 -0.008618998 0.9999518 -0.004715999 255 255 255 255 0.03113599 0.9767779
-239.954 3.31294 -8.49219 -0.008618998 0.9999518 -0.004715999 255 255 255 255 0.04018402 0.9850751
-202.887 3.31076 -76.707 -0.008618998 0.9999518 -0.004715999 255 255 255 255 0.188452 0.9849971
-100.73 3.31258 -16.9434 1e-06 1 -3.2e-05 255 255 255 255 0.5970799 0.9850622
-202.887 3.31076 -76.707 1e-06 1 -3.2e-05 255 255 255 255 0.188452 0.9849971
-239.954 3.31294 -8.49219 1e-06 1 -3.2e-05 255 255 255 255 0.04018402 0.9850751
-250 6.1e-05 -170.947 -0.9999722 -0.007446002 0.0003280001 255 255 255 255 0 0.866492
-249.846 -24.2073 -250 -0.9999722 -0.007446002 0.0003280001 255 255 255 255 0.0006160279 0
-249.846 -19.6931 -147.625 -0.9999722 -0.007446002 0.0003280001 255 255 255 255 0.0006160279 0.1615838
-249.846 4.8e-05 -250 -0.3208449 0.9471316 -0.0006259998 255 255 255 255 0.0006160279 0.8664916
-250 6.1e-05 -170.947 -0.3208449 0.9471316 -0.0006259998 255 255 255 255 0 0.866492
-240.084 3.31263 -241.289 -0.3208449 0.9471316 -0.0006259998 255 255 255 255 0.039664 0.985064
-250 8e-05 -54.332 -0.313188 0.9496912 1e-06 255 255 255 255 0 0.8664927
-250 0 0 -0.313188 0.9496912 1e-06 255 255 255 255 0 0.8664898
-239.954 3.31294 -8.49219 -0.313188 0.9496912 1e-06 255 255 255 255 0.04018402 0.9850751
-33.7832 3.31047 -193.855 0.0009869997 0.9999928 0.003682999 255 255 255 255 0.8648672 0.9849867
-204.832 3.31159 -148.332 0.0009869997 0.9999928 0.003682999 255 255 255 255 0.180672 0.9850268
-8.30859 3.16707 -161.746 0.0009869997 0.9999928 0.003682999 255 255 255 255 0.9667656 0.9798537
-10.2803 1.7007 -228.85 0.136142 0.9906612 0.007469001 255 255 255 255 0.9588788 0.9273657
-13.9902 1.96714 -196.566 0.136142 0.9906612 0.007469001 255 255 255 255 0.9440392 0.9369028
0 -0.001998 -190.395 0.136142 0.9906612 0.007469001 255 255 255 255 1 0.8664183
-8.30859 3.16707 -161.746 0.334701 0.942322 0.002151 255 255 255 255 0.9667656 0.9798537
-9.70312 3.31238 -8.37891 0.334701 0.942322 0.002151 255 255 255 255 0.9611875 0.985055
0 -1.1e-05 -67.1133 0.334701 0.942322 0.002151 255 255 255 255 1 0.8664894
-249.846 -4.66463 -58.6406 -1 0 0 255 255 255 255 0.0006160279 0.6995215
-249.846 -19.6931 -147.625 -1 0 0 255 255 255 255 0.0006160279 0.1615838
-249.846 -24.2073 -8.08984 -1 0 0 255 255 255 255 0.0006160279 0
-250 0 0 -0.9994534 -0.03305902 -0 255 255 255 255 0 0.8664898
-250 8e-05 -54.332 -0.9994534 -0.03305902 -0 255 255 255 255 0 0.8664927
-249.846 -4.66463 -58.6406 -0.9994534 -0.03305902 -0 255 255 255 255 0.0006160279 0.6995215
-33.7832 3.31047 -193.855 0.05507098 0.9943597 -0.09064297 255 255 255 255 0.8648672 0.9849867
-13.3955 3.12209 -183.535 0.05507098 0.9943597 -0.09064297 255 255 255 255 0.946418 0.9782436
-13.9902 1.96714 -196.566 0.05507098 0.9943597 -0.09064297 255 255 255 255 0.9440392 0.9369028
-87.8154 3.31468 -241.193 -1.4e-05 1 0.000197 255 255 255 255 0.6487384 0.9851373
-240.084 3.31263 -241.289 -1.4e-05 1 0.000197 255 255 255 255 0.039664 0.985064
-68.6758 3.31126 -222.488 -1.4e-05 1 0.000197 255 255 255 255 0.7252968 0.985015
-56.6436 0.57763 -235.633 -0.09448396 0.9839436 -0.1514189 255 255 255 255 0.7734256 0.8871658
-27.0967 3.7299 -233.586 -0.09448396 0.9839436 -0.1514189 255 255 255 255 0.8916132 1
-39.6338 4.8e-05 -250 -0.09448396 0.9839436 -0.1514189 255 255 255 255 0.8414648 0.8664916
-250 8e-05 -54.332 -0.9994752 -0.03238301 -0.0007330002 255 255 255 255 0 0.8664927
-249.846 -4.12626 -82.4316 -0.9994752 -0.03238301 -0.0007330002 255 255 255 255 0.0006160279 0.7187921
-249.846 -4.66463 -58.6406 -0.9994752 -0.03238301 -0.0007330002 255 255 255 255 0.0006160279 0.6995215
-250 8e-05 -54.332 -0.3692521 0.9292273 0.013767 255 255 255 255 0 0.8664927
-239.954 3.31294 -8.49219 -0.3692521 0.9292273 0.013767 255 255 255 255 0.04018402 0.9850751
-242.216 3.08114 -53.5098 -0.3692521 0.9292273 0.013767 255 255 255 255 0.03113599 0.9767779
-249.846 -5.07694 -101.762 -1 0 0 255 255 255 255 0.0006160279 0.684763
-68.6758 3.31126 -222.488 0.004178002 0.9999785 -0.005064002 255 255 255 255 0.7252968 0.985015
-33.7832 3.31047 -193.855 0.004178002 0.9999785 -0.005064002 255 255 255 255 0.8648672 0.9849867
-36.3076 3.15181 -227.268 0.004178002 0.9999785 -0.005064002 255 255 255 255 0.8547696 0.9793075
-240.084 3.31263 -241.289 6e-06 1 2.1e-05 255 255 255 255 0.039664 0.985064
-33.7832 3.31047 -193.855 6e-06 1 2.1e-05 255 255 255 255 0.8648672 0.9849867
-68.6758 3.31126 -222.488 6e-06 1 2.1e-05 255 255 255 255 0.7252968 0.985015
-10.2803 1.7007 -228.85 0.1634019 0.9865596 -0 255 255 255 255 0.9588788 0.9273657
0 -0.001998 -190.395 0.1634019 0.9865596 -0 255 255 255 255 1 0.8664183
0 -0.002003 -221.477 0.1634019 0.9865596 -0 255 255 255 255 1 0.8664181
-249.846 -8.48917 -146.676 -0.6067671 0.7839422 0.131409 255 255 255 255 0.0006160279 0.5626237
-233.904 2.41934 -138.145 -0.6067671 0.7839422 0.131409 255 255 255 255 0.06438397 0.9530891
-239.914 3.31191 -171.219 -0.6067671 0.7839422 0.131409 255 255 255 255 0.04034399 0.9850382
-240.084 3.31263 -241.289 2e-06 1 1e-05 255 255 255 255 0.039664 0.985064
-239.914 3.31191 -171.219 2e-06 1 1e-05 255 255 255 255 0.04034399 0.9850382
-204.832 3.31159 -148.332 2e-06 1 1e-05 255 255 255 255 0.180672 0.9850268
-249.846 -4.12626 -82.4316 -0.3518881 0.9258304 -0.1378871 255 255 255 255 0.0006160279 0.7187921
-250 8e-05 -54.332 -0.3518881 0.9258304 -0.1378871 255 255 255 255 0 0.8664927
-242.216 3.08114 -53.5098 -0.3518881 0.9258304 -0.1378871 255 255 255 255 0.03113599 0.9767779
-249.846 -4.54725 -130.688 -0.3061699 0.9496846 0.06602298 255 255 255 255 0.0006160279 0.703723
-231.185 0.145057 -111.645 -0.3061699 0.9496846 0.06602298 255 255 255 255 0.07526001 0.8716821
-229.562 1.42028 -122.461 -0.3061699 0.9496846 0.06602298 255 255 255 255 0.08175202 0.9173282
0 -0.002008 -250 4.900001e-05 0.9382622 -0.3459251 255 255 255 255 1 0.8664179
-39.6338 4.8e-05 -250 4.900001e-05 0.9382622 -0.3459251 255 255 255 255 0.8414648 0.8664916
-24.0352 1.33717 -246.371 4.900001e-05 0.9382622 -0.3459251 255 255 255 255 0.9038592 0.9143533
-8.30859 3.16707 -161.746 0.202804 0.9779742 -0.04936601 255 255 255 255 0.9667656 0.9798537
0 -0.001998 -190.395 0.202804 0.9779742 -0.04936601 255 255 255 255 1 0.8664183
-13.3955 3.12209 -183.535 0.202804 0.9779742 -0.04936601 255 255 255 255 0.946418 0.9782436
-229.562 1.42028 -122.461 0.03638802 0.9918146 0.1223921 255 255 255 255 0.08175202 0.9173282
-231.185 0.145057 -111.645 0.03638802 0.9918146 0.1223921 255 255 255 255 0.07526001 0.8716821
-210.388 1.58161 -129.469 0.03638802 0.9918146 0.1223921 255 255 255 255 0.158448 0.9231029
0 -0.002003 -221.477 0.136739 0.9898802 0.03794301 255 255 255 255 1 0.8664181
-11.6914 2.4819 -244.145 0.136739 0.9898802 0.03794301 255 255 255 255 0.9532344 0.9553283
-10.2803 1.7007 -228.85 0.136739 0.9898802 0.03794301 255 255 255 255 0.9588788 0.9273657
-56.6436 0.57763 -235.633 0.14202 0.9302818 -0.3382399 255 255 255 255 0.7734256 0.8871658
-87.8154 3.31468 -241.193 0.14202 0.9302818 -0.3382399 255 255 255 255 0.6487384 0.9851373
-57.374 2.21735 -231.43 0.14202 0.9302818 -0.3382399 255 255 255 255 0.7705041 0.9458589
-87.8154 3.31468 -241.193 0.05341299 0.9970858 -0.05447199 255 255 255 255 0.6487384 0.9851373
-68.6758 3.31126 -222.488 0.05341299 0.9970858 -0.05447199 255 255 255 255 0.7252968 0.985015
-57.374 2.21735 -231.43 0.05341299 0.9970858 -0.05447199 255 255 255 255 0.7705041 0.9458589
-33.7832 3.31047 -193.855 0.01166199 0.9999205 -0.004786998 255 255 255 255 0.8648672 0.9849867
-8.30859 3.16707 -161.746 0.01166199 0.9999205 -0.004786998 255 255 255 255 0.9667656 0.9798537
-13.3955 3.12209 -183.535 0.01166199 0.9999205 -0.004786998 255 255 255 255 0.946418 0.9782436
-184.367 0.420107 -0.910156 0.0008090005 0.9362655 0.3512922 255 255 255 255 0.262532 0.8815274
-93.3457 0 0 0.0008090005 0.9362655 0.3512922 255 255 255 255 0.6266172 0.8664898
-239.954 3.31294 -8.49219 0.0008090005 0.9362655 0.3512922 255 255 255 255 0.04018402 0.9850751
-240.084 3.31263 -241.289 -0.311956 0.9500962 0.0007660002 255 255 255 255 0.039664 0.985064
-250 6.1e-05 -170.947 -0.311956 0.9500962 0.0007660002 255 255 255 255 0 0.866492
-239.914 3.31191 -171.219 -0.311956 0.9500962 0.0007660002 255 255 255 255 0.04034399 0.9850382
-249.846 -4.12626 -82.4316 -0.22519 0.9576842 -0.17925 255 255 255 255 0.0006160279 0.7187921
-242.216 3.08114 -53.5098 -0.22519 0.9576842 -0.17925 255 255 255 255 0.03113599 0.9767779
-222.55 3.29193 -77.0898 -0.22519 0.9576842 -0.17925 255 255 255 255 0.1098 0.984323
-86.0205 4.8e-05 -250 0.1399049 0.9357636 -0.3236868 255 255 255 255 0.6559179 0.8664916
-87.8154 3.31468 -241.193 0.1399049 0.9357636 -0.3236868 255 255 255 255 0.6487384 0.9851373
-56.6436 0.57763 -235.633 0.1399049 0.9357636 -0.3236868 255 255 255 255 0.7734256 0.8871658
-204.832 3.31159 -148.332 -9e-06 1 7e-06 255 255 255 255 0.180672 0.9850268
-191.201 3.31153 -124.021 -9e-06 1 7e-06 255 255 255 255 0.235196 0.9850246
-9.70312 3.31238 -8.37891 -9e-06 1 7e-06 255 255 255 255 0.9611875 0.985055
-238.52 -0.959926 -97.9062 -0.263131 0.9647481 0.004811001 255 255 255 255 0.04591998 0.8321297
-249.846 -4.12626 -82.4316 -0.263131 0.9647481 0.004811001 255 255 255 255 0.0006160279 0.7187921
-222.55 3.29193 -77.0898 -0.263131 0.9647481 0.004811001 255 255 255 255 0.1098 0.984323
-249.846 -4.12626 -82.4316 -0.3272641 0.9437922 -0.04641701 255 255 255 255 0.0006160279 0.7187921
-238.52 -0.959926 -97.9062 -0.3272641 0.9437922 -0.04641701 255 255 255 255 0.04591998 0.8321297
-249.846 -5.07694 -101.762 -0.3272641 0.9437922 -0.04641701 255 255 255 255 0.0006160279 0.684763
-201.656 3.19996 -110.621 -0.015582 0.9998713 -0.003832001 255 255 255 255 0.193376 0.9810311
-202.887 3.31076 -76.707 -0.015582 0.9998713 -0.003832001 255 255 255 255 0.188452 0.9849971
-191.201 3.31153 -124.021 -0.015582 0.9998713 -0.003832001 255 255 255 255 0.235196 0.9850246
-202.887 3.31076 -76.707 -1.3e-05 1 1.3e-05 255 255 255 255 0.188452 0.9849971
-9.70312 3.31238 -8.37891 -1.3e-05 1 1.3e-05 255 255 255 255 0.9611875 0.985055
-191.201 3.31153 -124.021 -1.3e-05 1 1.3e-05 255 255 255 255 0.235196 0.9850246
-57.374 2.21735 -231.43 -0.04840601 0.9986112 0.020801 255 255 255 255 0.7705041 0.9458589
-36.3076 3.15181 -227.268 -0.04840601 0.9986112 0.020801 255 255 255 255 0.8547696 0.9793075
-27.0967 3.7299 -233.586 -0.04840601 0.9986112 0.020801 255 255 255 255 0.8916132 1
-207.713 2.55111 -91.5859 3.699999e-05 0.9986987 -0.05099998 255 255 255 255 0.169148 0.9578057
-222.55 3.29193 -77.0898 3.699999e-05 0.9986987 -0.05099998 255 255 255 255 0.1098 0.984323
-202.887 3.31076 -76.707 3.699999e-05 0.9986987 -0.05099998 255 255 255 255 0.188452 0.9849971
-86.0205 4.8e-05 -250 0 0.9991929 -0.040169 255 255 255 255 0.6559179 0.8664916
-56.6436 0.57763 -235.633 0 0.9991929 -0.040169 255 255 255 255 0.7734256 0.8871658
-39.6338 4.8e-05 -250 0 0.9991929 -0.040169 255 255 255 255 0.8414648 0.8664916
-242.216 3.08114 -53.5098 -0.001113 0.9999673 0.008011003 255 255 255 255 0.03113599 0.9767779
-202.887 3.31076 -76.707 -0.001113 0.9999673 0.008011003 255 255 255 255 0.188452 0.9849971
-222.55 3.29193 -77.0898 -0.001113 0.9999673 0.008011003 255 255 255 255 0.1098 0.984323
-13.9902 1.96714 -196.566 0.179714 0.9791229 -0.09498098 255 255 255 255 0.9440392 0.9369028
-13.3955 3.12209 -183.535 0.179714 0.9791229 -0.09498098 255 255 255 255 0.946418 0.9782436
0 -0.001998 -190.395 0.179714 0.9791229 -0.09498098 255 255 255 255 1 0.8664183
-210.388 1.58161 -129.469 -0.106433 0.9925273 0.05967902 255 255 255 255 0.158448 0.9231029
-191.201 3.31153 -124.021 -0.106433 0.9925273 0.05967902 255 255 255 255 0.235196 0.9850246
-204.832 3.31159 -148.332 -0.106433 0.9925273 0.05967902 255 255 255 255 0.180672 0.9850268
-210.388 1.58161 -129.469 -0.075435 0.995868 -0.050563 255 255 255 255 0.158448 0.9231029
-201.656 3.19996 -110.621 -0.075435 0.995868 -0.050563 255 255 255 255 0.193376 0.9810311
-191.201 3.31153 -124.021 -0.075435 0.995868 -0.050563 255 255 255 255 0.235196 0.9850246
-249.846 -24.2073 -250 -1 0 -0 255 255 255 255 0.0006160279 0
-250 0 0 -0.9999797 -0.006373999 0 255 255 255 255 0 0.8664898
-249.846 -24.2073 -8.08984 -0.9999797 -0.006373999 0 255 255 255 255 0.0006160279 0
-249.846 -24.2073 4e-06 -0.9999797 -0.006373999 0 255 255 255 255 0.0006160279 0
-249.846 -4.54725 -130.688 -0.4726112 0.8556483 -0.2109611 255 255 255 255 0.0006160279 0.703723
-233.904 2.41934 -138.145 -0.4726112 0.8556483 -0.2109611 255 255 255 255 0.06438397 0.9530891
-249.846 -8.48917 -146.676 -0.4726112 0.8556483 -0.2109611 255 255 255 255 0.0006160279 0.5626237
-36.3076 3.15181 -227.268 -0.02417201 0.9981333 0.05608601 255 255 255 255 0.8547696 0.9793075
-13.9902 1.96714 -196.566 -0.02417201 0.9981333 0.05608601 255 255 255 255 0.9440392 0.9369028
-27.0967 3.7299 -233.586 -0.02417201 0.9981333 0.05608601 255 255 255 255 0.8916132 1
-27.0967 3.7299 -233.586 0.108384 0.9932743 0.04073301 255 255 255 255 0.8916132 1
-10.2803 1.7007 -228.85 0.108384 0.9932743 0.04073301 255 255 255 255 0.9588788 0.9273657
-11.6914 2.4819 -244.145 0.108384 0.9932743 0.04073301 255 255 255 255 0.9532344 0.9553283
-249.846 -5.07694 -101.762 -0.312728 0.9454811 -0.09092201 255 255 255 255 0.0006160279 0.684763
-238.52 -0.959926 -97.9062 -0.312728 0.9454811 -0.09092201 255 255 255 255 0.04591998 0.8321297
-231.185 0.145057 -111.645 -0.312728 0.9454811 -0.09092201 255 255 255 255 0.07526001 0.8716821
-249.846 -8.48917 -146.676 -1 0 0 255 255 255 255 0.0006160279 0.5626237
-249.846 -8.48917 -146.676 -0.9999809 -0.000523 0.006173999 255 255 255 255 0.0006160279 0.5626237
-250 6.1e-05 -170.947 -0.9999809 -0.000523 0.006173999 255 255 255 255 0 0.866492
-249.846 -19.6931 -147.625 -0.9999809 -0.000523 0.006173999 255 255 255 255 0.0006160279 0.1615838
-249.846 -4.12626 -82.4316 -1 0 -0 255 255 255 255 0.0006160279 0.7187921
-210.388 1.58161 -129.469 -0.151706 0.9883181 -0.014582 255 255 255 255 0.158448 0.9231029
-207.713 2.55111 -91.5859 -0.151706 0.9883181 -0.014582 255 255 255 255 0.169148 0.9578057
-201.656 3.19996 -110.621 -0.151706 0.9883181 -0.014582 255 255 255 255 0.193376 0.9810311
-93.3457 0 0 0.011844 0.9837253 0.1792881 255 255 255 255 0.6266172 0.8664898
-97.1592 1.2893 -6.82227 0.011844 0.9837253 0.1792881 255 255 255 255 0.6113632 0.9126398
-239.954 3.31294 -8.49219 0.011844 0.9837253 0.1792881 255 255 255 255 0.04018402 0.9850751
-249.846 -4.54725 -130.688 -0.2607462 0.9652456 0.01767601 255 255 255 255 0.0006160279 0.703723
-249.846 -5.07694 -101.762 -0.2607462 0.9652456 0.01767601 255 255 255 255 0.0006160279 0.684763
-231.185 0.145057 -111.645 -0.2607462 0.9652456 0.01767601 255 255 255 255 0.07526001 0.8716821
-184.367 0.420107 -0.910156 0 0.9079461 0.4190871 255 255 255 255 0.262532 0.8815274
-250 0 0 0 0.9079461 0.4190871 255 255 255 255 0 0.8664898
-93.3457 0 0 0 0.9079461 0.4190871 255 255 255 255 0.6266172 0.8664898
-204.832 3.31159 -148.332 0.001606001 0.9957765 0.09179705 255 255 255 255 0.180672 0.9850268
-233.904 2.41934 -138.145 0.001606001 0.9957765 0.09179705 255 255 255 255 0.06438397 0.9530891
-210.388 1.58161 -129.469 0.001606001 0.9957765 0.09179705 255 255 255 255 0.158448 0.9231029
-233.904 2.41934 -138.145 0.01347601 0.9981165 0.05984903 255 255 255 255 0.06438397 0.9530891
-229.562 1.42028 -122.461 0.01347601 0.9981165 0.05984903 255 255 255 255 0.08175202 0.9173282
-210.388 1.58161 -129.469 0.01347601 0.9981165 0.05984903 255 255 255 255 0.158448 0.9231029
-250 0 0 -0.000939 0.931993 0.362475 255 255 255 255 0 0.8664898
-184.367 0.420107 -0.910156 -0.000939 0.931993 0.362475 255 255 255 255 0.262532 0.8815274
-239.954 3.31294 -8.49219 -0.000939 0.931993 0.362475 255 255 255 255 0.04018402 0.9850751
-238.52 -0.959926 -97.9062 -0.1096351 0.9938145 -0.01769301 255 255 255 255 0.04591998 0.8321297
-207.713 2.55111 -91.5859 -0.1096351 0.9938145 -0.01769301 255 255 255 255 0.169148 0.9578057
-210.388 1.58161 -129.469 -0.1096351 0.9938145 -0.01769301 255 255 255 255 0.158448 0.9231029
-249.846 -4.54725 -130.688 -0.3352069 0.9297947 0.1520469 255 255 255 255 0.0006160279 0.703723
-229.562 1.42028 -122.461 -0.3352069 0.9297947 0.1520469 255 255 255 255 0.08175202 0.9173282
-233.904 2.41934 -138.145 -0.3352069 0.9297947 0.1520469 255 255 255 255 0.06438397 0.9530891
-239.914 3.31191 -171.219 -0.01995 0.9993328 0.030594 255 255 255 255 0.04034399 0.9850382
-233.904 2.41934 -138.145 -0.01995 0.9993328 0.030594 255 255 255 255 0.06438397 0.9530891
-204.832 3.31159 -148.332 -0.01995 0.9993328 0.030594 255 255 255 255 0.180672 0.9850268
-238.52 -0.959926 -97.9062 -0.08441402 0.9869902 -0.136838 255 255 255 255 0.04591998 0.8321297
-222.55 3.29193 -77.0898 -0.08441402 0.9869902 -0.136838 255 255 255 255 0.1098 0.984323
-207.713 2.55111 -91.5859 -0.08441402 0.9869902 -0.136838 255 255 255 255 0.169148 0.9578057
-24.0352 1.33717 -246.371 -0.055347 0.978948 -0.196463 255 255 255 255 0.9038592 0.9143533
-27.0967 3.7299 -233.586 -0.055347 0.978948 -0.196463 255 255 255 255 0.8916132 1
-11.6914 2.4819 -244.145 -0.055347 0.978948 -0.196463 255 255 255 255 0.9532344 0.9553283
-24.0352 1.33717 -246.371 -0.03917401 0.9804422 -0.192869 255 255 255 255 0.9038592 0.9143533
-39.6338 4.8e-05 -250 -0.03917401 0.9804422 -0.192869 255 255 255 255 0.8414648 0.8664916
-27.0967 3.7299 -233.586 -0.03917401 0.9804422 -0.192869 255 255 255 255 0.8916132 1
-231.185 0.145057 -111.645 -0.00026 0.9967921 0.08003401 255 255 255 255 0.07526001 0.8716821
-238.52 -0.959926 -97.9062 -0.00026 0.9967921 0.08003401 255 255 255 255 0.04591998 0.8321297
-210.388 1.58161 -129.469 -0.00026 0.9967921 0.08003401 255 255 255 255 0.158448 0.9231029
-86.0205 4.8e-05 -250 0.0002090001 0.9359183 -0.3522171 255 255 255 255 0.6559179 0.8664916
-240.084 3.31263 -241.289 0.0002090001 0.9359183 -0.3522171 255 255 255 255 0.039664 0.985064
-87.8154 3.31468 -241.193 0.0002090001 0.9359183 -0.3522171 255 255 255 255 0.6487384 0.9851373
0 0 0 0.323067 0.9463761 -0 255 255 255 255 1 0.8664898
0 -1.1e-05 -67.1133 0.323067 0.9463761 -0 255 255 255 255 1 0.8664894
-9.70312 3.31238 -8.37891 0.323067 0.9463761 -0 255 255 255 255 0.9611875 0.985055
-56.6436 0.57763 -235.633 -0.07279398 0.9247968 -0.3734329 255 255 255 255 0.7734256 0.8871658
-57.374 2.21735 -231.43 -0.07279398 0.9247968 -0.3734329 255 255 255 255 0.7705041 0.9458589
-27.0967 3.7299 -233.586 -0.07279398 0.9247968 -0.3734329 255 255 255 255 0.8916132 1
-239.914 3.31191 -171.219 -0.2880699 0.9033426 0.3177859 255 255 255 255 0.04034399 0.9850382
-250 6.1e-05 -170.947 -0.2880699 0.9033426 0.3177859 255 255 255 255 0 0.866492
-249.846 -8.48917 -146.676 -0.2880699 0.9033426 0.3177859 255 255 255 255 0.0006160279 0.5626237
-249.846 4.8e-05 -250 0 0.9346969 -0.355446 255 255 255 255 0.0006160279 0.8664916
-240.084 3.31263 -241.289 0 0.9346969 -0.355446 255 255 255 255 0.039664 0.985064
-86.0205 4.8e-05 -250 0 0.9346969 -0.355446 255 255 255 255 0.6559179 0.8664916
-249.846 -4.54725 -130.688 -1 0 0 255 255 255 255 0.0006160279 0.703723
-250 6.1e-05 -170.947 -0.9999981 0 -0.001952 255 255 255 255 0 0.866492
-249.846 4.8e-05 -250 -0.9999981 0 -0.001952 255 255 255 255 0.0006160279 0.8664916
-249.846 -24.2073 -250 -0.9999981 0 -0.001952 255 255 255 255 0.0006160279 0
-11.6914 2.4819 -244.145 0.207817 0.9781678 -0 255 255 255 255 0.9532344 0.9553283
0 -0.002003 -221.477 0.207817 0.9781678 -0 255 255 255 255 1 0.8664181
0 -0.002008 -250 0.207817 0.9781678 -0 255 255 255 255 1 0.8664179
-11.6914 2.4819 -244.145 -0.010882 0.9125448 -0.408832 255 255 255 255 0.9532344 0.9553283
0 -0.002008 -250 -0.010882 0.9125448 -0.408832 255 255 255 255 1 0.8664179
-24.0352 1.33717 -246.371 -0.010882 0.9125448 -0.408832 255 255 255 255 0.9038592 0.9143533
-93.3457 0 0 0 0 1 255 255 255 255 0.6266172 0.8664898
-249.846 -24.2073 4e-06 0 0 1 255 255 255 255 0.0006160279 0
-93.3457 -24.2073 4e-06 0 0 1 255 255 255 255 0.6266172 0
-250 0 0 -0 0 1 255 255 255 255 0 0.8664898
-27.0967 3.7299 -233.586 0.1182981 0.9929635 0.005399003 255 255 255 255 0.8916132 1
-13.9902 1.96714 -196.566 0.1182981 0.9929635 0.005399003 255 255 255 255 0.9440392 0.9369028
-10.2803 1.7007 -228.85 0.1182981 0.9929635 0.005399003 255 255 255 255 0.9588788 0.9273657
-57.374 2.21735 -231.43 -0.015988 0.9898368 -0.141307 255 255 255 255 0.7705041 0.9458589
-68.6758 3.31126 -222.488 -0.015988 0.9898368 -0.141307 255 255 255 255 0.7252968 0.985015
-36.3076 3.15181 -227.268 -0.015988 0.9898368 -0.141307 255 255 255 255 0.8547696 0.9793075
-8.30859 3.16707 -161.746 0.3402601 0.9403163 -0.005335001 255 255 255 255 0.9667656 0.9798537
0 0.284639 -139.877 0.3402601 0.9403163 -0.005335001 255 255 255 255 1 0.8766783
0 -0.001998 -190.395 0.3402601 0.9403163 -0.005335001 255 255 255 255 1 0.8664183
0 0.284639 -139.877 0.3190319 0.9477367 0.003707999 255 255 255 255 1 0.8766783
-8.30859 3.16707 -161.746 0.3190319 0.9477367 0.003707999 255 255 255 255 0.9667656 0.9798537
0 -1.1e-05 -67.1133 0.3190319 0.9477367 0.003707999 255 255 255 255 1 0.8664894
-201.656 3.19996 -110.621 -0.131355 0.9913031 -0.008004001 255 255 255 255 0.193376 0.9810311
-207.713 2.55111 -91.5859 -0.131355 0.9913031 -0.008004001 255 255 255 255 0.169148 0.9578057
-202.887 3.31076 -76.707 -0.131355 0.9913031 -0.008004001 255 255 255 255 0.188452 0.9849971
-27.7705 0.374255 -0 0.012598 0.9347973 0.3549581 255 255 255 255 0.888918 0.8798861
0 0 0 0.012598 0.9347973 0.3549581 255 255 255 255 1 0.8664898
-9.70312 3.31238 -8.37891 0.012598 0.9347973 0.3549581 255 255 255 255 0.9611875 0.985055
-249.846 -24.2073 -250 0 -1 0 255 255 255 255 0.0006160279 0
-86.0205 -24.2073 -250 0 -1 0 255 255 255 255 0.6559179 0
-249.846 -24.2073 -8.08984 0 -1 0 255 255 255 255 0.0006160279 0
0 -24.2073 -250 0 -1 0 255 255 255 255 1 0
0 -24.2073 -221.477 0 -1 0 255 255 255 255 1 0
-39.6338 -24.2073 -250 0 -1 0 255 255 255 255 0.8414648 0
0 -24.2073 4e-06 0 -1 0 255 255 255 255 1 0
-27.7705 -24.2073 4e-06 0 -1 0 255 255 255 255 0.888918 0
0 -24.2073 -67.1133 0 -1 0 255 255 255 255 1 0
-249.846 -24.2073 4e-06 0 -1 0 255 255 255 255 0.0006160279 0
-93.3457 -24.2073 4e-06 0 -1 0 255 255 255 255 0.6266172 0
0 -24.2073 -139.877 -0 -1 0 255 255 255 255 1 0
0 -24.2073 -190.395 0 -1 0 255 255 255 255 1 0
-97.1592 1.2893 -6.82227 0.01166101 0.9813145 0.1920571 255 255 255 255 0.6113632 0.9126398
-100.73 3.31258 -16.9434 0.01166101 0.9813145 0.1920571 255 255 255 255 0.5970799 0.9850622
-239.954 3.31294 -8.49219 0.01166101 0.9813145 0.1920571 255 255 255 255 0.04018402 0.9850751
-36.3076 3.15181 -227.268 0.06637999 0.9977468 -0.009752998 255 255 255 255 0.8547696 0.9793075
-33.7832 3.31047 -193.855 0.06637999 0.9977468 -0.009752998 255 255 255 255 0.8648672 0.9849867
-13.9902 1.96714 -196.566 0.06637999 0.9977468 -0.009752998 255 255 255 255 0.9440392 0.9369028
0 -0.001998 -190.395 1 0 -0 255 255 255 255 1 0.8664183
0 -24.2073 -221.477 1 0 -0 255 255 255 255 1 0
0 -0.002003 -221.477 1 0 -0 255 255 255 255 1 0.8664181
0 -24.2073 -250 1 0 -0 255 255 255 255 1 0
0 -0.002008 -250 1 0 -0 255 255 255 255 1 0.8664179
0 -0.002008 -250 0 0 -1 255 255 255 255 1 0.8664179
-39.6338 -24.2073 -250 0 0 -1 255 255 255 255 0.8414648 0
-39.6338 4.8e-05 -250 0 0 -1 255 255 255 255 0.8414648 0.8664916
0 -1.1e-05 -67.1133 1 0 -0 255 255 255 255 1 0.8664894
0 -24.2073 -139.877 1 0 -0 255 255 255 255 1 0
0 0.284639 -139.877 1 0 -0 255 255 255 255 1 0.8766783
-86.0205 -24.2073 -250 0 0 -1 255 255 255 255 0.6559179 0
-86.0205 4.8e-05 -250 0 0 -1 255 255 255 255 0.6559179 0.8664916
-27.7705 -24.2073 4e-06 0 0 1 255 255 255 255 0.888918 0
-27.7705 0.374255 -0 0 0 1 255 255 255 255 0.888918 0.8798861
0 0 0 1 0 -0 255 255 255 255 1 0.8664898
0 -24.2073 -67.1133 1 0 -0 255 255 255 255 1 0
-249.846 -24.2073 -250 0 0 -1 255 255 255 255 0.0006160279 0
-249.846 4.8e-05 -250 0 0 -1 255 255 255 255 0.0006160279 0.8664916
0 -24.2073 -190.395 1 -0 0 255 255 255 255 1 0
0 0 0 0 0 1 255 255 255 255 1 0.8664898
0 -24.2073 4e-06 0 0 1 255 255 255 255 1 0
-93.3457 0 0 -0.005605002 0.9820153 0.1887181 255 255 255 255 0.6266172 0.8664898
-27.7705 0.374255 -0 -0.005605002 0.9820153 0.1887181 255 255 255 255 0.888918 0.8798861
-97.1592 1.2893 -6.82227 -0.005605002 0.9820153 0.1887181 255 255 255 255 0.6113632 0.9126398
-27.7705 0.374255 -0 -0.006567 0.9801291 0.198252 255 255 255 255 0.888918 0.8798861
-100.73 3.31258 -16.9434 -0.006567 0.9801291 0.198252 255 255 255 255 0.5970799 0.9850622
-97.1592 1.2893 -6.82227 -0.006567 0.9801291 0.198252 255 255 255 255 0.6113632 0.9126398
-100.73 3.31258 -16.9434 6e-06 1 -4.1e-05 255 255 255 255 0.5970799 0.9850622
-9.70312 3.31238 -8.37891 6e-06 1 -4.1e-05 255 255 255 255 0.9611875 0.985055
-202.887 3.31076 -76.707 6e-06 1 -4.1e-05 255 255 255 255 0.188452 0.9849971
0 -24.2073 -250 0 0 -1 255 255 255 255 1 0
0 -24.2073 4e-06 1 -0 0 255 255 255 255 1 0
-27.7705 0.374255 -0 -0.02632101 0.9597056 0.2797722 255 255 255 255 0.888918 0.8798861
-9.70312 3.31238 -8.37891 -0.02632101 0.9597056 0.2797722 255 255 255 255 0.9611875 0.985055
-100.73 3.31258 -16.9434 -0.02632101 0.9597056 0.2797722 255 255 255 255 0.5970799 0.9850622
3 0 1 2 
3 3 4 5 
3 6 7 8 
3 9 10 11 
3 12 13 14 
3 15 16 17 
3 18 19 20 
3 21 22 23 
3 24 25 26 
3 27 28 29 
3 30 31 32 
3 33 34 35 
3 36 37 38 
3 39 40 41 
3 42 43 44 
3 45 46 47 
3 48 49 50 
3 51 52 53 
3 33 54 34 
3 55 56 57 
3 58 59 60 
3 61 62 63 
3 64 65 66 
3 67 68 69 
3 70 71 72 
3 73 74 75 
3 76 77 78 
3 79 80 81 
3 82 83 84 
3 85 86 87 
3 88 89 90 
3 91 92 93 
3 94 95 96 
3 97 98 99 
3 100 101 102 
3 103 104 105 
3 106 107 108 
3 109 110 111 
3 112 113 114 
3 115 116 117 
3 118 119 120 
3 121 122 123 
3 124 125 126 
3 127 128 129 
3 130 131 132 
3 133 134 135 
3 136 137 138 
3 139 140 141 
3 142 143 144 
3 34 145 35 
3 146 147 148 
3 149 150 151 
3 152 153 154 
3 155 156 157 
3 158 159 160 
3 54 161 34 
3 162 163 164 
3 165 54 33 
3 166 167 168 
3 169 170 171 
3 172 173 174 
3 175 176 177 
3 178 179 180 
3 181 182 183 
3 184 185 186 
3 187 188 189 
3 190 191 192 
3 193 194 195 
3 196 197 198 
3 199 200 201 
3 202 203 204 
3 205 206 207 
3 208 209 210 
3 211 212 213 
3 214 215 216 
3 217 218 219 
3 220 221 222 
3 54 223 161 
3 224 225 226 
3 227 228 229 
3 230 231 232 
3 233 234 235 
3 233 236 234 
3 237 238 239 
3 240 241 242 
3 243 244 245 
3 246 247 248 
3 249 250 251 
3 252 253 254 
3 255 256 257 
3 258 259 260 
3 261 262 263 
3 264 257 265 
3 257 256 265 
3 265 256 262 
3 262 256 263 
3 263 256 266 
3 266 256 267 
3 256 260 267 
3 260 259 267 
3 268 269 270 
3 271 272 273 
3 274 275 276 
3 276 277 278 
3 279 280 281 
3 282 283 284 
3 281 285 286 
3 233 287 288 
3 289 290 282 
3 286 291 292 
3 274 283 293 
3 294 287 295 
3 296 297 298 
3 299 300 301 
3 302 303 304 
3 274 293 275 
3 276 275 277 
3 279 305 280 
3 282 290 283 
3 281 280 285 
3 233 235 287 
3 289 306 290 
3 286 285 291 
3 274 284 283 
3 294 288 287 
3 307 308 309 
