ply
format ascii 1.0
comment VCGLIB generated
element vertex 381
property float x
property float y
property float z
property float nx
property float ny
property float nz
property uchar red
property uchar green
property uchar blue
property uchar alpha
property float texture_u
property float texture_v
element face 160
property list uchar int vertex_indices
end_header
0 0.102325 -0.103258 -0.3636359 0.290619 -0.8850478 255 255 255 255 0.5 0.4039564
-0.059124 0.162782 -0.059114 -0.3636359 0.290619 -0.8850478 255 255 255 255 0.2134466 0.6426273
0 0.162782 -0.083406 -0.3636359 0.290619 -0.8850478 255 255 255 255 0.5 0.6426273
0 0.249167 -0 -0.1021261 0.9817736 -0.1602841 255 255 255 255 0.5 0.9836561
-0.015648 0.250203 0.016316 -0.1021261 0.9817736 -0.1602841 255 255 255 255 0.4241596 0.9877461
0.000341 0.25282 0.022158 -0.1021261 0.9817736 -0.1602841 255 255 255 255 0.5016527 0.9980773
0 0.102325 0.10307 -0.3639739 0.287809 0.8858268 255 255 255 255 0.5 0.4039564
-0.059124 0.162782 0.059134 -0.3639739 0.287809 0.8858268 255 255 255 255 0.2134466 0.6426273
-0.07312 0.102325 0.073026 -0.3639739 0.287809 0.8858268 255 255 255 255 0.1456128 0.4039564
0 0 0 0 -1 0 255 255 255 255 0.5 0
-0.055203 0 0.055214 0 -1 0 255 255 255 255 0.2324503 0
-0.077885 0 1.1e-05 0 -1 0 255 255 255 255 0.1225185 0
-0.083417 0.162782 1.1e-05 -0.8855965 0.2886328 0.3638818 255 255 255 255 0.09570685 0.6426273
-0.07312 0.102325 0.073026 -0.8855965 0.2886328 0.3638818 255 255 255 255 0.1456128 0.4039564
-0.059124 0.162782 0.059134 -0.8855965 0.2886328 0.3638818 255 255 255 255 0.2134466 0.6426273
0.07312 0.102325 0.073026 0.8855965 0.2886328 0.3638818 255 255 255 255 0.8543872 0.4039564
0.083417 0.162782 1.1e-05 0.8855965 0.2886328 0.3638818 255 255 255 255 0.9042931 0.6426273
0.059124 0.162782 0.059134 0.8855965 0.2886328 0.3638818 255 255 255 255 0.7865535 0.6426273
0 0.102325 -0.103258 0.3636418 0.2906128 -0.8850474 255 255 255 255 0.5 0.4039564
0.059124 0.162782 -0.059114 0.3636418 0.2906128 -0.8850474 255 255 255 255 0.7865535 0.6426273
0.07312 0.102325 -0.073215 0.3636418 0.2906128 -0.8850474 255 255 255 255 0.8543872 0.4039564
0.055203 0 0.055214 0 -1 0 255 255 255 255 0.7675498 0
0.077885 0 1.1e-05 0 -1 0 255 255 255 255 0.8774815 0
0.059124 0.162782 0.059134 0.3639739 0.287809 0.8858268 255 255 255 255 0.7865535 0.6426273
0 0.102325 0.10307 0.3639739 0.287809 0.8858268 255 255 255 255 0.5 0.4039564
0.07312 0.102325 0.073026 0.3639739 0.287809 0.8858268 255 255 255 255 0.8543872 0.4039564
0 0.249167 -0 -0.102024 0.9817902 -0.160247 255 255 255 255 0.5 0.9836561
0.016132 0.253307 0.015094 -0.102024 0.9817902 -0.160247 255 255 255 255 0.5781862 1
0.022419 0.251356 -0.000862 -0.102024 0.9817902 -0.160247 255 255 255 255 0.6086571 0.9922978
-0.055203 -0 -0.055193 -0 -1 0 255 255 255 255 0.2324503 -0
0 -0 -0.077874 -0 -1 0 255 255 255 255 0.5 0
0.055203 -0 -0.055193 0 -1 0 255 255 255 255 0.7675498 0
0.103164 0.102325 -9.5e-05 0.8852763 0.2897941 -0.3637381 255 255 255 255 1 0.4039564
0.059124 0.162782 -0.059114 0.8852763 0.2897941 -0.3637381 255 255 255 255 0.7865535 0.6426273
0.083417 0.162782 1.1e-05 0.8852763 0.2897941 -0.3637381 255 255 255 255 0.9042931 0.6426273
0.015648 0.248128 -0.016316 -0.102027 0.98177 -0.160369 255 255 255 255 0.5758404 0.9795544
0 0.249167 -0 -0.102027 0.98177 -0.160369 255 255 255 255 0.5 0.9836561
0.022419 0.251356 -0.000862 -0.102027 0.98177 -0.160369 255 255 255 255 0.6086571 0.9922978
0 0.249167 -0 -0.10198 0.9817976 -0.1602299 255 255 255 255 0.5 0.9836561
-0.016132 0.245028 -0.015094 -0.10198 0.9817976 -0.1602299 255 255 255 255 0.4218138 0.9673163
-0.022419 0.246979 0.000862 -0.10198 0.9817976 -0.1602299 255 255 255 255 0.3913429 0.9750184
-0.103164 0.102325 -9.5e-05 -0.8852751 0.289785 -0.363748 255 255 255 255 0 0.4039564
-0.059124 0.162782 -0.059114 -0.8852751 0.289785 -0.363748 255 255 255 255 0.2134466 0.6426273
-0.07312 0.102325 -0.073215 -0.8852751 0.289785 -0.363748 255 255 255 255 0.1456128 0.4039564
0 0.102325 0.10307 0.370581 -0.221886 0.9019071 255 255 255 255 0.5 0.4039564
0.055203 0 0.055214 0.370581 -0.221886 0.9019071 255 255 255 255 0.7675498 0
0.07312 0.102325 0.073026 0.370581 -0.221886 0.9019071 255 255 255 255 0.8543872 0.4039564
0.077885 0 1.1e-05 0.9017988 -0.222404 0.3705339 255 255 255 255 0.8774815 0
0.07312 0.102325 0.073026 0.9017988 -0.222404 0.3705339 255 255 255 255 0.8543872 0.4039564
0.055203 0 0.055214 0.9017988 -0.222404 0.3705339 255 255 255 255 0.7675498 0
0.103164 0.102325 -9.5e-05 0.9016449 -0.223127 -0.370474 255 255 255 255 1 0.4039564
0.055203 -0 -0.055193 0.9016449 -0.223127 -0.370474 255 255 255 255 0.7675498 0
0.07312 0.102325 -0.073215 0.9016449 -0.223127 -0.370474 255 255 255 255 0.8543872 0.4039564
0.055203 -0 -0.055193 0.370418 -0.223644 -0.9015398 255 255 255 255 0.7675498 0
0 0.102325 -0.103258 0.370418 -0.223644 -0.9015398 255 255 255 255 0.5 0.4039564
0.07312 0.102325 -0.073215 0.370418 -0.223644 -0.9015398 255 255 255 255 0.8543872 0.4039564
0 0.102325 -0.103258 -0.370418 -0.223644 -0.9015398 255 255 255 255 0.5 0.4039564
-0.055203 -0 -0.055193 -0.370418 -0.223644 -0.9015398 255 255 255 255 0.2324503 -0
-0.07312 0.102325 -0.073215 -0.370418 -0.223644 -0.9015398 255 255 255 255 0.1456128 0.4039564
-0.055203 -0 -0.055193 -0.9016449 -0.223127 -0.370474 255 255 255 255 0.2324503 -0
-0.103164 0.102325 -9.5e-05 -0.9016449 -0.223127 -0.370474 255 255 255 255 0 0.4039564
-0.07312 0.102325 -0.073215 -0.9016449 -0.223127 -0.370474 255 255 255 255 0.1456128 0.4039564
-0.07312 0.102325 0.073026 -0.9017988 -0.222404 0.3705339 255 255 255 255 0.1456128 0.4039564
-0.077885 0 1.1e-05 -0.9017988 -0.222404 0.3705339 255 255 255 255 0.1225185 0
-0.055203 0 0.055214 -0.9017988 -0.222404 0.3705339 255 255 255 255 0.2324503 0
0 0.102325 0.10307 -0.3705789 -0.2218869 0.9019077 255 255 255 255 0.5 0.4039564
-0.055203 0 0.055214 -0.3705789 -0.2218869 0.9019077 255 255 255 255 0.2324503 0
0 0 0.077896 -0.3705789 -0.2218869 0.9019077 255 255 255 255 0.5 0
-0.083417 0.162782 1.1e-05 -0.2867382 0.9507375 0.1178111 255 255 255 255 0.09570685 0.6426273
-0.030151 0.175112 0.030151 -0.2867382 0.9507375 0.1178111 255 255 255 255 0.3538686 0.6913034
-0.042539 0.175112 -0 -0.2867382 0.9507375 0.1178111 255 255 255 255 0.2938283 0.6913034
0 0.162782 0.083428 -0.117806 0.9507488 0.286703 255 255 255 255 0.5 0.6426273
-0.030151 0.175112 0.030151 -0.117806 0.9507488 0.286703 255 255 255 255 0.3538686 0.6913034
-0.059124 0.162782 0.059134 -0.117806 0.9507488 0.286703 255 255 255 255 0.2134466 0.6426273
0 0.162782 0.083428 0.117794 0.950752 0.286697 255 255 255 255 0.5 0.6426273
0.030151 0.175112 0.030151 0.117794 0.950752 0.286697 255 255 255 255 0.6461314 0.6913034
0 0.175112 0.042539 0.117794 0.950752 0.286697 255 255 255 255 0.5 0.6913034
0.083417 0.162782 1.1e-05 0.286743 0.950735 0.117819 255 255 255 255 0.9042931 0.6426273
0.030151 0.175112 0.030151 0.286743 0.950735 0.117819 255 255 255 255 0.6461314 0.6913034
0.059124 0.162782 0.059134 0.286743 0.950735 0.117819 255 255 255 255 0.7865535 0.6426273
0 0.162782 -0.083406 0.117851 0.9507028 -0.286837 255 255 255 255 0.5 0.6426273
0.030151 0.175112 -0.030151 0.117851 0.9507028 -0.286837 255 255 255 255 0.6461314 0.6913034
0.059124 0.162782 -0.059114 0.117851 0.9507028 -0.286837 255 255 255 255 0.7865535 0.6426273
0.083417 0.162782 1.1e-05 0.2867961 0.9507172 -0.117834 255 255 255 255 0.9042931 0.6426273
0.030151 0.175112 -0.030151 0.2867961 0.9507172 -0.117834 255 255 255 255 0.6461314 0.6913034
0.042539 0.175112 -0 0.2867961 0.9507172 -0.117834 255 255 255 255 0.7061718 0.6913034
0 0.162782 -0.083406 -0.117851 0.9507028 -0.286837 255 255 255 255 0.5 0.6426273
-0.030151 0.175112 -0.030151 -0.117851 0.9507028 -0.286837 255 255 255 255 0.3538686 0.6913034
0 0.175112 -0.042539 -0.117851 0.9507028 -0.286837 255 255 255 255 0.5 0.6913034
-0.083417 0.162782 1.1e-05 -0.286798 0.9507161 -0.117838 255 255 255 255 0.09570685 0.6426273
-0.030151 0.175112 -0.030151 -0.286798 0.9507161 -0.117838 255 255 255 255 0.3538686 0.6913034
-0.059124 0.162782 -0.059114 -0.286798 0.9507161 -0.117838 255 255 255 255 0.2134466 0.6426273
-0.042539 0.175112 -0 -0.6143894 0.7475284 0.2524422 255 255 255 255 0.2938283 0.6913034
-0.014133 0.193686 0.014133 -0.6143894 0.7475284 0.2524422 255 255 255 255 0.4315023 0.7646294
-0.01994 0.193686 -0 -0.6143894 0.7475284 0.2524422 255 255 255 255 0.4033577 0.7646294
0 0.175112 0.042539 -0.2524299 0.7475338 0.6143879 255 255 255 255 0.5 0.6913034
-0.014133 0.193686 0.014133 -0.2524299 0.7475338 0.6143879 255 255 255 255 0.4315023 0.7646294
-0.030151 0.175112 0.030151 -0.2524299 0.7475338 0.6143879 255 255 255 255 0.3538686 0.6913034
0 0.175112 0.042539 0.252442 0.747528 0.61439 255 255 255 255 0.5 0.6913034
0.014133 0.193686 0.014133 0.252442 0.747528 0.61439 255 255 255 255 0.5684977 0.7646294
0 0.193686 0.01994 0.252442 0.747528 0.61439 255 255 255 255 0.5 0.7646294
0.042539 0.175112 -0 0.6143877 0.7475336 0.2524309 255 255 255 255 0.7061718 0.6913034
0.014133 0.193686 0.014133 0.6143877 0.7475336 0.2524309 255 255 255 255 0.5684977 0.7646294
0.030151 0.175112 0.030151 0.6143877 0.7475336 0.2524309 255 255 255 255 0.6461314 0.6913034
0 0.175112 -0.042539 0.2524309 0.7475336 -0.6143877 255 255 255 255 0.5 0.6913034
0.014133 0.193686 -0.014133 0.2524309 0.7475336 -0.6143877 255 255 255 255 0.5684977 0.7646294
0.030151 0.175112 -0.030151 0.2524309 0.7475336 -0.6143877 255 255 255 255 0.6461314 0.6913034
0.042539 0.175112 -0 0.61439 0.747528 -0.252442 255 255 255 255 0.7061718 0.6913034
0.014133 0.193686 -0.014133 0.61439 0.747528 -0.252442 255 255 255 255 0.5684977 0.7646294
0.01994 0.193686 -0 0.61439 0.747528 -0.252442 255 255 255 255 0.5966423 0.7646294
0 0.175112 -0.042539 -0.252442 0.747528 -0.61439 255 255 255 255 0.5 0.6913034
-0.014133 0.193686 -0.014133 -0.252442 0.747528 -0.61439 255 255 255 255 0.4315023 0.7646294
0 0.193686 -0.01994 -0.252442 0.747528 -0.61439 255 255 255 255 0.5 0.7646294
-0.042539 0.175112 -0 -0.6143877 0.7475336 -0.2524309 255 255 255 255 0.2938283 0.6913034
-0.014133 0.193686 -0.014133 -0.6143877 0.7475336 -0.2524309 255 255 255 255 0.4315023 0.7646294
-0.030151 0.175112 -0.030151 -0.6143877 0.7475336 -0.2524309 255 255 255 255 0.3538686 0.6913034
-0.014133 0.193686 0.014133 -0.921563 -0.08569 0.378654 255 255 255 255 0.4315023 0.7646294
-0.021358 0.208936 -0 -0.921563 -0.08569 0.378654 255 255 255 255 0.3964852 0.8248331
-0.01994 0.193686 -0 -0.921563 -0.08569 0.378654 255 255 255 255 0.4033577 0.7646294
-0.014133 0.193686 0.014133 -0.3786571 -0.08568601 0.9215621 255 255 255 255 0.4315023 0.7646294
0 0.208936 0.021358 -0.3786571 -0.08568601 0.9215621 255 255 255 255 0.5 0.8248331
-0.015138 0.208936 0.015138 -0.3786571 -0.08568601 0.9215621 255 255 255 255 0.4266314 0.8248331
0.014133 0.193686 0.014133 0.378654 -0.08569 0.921563 255 255 255 255 0.5684977 0.7646294
0 0.208936 0.021358 0.378654 -0.08569 0.921563 255 255 255 255 0.5 0.8248331
0 0.193686 0.01994 0.378654 -0.08569 0.921563 255 255 255 255 0.5 0.7646294
0.014133 0.193686 0.014133 0.9215621 -0.08568601 0.3786571 255 255 255 255 0.5684977 0.7646294
0.021358 0.208936 -0 0.9215621 -0.08568601 0.3786571 255 255 255 255 0.6035148 0.8248331
0.015138 0.208936 0.015138 0.9215621 -0.08568601 0.3786571 255 255 255 255 0.5733686 0.8248331
0.014133 0.193686 -0.014133 0.378657 -0.085687 -0.9215621 255 255 255 255 0.5684977 0.7646294
0 0.208936 -0.021358 0.378657 -0.085687 -0.9215621 255 255 255 255 0.5 0.8248331
0.015138 0.208936 -0.015138 0.378657 -0.085687 -0.9215621 255 255 255 255 0.5733686 0.8248331
0.014133 0.193686 -0.014133 0.921563 -0.08569 -0.378654 255 255 255 255 0.5684977 0.7646294
0.021358 0.208936 -0 0.921563 -0.08569 -0.378654 255 255 255 255 0.6035148 0.8248331
0.01994 0.193686 -0 0.921563 -0.08569 -0.378654 255 255 255 255 0.5966423 0.7646294
-0.014133 0.193686 -0.014133 -0.378654 -0.08569 -0.921563 255 255 255 255 0.4315023 0.7646294
0 0.208936 -0.021358 -0.378654 -0.08569 -0.921563 255 255 255 255 0.5 0.8248331
0 0.193686 -0.01994 -0.378654 -0.08569 -0.921563 255 255 255 255 0.5 0.7646294
-0.014133 0.193686 -0.014133 -0.9215621 -0.085687 -0.378657 255 255 255 255 0.4315023 0.7646294
-0.021358 0.208936 -0 -0.9215621 -0.085687 -0.378657 255 255 255 255 0.3964852 0.8248331
-0.015138 0.208936 -0.015138 -0.9215621 -0.085687 -0.378657 255 255 255 255 0.4266314 0.8248331
-0.015138 0.208936 0.015138 0 -1 0 255 255 255 255 0.4266314 0.8248331
-0.028059 0.208936 -0 0 -1 0 255 255 255 255 0.3640078 0.8248331
-0.021358 0.208936 -0 0 -1 0 255 255 255 255 0.3964852 0.8248331
0 0.208936 0.028059 0 -1 -0 255 255 255 255 0.5 0.8248331
-0.019888 0.208936 0.019888 0 -1 -0 255 255 255 255 0.4036098 0.8248331
0.015138 0.208936 0.015138 0 -1 0 255 255 255 255 0.5733686 0.8248331
0 0.208936 0.021358 0 -1 0 255 255 255 255 0.5 0.8248331
0.028059 0.208936 -0 -0 -1 -0 255 255 255 255 0.6359922 0.8248331
0.019888 0.208936 0.019888 -0 -1 -0 255 255 255 255 0.5963902 0.8248331
0.015138 0.208936 -0.015138 -0 -1 0 255 255 255 255 0.5733686 0.8248331
0 0.208936 -0.028059 -0 -1 0 255 255 255 255 0.5 0.8248331
0.019888 0.208936 -0.019888 -0 -1 0 255 255 255 255 0.5963902 0.8248331
0.021358 0.208936 -0 0 -1 -0 255 255 255 255 0.6035148 0.8248331
-0.015138 0.208936 -0.015138 -0 -1 -0 255 255 255 255 0.4266314 0.8248331
0 0.208936 -0.021358 -0 -1 -0 255 255 255 255 0.5 0.8248331
-0.019888 0.208936 -0.019888 0 -1 0 255 255 255 255 0.4036098 0.8248331
-0.019888 0.208936 0.019888 -0.9249755 0 0.3800268 255 255 255 255 0.4036098 0.8248331
-0.028059 0.230393 -0 -0.9249755 0 0.3800268 255 255 255 255 0.3640078 0.9095406
-0.028059 0.208936 -0 -0.9249755 0 0.3800268 255 255 255 255 0.3640078 0.8248331
0 0.208936 0.028059 -0.3800268 0 0.9249755 255 255 255 255 0.5 0.8248331
-0.019888 0.230393 0.019888 -0.3800268 0 0.9249755 255 255 255 255 0.4036098 0.9095406
-0.019888 0.208936 0.019888 -0.3800268 0 0.9249755 255 255 255 255 0.4036098 0.8248331
0.019888 0.208936 0.019888 0.3800268 0 0.9249755 255 255 255 255 0.5963902 0.8248331
0 0.230393 0.028059 0.3800268 0 0.9249755 255 255 255 255 0.5 0.9095406
0 0.208936 0.028059 0.3800268 0 0.9249755 255 255 255 255 0.5 0.8248331
0.028059 0.208936 -0 0.9249755 0 0.3800268 255 255 255 255 0.6359922 0.8248331
0.019888 0.230393 0.019888 0.9249755 0 0.3800268 255 255 255 255 0.5963902 0.9095406
0.019888 0.208936 0.019888 0.9249755 0 0.3800268 255 255 255 255 0.5963902 0.8248331
0 0.208936 -0.028059 0.3800268 -0 -0.9249755 255 255 255 255 0.5 0.8248331
0.019888 0.230393 -0.019888 0.3800268 -0 -0.9249755 255 255 255 255 0.5963902 0.9095406
0.019888 0.208936 -0.019888 0.3800268 -0 -0.9249755 255 255 255 255 0.5963902 0.8248331
0.019888 0.208936 -0.019888 0.9249755 -0 -0.3800268 255 255 255 255 0.5963902 0.8248331
0.028059 0.230393 -0 0.9249755 -0 -0.3800268 255 255 255 255 0.6359922 0.9095406
0.028059 0.208936 -0 0.9249755 -0 -0.3800268 255 255 255 255 0.6359922 0.8248331
-0.019888 0.208936 -0.019888 -0.3800268 -0 -0.9249755 255 255 255 255 0.4036098 0.8248331
0 0.230393 -0.028059 -0.3800268 -0 -0.9249755 255 255 255 255 0.5 0.9095406
0 0.208936 -0.028059 -0.3800268 -0 -0.9249755 255 255 255 255 0.5 0.8248331
-0.028059 0.208936 -0 -0.9249755 -0 -0.3800268 255 255 255 255 0.3640078 0.8248331
-0.019888 0.230393 -0.019888 -0.9249755 -0 -0.3800268 255 255 255 255 0.4036098 0.9095406
-0.019888 0.208936 -0.019888 -0.9249755 -0 -0.3800268 255 255 255 255 0.4036098 0.8248331
-0.028059 0.230393 -0 0 1 -0 255 255 255 255 0.3640078 0.9095406
-0.013218 0.230393 0.013218 0 1 -0 255 255 255 255 0.435937 0.9095406
-0.018649 0.230393 -0 0 1 -0 255 255 255 255 0.4096148 0.9095406
0 0.230393 0.028059 -0 1 0 255 255 255 255 0.5 0.9095406
-0.019888 0.230393 0.019888 -0 1 0 255 255 255 255 0.4036098 0.9095406
0.013218 0.230393 0.013218 -0 1 -0 255 255 255 255 0.5640631 0.9095406
0 0.230393 0.018649 -0 1 -0 255 255 255 255 0.5 0.9095406
0.028059 0.230393 -0 0 1 0 255 255 255 255 0.6359922 0.9095406
0.019888 0.230393 0.019888 0 1 0 255 255 255 255 0.5963902 0.9095406
0 0.230393 -0.028059 0 1 0 255 255 255 255 0.5 0.9095406
0.013218 0.230393 -0.013218 0 1 0 255 255 255 255 0.5640631 0.9095406
0.019888 0.230393 -0.019888 0 1 0 255 255 255 255 0.5963902 0.9095406
0.018649 0.230393 -0 -0 1 0 255 255 255 255 0.5903852 0.9095406
-0.013218 0.230393 -0.013218 0 1 0 255 255 255 255 0.435937 0.9095406
0 0.230393 -0.018649 0 1 0 255 255 255 255 0.5 0.9095406
-0.019888 0.230393 -0.019888 0 1 -0 255 255 255 255 0.4036098 0.9095406
-0.013218 0.230393 0.013218 -0.9014313 -0.2241451 0.3703791 255 255 255 255 0.435937 0.9095406
-0.022419 0.246979 0.000862 -0.9014313 -0.2241451 0.3703791 255 255 255 255 0.3913429 0.9750184
-0.018649 0.230393 -0 -0.9014313 -0.2241451 0.3703791 255 255 255 255 0.4096148 0.9095406
0 0.230393 0.018649 -0.373283 -0.187865 0.9084969 255 255 255 255 0.5 0.9095406
-0.015648 0.250203 0.016316 -0.373283 -0.187865 0.9084969 255 255 255 255 0.4241596 0.9877461
-0.013218 0.230393 0.013218 -0.373283 -0.187865 0.9084969 255 255 255 255 0.435937 0.9095406
0.013218 0.230393 0.013218 0.3758171 -0.148826 0.9146652 255 255 255 255 0.5640631 0.9095406
0.000341 0.25282 0.022158 0.3758171 -0.148826 0.9146652 255 255 255 255 0.5016527 0.9980773
0 0.230393 0.018649 0.3758171 -0.148826 0.9146652 255 255 255 255 0.5 0.9095406
0.013218 0.230393 0.013218 0.913979 -0.147189 0.378124 255 255 255 255 0.5640631 0.9095406
0.022419 0.251356 -0.000862 0.913979 -0.147189 0.378124 255 255 255 255 0.6086571 0.9922978
0.016132 0.253307 0.015094 0.913979 -0.147189 0.378124 255 255 255 255 0.5781862 1
0.013218 0.230393 -0.013218 0.365539 -0.208546 -0.9071328 255 255 255 255 0.5640631 0.9095406
-0.000341 0.245514 -0.022158 0.365539 -0.208546 -0.9071328 255 255 255 255 0.4983473 0.9692349
0.015648 0.248128 -0.016316 0.365539 -0.208546 -0.9071328 255 255 255 255 0.5758404 0.9795544
0.018649 0.230393 -0 0.9143113 -0.1793621 -0.3631311 255 255 255 255 0.5903852 0.9095406
0.015648 0.248128 -0.016316 0.9143113 -0.1793621 -0.3631311 255 255 255 255 0.5758404 0.9795544
0.022419 0.251356 -0.000862 0.9143113 -0.1793621 -0.3631311 255 255 255 255 0.6086571 0.9922978
-0.013218 0.230393 -0.013218 -0.370921 -0.217858 -0.9027489 255 255 255 255 0.435937 0.9095406
-0.000341 0.245514 -0.022158 -0.370921 -0.217858 -0.9027489 255 255 255 255 0.4983473 0.9692349
0 0.230393 -0.018649 -0.370921 -0.217858 -0.9027489 255 255 255 255 0.5 0.9095406
-0.018649 0.230393 -0 -0.9008589 -0.226819 -0.370144 255 255 255 255 0.4096148 0.9095406
-0.016132 0.245028 -0.015094 -0.9008589 -0.226819 -0.370144 255 255 255 255 0.4218138 0.9673163
-0.013218 0.230393 -0.013218 -0.9008589 -0.226819 -0.370144 255 255 255 255 0.435937 0.9095406
0 0.102325 -0.103258 -0.3636418 0.2906128 -0.8850474 255 255 255 255 0.5 0.4039564
-0.07312 0.102325 -0.073215 -0.3636418 0.2906128 -0.8850474 255 255 255 255 0.1456128 0.4039564
-0.059124 0.162782 -0.059114 -0.3636418 0.2906128 -0.8850474 255 255 255 255 0.2134466 0.6426273
0 0.249167 -0 -0.101978 0.9818116 -0.1601449 255 255 255 255 0.5 0.9836561
-0.022419 0.246979 0.000862 -0.101978 0.9818116 -0.1601449 255 255 255 255 0.3913429 0.9750184
-0.015648 0.250203 0.016316 -0.101978 0.9818116 -0.1601449 255 255 255 255 0.4241596 0.9877461
0 0.102325 0.10307 -0.3639849 0.287798 0.8858258 255 255 255 255 0.5 0.4039564
0 0.162782 0.083428 -0.3639849 0.287798 0.8858258 255 255 255 255 0.5 0.6426273
-0.059124 0.162782 0.059134 -0.3639849 0.287798 0.8858258 255 255 255 255 0.2134466 0.6426273
0 0 0.077896 0 -1 0 255 255 255 255 0.5 0
-0.083417 0.162782 1.1e-05 -0.8856013 0.2886251 0.3638761 255 255 255 255 0.09570685 0.6426273
-0.103164 0.102325 -9.5e-05 -0.8856013 0.2886251 0.3638761 255 255 255 255 0 0.4039564
-0.07312 0.102325 0.073026 -0.8856013 0.2886251 0.3638761 255 255 255 255 0.1456128 0.4039564
0.07312 0.102325 0.073026 0.8856013 0.2886251 0.3638761 255 255 255 255 0.8543872 0.4039564
0.103164 0.102325 -9.5e-05 0.8856013 0.2886251 0.3638761 255 255 255 255 1 0.4039564
0.083417 0.162782 1.1e-05 0.8856013 0.2886251 0.3638761 255 255 255 255 0.9042931 0.6426273
0 0.102325 -0.103258 0.3636359 0.290619 -0.8850478 255 255 255 255 0.5 0.4039564
0 0.162782 -0.083406 0.3636359 0.290619 -0.8850478 255 255 255 255 0.5 0.6426273
0.059124 0.162782 -0.059114 0.3636359 0.290619 -0.8850478 255 255 255 255 0.7865535 0.6426273
0.059124 0.162782 0.059134 0.3639849 0.287798 0.8858258 255 255 255 255 0.7865535 0.6426273
0 0.162782 0.083428 0.3639849 0.287798 0.8858258 255 255 255 255 0.5 0.6426273
0 0.102325 0.10307 0.3639849 0.287798 0.8858258 255 255 255 255 0.5 0.4039564
0 0.249167 -0 -0.1019849 0.9817874 -0.1602889 255 255 255 255 0.5 0.9836561
0.000341 0.25282 0.022158 -0.1019849 0.9817874 -0.1602889 255 255 255 255 0.5016527 0.9980773
0.016132 0.253307 0.015094 -0.1019849 0.9817874 -0.1602889 255 255 255 255 0.5781862 1
0.103164 0.102325 -9.5e-05 0.8852751 0.289785 -0.363748 255 255 255 255 1 0.4039564
0.07312 0.102325 -0.073215 0.8852751 0.289785 -0.363748 255 255 255 255 0.8543872 0.4039564
0.059124 0.162782 -0.059114 0.8852751 0.289785 -0.363748 255 255 255 255 0.7865535 0.6426273
0.015648 0.248128 -0.016316 -0.1019441 0.9817915 -0.1602901 255 255 255 255 0.5758404 0.9795544
-0.000341 0.245514 -0.022158 -0.1019441 0.9817915 -0.1602901 255 255 255 255 0.4983473 0.9692349
0 0.249167 -0 -0.1019441 0.9817915 -0.1602901 255 255 255 255 0.5 0.9836561
0 0.249167 -0 -0.101922 0.9817936 -0.1602909 255 255 255 255 0.5 0.9836561
-0.000341 0.245514 -0.022158 -0.101922 0.9817936 -0.1602909 255 255 255 255 0.4983473 0.9692349
-0.016132 0.245028 -0.015094 -0.101922 0.9817936 -0.1602909 255 255 255 255 0.4218138 0.9673163
-0.103164 0.102325 -9.5e-05 -0.8852763 0.2897941 -0.3637381 255 255 255 255 0 0.4039564
-0.083417 0.162782 1.1e-05 -0.8852763 0.2897941 -0.3637381 255 255 255 255 0.09570685 0.6426273
-0.059124 0.162782 -0.059114 -0.8852763 0.2897941 -0.3637381 255 255 255 255 0.2134466 0.6426273
0 0.102325 0.10307 0.3705789 -0.2218869 0.9019077 255 255 255 255 0.5 0.4039564
0 0 0.077896 0.3705789 -0.2218869 0.9019077 255 255 255 255 0.5 0
0.055203 0 0.055214 0.3705789 -0.2218869 0.9019077 255 255 255 255 0.7675498 0
0.077885 0 1.1e-05 0.9018 -0.222402 0.370532 255 255 255 255 0.8774815 0
0.103164 0.102325 -9.5e-05 0.9018 -0.222402 0.370532 255 255 255 255 1 0.4039564
0.07312 0.102325 0.073026 0.9018 -0.222402 0.370532 255 255 255 255 0.8543872 0.4039564
0.103164 0.102325 -9.5e-05 0.9016473 -0.2231321 -0.3704651 255 255 255 255 1 0.4039564
0.077885 0 1.1e-05 0.9016473 -0.2231321 -0.3704651 255 255 255 255 0.8774815 0
0.055203 -0 -0.055193 0.9016473 -0.2231321 -0.3704651 255 255 255 255 0.7675498 0
0.055203 -0 -0.055193 0.3704121 -0.223648 -0.9015412 255 255 255 255 0.7675498 0
0 -0 -0.077874 0.3704121 -0.223648 -0.9015412 255 255 255 255 0.5 0
0 0.102325 -0.103258 0.3704121 -0.223648 -0.9015412 255 255 255 255 0.5 0.4039564
0 0.102325 -0.103258 -0.3704121 -0.223648 -0.9015412 255 255 255 255 0.5 0.4039564
0 -0 -0.077874 -0.3704121 -0.223648 -0.9015412 255 255 255 255 0.5 0
-0.055203 -0 -0.055193 -0.3704121 -0.223648 -0.9015412 255 255 255 255 0.2324503 -0
-0.055203 -0 -0.055193 -0.9016473 -0.2231321 -0.3704651 255 255 255 255 0.2324503 -0
-0.077885 0 1.1e-05 -0.9016473 -0.2231321 -0.3704651 255 255 255 255 0.1225185 0
-0.103164 0.102325 -9.5e-05 -0.9016473 -0.2231321 -0.3704651 255 255 255 255 0 0.4039564
-0.07312 0.102325 0.073026 -0.9018 -0.222402 0.370532 255 255 255 255 0.1456128 0.4039564
-0.103164 0.102325 -9.5e-05 -0.9018 -0.222402 0.370532 255 255 255 255 0 0.4039564
-0.077885 0 1.1e-05 -0.9018 -0.222402 0.370532 255 255 255 255 0.1225185 0
0 0.102325 0.10307 -0.370581 -0.221886 0.9019071 255 255 255 255 0.5 0.4039564
-0.07312 0.102325 0.073026 -0.370581 -0.221886 0.9019071 255 255 255 255 0.1456128 0.4039564
-0.055203 0 0.055214 -0.370581 -0.221886 0.9019071 255 255 255 255 0.2324503 0
-0.083417 0.162782 1.1e-05 -0.286743 0.950735 0.117819 255 255 255 255 0.09570685 0.6426273
-0.059124 0.162782 0.059134 -0.286743 0.950735 0.117819 255 255 255 255 0.2134466 0.6426273
-0.030151 0.175112 0.030151 -0.286743 0.950735 0.117819 255 255 255 255 0.3538686 0.6913034
0 0.162782 0.083428 -0.117794 0.950752 0.286697 255 255 255 255 0.5 0.6426273
0 0.175112 0.042539 -0.117794 0.950752 0.286697 255 255 255 255 0.5 0.6913034
-0.030151 0.175112 0.030151 -0.117794 0.950752 0.286697 255 255 255 255 0.3538686 0.6913034
0 0.162782 0.083428 0.117806 0.9507488 0.286703 255 255 255 255 0.5 0.6426273
0.059124 0.162782 0.059134 0.117806 0.9507488 0.286703 255 255 255 255 0.7865535 0.6426273
0.030151 0.175112 0.030151 0.117806 0.9507488 0.286703 255 255 255 255 0.6461314 0.6913034
0.083417 0.162782 1.1e-05 0.2867382 0.9507375 0.1178111 255 255 255 255 0.9042931 0.6426273
0.042539 0.175112 -0 0.2867382 0.9507375 0.1178111 255 255 255 255 0.7061718 0.6913034
0.030151 0.175112 0.030151 0.2867382 0.9507375 0.1178111 255 255 255 255 0.6461314 0.6913034
0 0.175112 -0.042539 0.117851 0.9507028 -0.286837 255 255 255 255 0.5 0.6913034
0.083417 0.162782 1.1e-05 0.286798 0.9507161 -0.117838 255 255 255 255 0.9042931 0.6426273
0.059124 0.162782 -0.059114 0.286798 0.9507161 -0.117838 255 255 255 255 0.7865535 0.6426273
0.030151 0.175112 -0.030151 0.286798 0.9507161 -0.117838 255 255 255 255 0.6461314 0.6913034
-0.059124 0.162782 -0.059114 -0.117851 0.9507028 -0.286837 255 255 255 255 0.2134466 0.6426273
-0.083417 0.162782 1.1e-05 -0.2867961 0.9507172 -0.117834 255 255 255 255 0.09570685 0.6426273
-0.042539 0.175112 -0 -0.2867961 0.9507172 -0.117834 255 255 255 255 0.2938283 0.6913034
-0.030151 0.175112 -0.030151 -0.2867961 0.9507172 -0.117834 255 255 255 255 0.3538686 0.6913034
-0.042539 0.175112 -0 -0.6143877 0.7475336 0.2524309 255 255 255 255 0.2938283 0.6913034
-0.030151 0.175112 0.030151 -0.6143877 0.7475336 0.2524309 255 255 255 255 0.3538686 0.6913034
-0.014133 0.193686 0.014133 -0.6143877 0.7475336 0.2524309 255 255 255 255 0.4315023 0.7646294
0 0.175112 0.042539 -0.252442 0.747528 0.61439 255 255 255 255 0.5 0.6913034
0 0.193686 0.01994 -0.252442 0.747528 0.61439 255 255 255 255 0.5 0.7646294
-0.014133 0.193686 0.014133 -0.252442 0.747528 0.61439 255 255 255 255 0.4315023 0.7646294
0 0.175112 0.042539 0.2524299 0.7475338 0.6143879 255 255 255 255 0.5 0.6913034
0.030151 0.175112 0.030151 0.2524299 0.7475338 0.6143879 255 255 255 255 0.6461314 0.6913034
0.014133 0.193686 0.014133 0.2524299 0.7475338 0.6143879 255 255 255 255 0.5684977 0.7646294
0.042539 0.175112 -0 0.61439 0.747528 0.252442 255 255 255 255 0.7061718 0.6913034
0.01994 0.193686 -0 0.61439 0.747528 0.252442 255 255 255 255 0.5966423 0.7646294
0.014133 0.193686 0.014133 0.61439 0.747528 0.252442 255 255 255 255 0.5684977 0.7646294
0 0.175112 -0.042539 0.252442 0.747528 -0.61439 255 255 255 255 0.5 0.6913034
0 0.193686 -0.01994 0.252442 0.747528 -0.61439 255 255 255 255 0.5 0.7646294
0.014133 0.193686 -0.014133 0.252442 0.747528 -0.61439 255 255 255 255 0.5684977 0.7646294
0.042539 0.175112 -0 0.6143877 0.7475336 -0.2524309 255 255 255 255 0.7061718 0.6913034
0.030151 0.175112 -0.030151 0.6143877 0.7475336 -0.2524309 255 255 255 255 0.6461314 0.6913034
0.014133 0.193686 -0.014133 0.6143877 0.7475336 -0.2524309 255 255 255 255 0.5684977 0.7646294
0 0.175112 -0.042539 -0.2524309 0.7475336 -0.6143877 255 255 255 255 0.5 0.6913034
-0.030151 0.175112 -0.030151 -0.2524309 0.7475336 -0.6143877 255 255 255 255 0.3538686 0.6913034
-0.014133 0.193686 -0.014133 -0.2524309 0.7475336 -0.6143877 255 255 255 255 0.4315023 0.7646294
-0.042539 0.175112 -0 -0.61439 0.747528 -0.252442 255 255 255 255 0.2938283 0.6913034
-0.01994 0.193686 -0 -0.61439 0.747528 -0.252442 255 255 255 255 0.4033577 0.7646294
-0.014133 0.193686 -0.014133 -0.61439 0.747528 -0.252442 255 255 255 255 0.4315023 0.7646294
-0.014133 0.193686 0.014133 -0.9215621 -0.08568601 0.3786571 255 255 255 255 0.4315023 0.7646294
-0.015138 0.208936 0.015138 -0.9215621 -0.08568601 0.3786571 255 255 255 255 0.4266314 0.8248331
-0.021358 0.208936 -0 -0.9215621 -0.08568601 0.3786571 255 255 255 255 0.3964852 0.8248331
-0.014133 0.193686 0.014133 -0.378654 -0.08569 0.921563 255 255 255 255 0.4315023 0.7646294
0 0.193686 0.01994 -0.378654 -0.08569 0.921563 255 255 255 255 0.5 0.7646294
0 0.208936 0.021358 -0.378654 -0.08569 0.921563 255 255 255 255 0.5 0.8248331
0.014133 0.193686 0.014133 0.3786571 -0.08568601 0.9215621 255 255 255 255 0.5684977 0.7646294
0.015138 0.208936 0.015138 0.3786571 -0.08568601 0.9215621 255 255 255 255 0.5733686 0.8248331
0 0.208936 0.021358 0.3786571 -0.08568601 0.9215621 255 255 255 255 0.5 0.8248331
0.014133 0.193686 0.014133 0.921563 -0.08569 0.378654 255 255 255 255 0.5684977 0.7646294
0.01994 0.193686 -0 0.921563 -0.08569 0.378654 255 255 255 255 0.5966423 0.7646294
0.021358 0.208936 -0 0.921563 -0.08569 0.378654 255 255 255 255 0.6035148 0.8248331
0.014133 0.193686 -0.014133 0.378654 -0.08569 -0.921563 255 255 255 255 0.5684977 0.7646294
0 0.193686 -0.01994 0.378654 -0.08569 -0.921563 255 255 255 255 0.5 0.7646294
0 0.208936 -0.021358 0.378654 -0.08569 -0.921563 255 255 255 255 0.5 0.8248331
0.014133 0.193686 -0.014133 0.9215621 -0.085687 -0.378657 255 255 255 255 0.5684977 0.7646294
0.015138 0.208936 -0.015138 0.9215621 -0.085687 -0.378657 255 255 255 255 0.5733686 0.8248331
0.021358 0.208936 -0 0.9215621 -0.085687 -0.378657 255 255 255 255 0.6035148 0.8248331
-0.014133 0.193686 -0.014133 -0.378657 -0.085687 -0.9215621 255 255 255 255 0.4315023 0.7646294
-0.015138 0.208936 -0.015138 -0.378657 -0.085687 -0.9215621 255 255 255 255 0.4266314 0.8248331
0 0.208936 -0.021358 -0.378657 -0.085687 -0.9215621 255 255 255 255 0.5 0.8248331
-0.014133 0.193686 -0.014133 -0.921563 -0.08569 -0.378654 255 255 255 255 0.4315023 0.7646294
-0.01994 0.193686 -0 -0.921563 -0.08569 -0.378654 255 255 255 255 0.4033577 0.7646294
-0.021358 0.208936 -0 -0.921563 -0.08569 -0.378654 255 255 255 255 0.3964852 0.8248331
-0.019888 0.230393 0.019888 -0.9249755 0 0.3800268 255 255 255 255 0.4036098 0.9095406
0 0.230393 0.028059 -0.3800268 0 0.9249755 255 255 255 255 0.5 0.9095406
0.019888 0.230393 0.019888 0.3800268 0 0.9249755 255 255 255 255 0.5963902 0.9095406
0.028059 0.230393 -0 0.9249755 0 0.3800268 255 255 255 255 0.6359922 0.9095406
0 0.230393 -0.028059 0.3800268 -0 -0.9249755 255 255 255 255 0.5 0.9095406
0.019888 0.230393 -0.019888 0.9249755 -0 -0.3800268 255 255 255 255 0.5963902 0.9095406
-0.019888 0.230393 -0.019888 -0.3800268 -0 -0.9249755 255 255 255 255 0.4036098 0.9095406
-0.028059 0.230393 -0 -0.9249755 -0 -0.3800268 255 255 255 255 0.3640078 0.9095406
-0.013218 0.230393 0.013218 -0.8877576 -0.1754491 0.4255633 255 255 255 255 0.435937 0.9095406
-0.015648 0.250203 0.016316 -0.8877576 -0.1754491 0.4255633 255 255 255 255 0.4241596 0.9877461
-0.022419 0.246979 0.000862 -0.8877576 -0.1754491 0.4255633 255 255 255 255 0.3913429 0.9750184
0 0.230393 0.018649 -0.319168 -0.141759 0.9370359 255 255 255 255 0.5 0.9095406
0.000341 0.25282 0.022158 -0.319168 -0.141759 0.9370359 255 255 255 255 0.5016527 0.9980773
-0.015648 0.250203 0.016316 -0.319168 -0.141759 0.9370359 255 255 255 255 0.4241596 0.9877461
0.013218 0.230393 0.013218 0.4083299 -0.125948 0.9041039 255 255 255 255 0.5640631 0.9095406
0.016132 0.253307 0.015094 0.4083299 -0.125948 0.9041039 255 255 255 255 0.5781862 1
0.000341 0.25282 0.022158 0.4083299 -0.125948 0.9041039 255 255 255 255 0.5016527 0.9980773
0.013218 0.230393 0.013218 0.914636 -0.149036 0.375805 255 255 255 255 0.5640631 0.9095406
0.018649 0.230393 -0 0.914636 -0.149036 0.375805 255 255 255 255 0.5903852 0.9095406
0.022419 0.251356 -0.000862 0.914636 -0.149036 0.375805 255 255 255 255 0.6086571 0.9922978
0.013218 0.230393 -0.013218 0.3722278 -0.2018369 -0.9059296 255 255 255 255 0.5640631 0.9095406
0 0.230393 -0.018649 0.3722278 -0.2018369 -0.9059296 255 255 255 255 0.5 0.9095406
-0.000341 0.245514 -0.022158 0.3722278 -0.2018369 -0.9059296 255 255 255 255 0.4983473 0.9692349
0.018649 0.230393 -0 0.908185 -0.189621 -0.373154 255 255 255 255 0.5903852 0.9095406
0.013218 0.230393 -0.013218 0.908185 -0.189621 -0.373154 255 255 255 255 0.5640631 0.9095406
0.015648 0.248128 -0.016316 0.908185 -0.189621 -0.373154 255 255 255 255 0.5758404 0.9795544
-0.013218 0.230393 -0.013218 -0.3956239 -0.193849 -0.8977218 255 255 255 255 0.435937 0.9095406
-0.016132 0.245028 -0.015094 -0.3956239 -0.193849 -0.8977218 255 255 255 255 0.4218138 0.9673163
-0.000341 0.245514 -0.022158 -0.3956239 -0.193849 -0.8977218 255 255 255 255 0.4983473 0.9692349
-0.018649 0.230393 -0 -0.9208991 -0.191681 -0.339416 255 255 255 255 0.4096148 0.9095406
-0.022419 0.246979 0.000862 -0.9208991 -0.191681 -0.339416 255 255 255 255 0.3913429 0.9750184
-0.016132 0.245028 -0.015094 -0.9208991 -0.191681 -0.339416 255 255 255 255 0.4218138 0.9673163
3 0 1 2 
3 3 4 5 
3 6 7 8 
3 9 10 11 
3 12 13 14 
3 15 16 17 
3 18 19 20 
3 21 9 22 
3 23 24 25 
3 26 27 28 
3 9 29 30 
3 9 31 22 
3 32 33 34 
3 35 36 37 
3 38 39 40 
3 41 42 43 
3 44 45 46 
3 47 48 49 
3 50 51 52 
3 53 54 55 
3 56 57 58 
3 59 60 61 
3 62 63 64 
3 65 66 67 
3 68 69 70 
3 71 72 73 
3 74 75 76 
3 77 78 79 
3 80 81 82 
3 83 84 85 
3 86 87 88 
3 89 90 91 
3 92 93 94 
3 95 96 97 
3 98 99 100 
3 101 102 103 
3 104 105 106 
3 107 108 109 
3 110 111 112 
3 113 114 115 
3 116 117 118 
3 119 120 121 
3 122 123 124 
3 125 126 127 
3 128 129 130 
3 131 132 133 
3 134 135 136 
3 137 138 139 
3 140 141 142 
3 140 143 144 
3 145 143 146 
3 145 147 148 
3 149 150 151 
3 149 147 152 
3 153 150 154 
3 153 141 155 
3 156 157 158 
3 159 160 161 
3 162 163 164 
3 165 166 167 
3 168 169 170 
3 171 172 173 
3 174 175 176 
3 177 178 179 
3 180 181 182 
3 183 181 184 
3 183 185 186 
3 187 185 188 
3 189 190 191 
3 187 190 192 
3 189 193 194 
3 180 193 195 
3 196 197 198 
3 199 200 201 
3 202 203 204 
3 205 206 207 
3 208 209 210 
3 211 212 213 
3 214 215 216 
3 217 218 219 
3 220 221 222 
3 223 224 225 
3 226 227 228 
3 9 229 10 
3 230 231 232 
3 233 234 235 
3 236 237 238 
3 21 229 9 
3 239 240 241 
3 242 243 244 
3 9 11 29 
3 9 30 31 
3 245 246 247 
3 248 249 250 
3 251 252 253 
3 254 255 256 
3 257 258 259 
3 260 261 262 
3 263 264 265 
3 266 267 268 
3 269 270 271 
3 272 273 274 
3 275 276 277 
3 278 279 280 
3 281 282 283 
3 284 285 286 
3 287 288 289 
3 290 291 292 
3 80 293 81 
3 294 295 296 
3 86 297 87 
3 298 299 300 
3 301 302 303 
3 304 305 306 
3 307 308 309 
3 310 311 312 
3 313 314 315 
3 316 317 318 
3 319 320 321 
3 322 323 324 
3 325 326 327 
3 328 329 330 
3 331 332 333 
3 334 335 336 
3 337 338 339 
3 340 341 342 
3 343 344 345 
3 346 347 348 
3 140 144 141 
3 140 146 143 
3 145 148 143 
3 145 152 147 
3 149 154 150 
3 149 151 147 
3 153 155 150 
3 153 142 141 
3 156 349 157 
3 159 350 160 
3 162 351 163 
3 165 352 166 
3 168 353 169 
3 171 354 172 
3 174 355 175 
3 177 356 178 
3 180 184 181 
3 183 186 181 
3 183 188 185 
3 187 192 185 
3 189 194 190 
3 187 191 190 
3 189 195 193 
3 180 182 193 
3 357 358 359 
3 360 361 362 
3 363 364 365 
3 366 367 368 
3 369 370 371 
3 372 373 374 
3 375 376 377 
3 378 379 380 
