ply
format ascii 1.0
comment VCGLIB generated
element vertex 483
property float x
property float y
property float z
property float nx
property float ny
property float nz
property uchar red
property uchar green
property uchar blue
property uchar alpha
property float texture_u
property float texture_v
element face 248
property list uchar int vertex_indices
end_header
-1.91186 7.7864 -31.5741 0 -0.5000002 -0.8660253 255 255 255 255 0.4225353 0.4305342
1.91186 24.843 -41.4217 0 -0.5000002 -0.8660253 255 255 255 255 0.5774647 0.6479619
1.91186 7.7864 -31.5741 0 -0.5000002 -0.8660253 255 255 255 255 0.5774647 0.4305342
-1.91186 40.1192 -53.8299 0 0.7802138 -0.6255128 255 255 255 255 0.4225353 0.8426942
1.91186 41.2958 -52.3623 0 0.7802138 -0.6255128 255 255 255 255 0.5774647 0.8576928
1.91186 40.1192 -53.8299 0 0.7802138 -0.6255128 255 255 255 255 0.5774647 0.8426942
-1.91186 25.7809 -39.7973 0 0.5000002 0.8660253 255 255 255 255 0.4225353 0.6599177
1.91186 8.72424 -29.9497 0 0.5000002 0.8660253 255 255 255 255 0.5774647 0.4424892
1.91186 25.7809 -39.7973 0 0.5000002 0.8660253 255 255 255 255 0.5774647 0.6599177
-1.91186 8.72424 -29.9497 0 -0.8660249 0.500001 255 255 255 255 0.4225353 0.4424892
1.91186 7.7864 -31.5741 0 -0.8660249 0.500001 255 255 255 255 0.5774647 0.4305342
1.91186 8.72424 -29.9497 0 -0.8660249 0.500001 255 255 255 255 0.5774647 0.4424892
-1.91186 8.72424 -29.9497 -1 0 0 255 255 255 255 0.4225353 0.4424892
-1.91186 24.843 -41.4217 -1 0 0 255 255 255 255 0.4225353 0.6479619
-1.91186 7.7864 -31.5741 -1 0 0 255 255 255 255 0.4225353 0.4305342
1.91186 7.7864 -31.5741 1 0 0 255 255 255 255 0.5774647 0.4305342
1.91186 25.7809 -39.7973 1 0 0 255 255 255 255 0.5774647 0.6599177
1.91186 8.72424 -29.9497 1 0 0 255 255 255 255 0.5774647 0.4424892
-1.91186 24.843 -41.4217 0 -0.6304798 -0.7762057 255 255 255 255 0.4225353 0.6479619
1.91186 40.1192 -53.8299 0 -0.6304798 -0.7762057 255 255 255 255 0.5774647 0.8426942
1.91186 24.843 -41.4217 0 -0.6304798 -0.7762057 255 255 255 255 0.5774647 0.6479619
-1.91186 41.2958 -52.3623 -1 0 0 255 255 255 255 0.4225353 0.8576928
-1.91186 40.1192 -53.8299 -1 0 0 255 255 255 255 0.4225353 0.8426942
1.91186 25.7809 -39.7973 0 0.6293572 0.7771162 255 255 255 255 0.5774647 0.6599177
-1.91186 41.2958 -52.3623 0 0.6293572 0.7771162 255 255 255 255 0.4225353 0.8576928
-1.91186 25.7809 -39.7973 0 0.6293572 0.7771162 255 255 255 255 0.4225353 0.6599177
1.91186 24.843 -41.4217 1 0 0 255 255 255 255 0.5774647 0.6479619
1.91186 41.2958 -52.3623 1 0 0 255 255 255 255 0.5774647 0.8576928
9.14228 40.8789 -40.0193 -0.8631322 0.3198951 0.3907301 255 255 255 255 0.8704267 0.8523784
4.71125 39.3634 -48.5668 -0.8631322 0.3198951 0.3907301 255 255 255 255 0.6908904 0.8330596
4.57114 36.9201 -46.876 -0.8631322 0.3198951 0.3907301 255 255 255 255 0.6852134 0.8019139
4.57114 44.8376 -33.1626 -0.863132 -0.178434 -0.472403 255 255 255 255 0.6852134 0.9028416
9.42249 43.4434 -41.5 -0.863132 -0.178434 -0.472403 255 255 255 255 0.8817803 0.8850691
9.14228 40.8789 -40.0193 -0.863132 -0.178434 -0.472403 255 255 255 255 0.8704267 0.8523784
-4.71125 47.5235 -34.4331 0 -0.4275988 -0.9039686 255 255 255 255 0.3091097 0.9370799
4.57114 44.8376 -33.1626 0 -0.4275988 -0.9039686 255 255 255 255 0.6852134 0.9028416
-4.57114 44.8376 -33.1626 0 -0.4275988 -0.9039686 255 255 255 255 0.3147866 0.9028416
-9.42249 43.4434 -41.5 0.8631324 -0.1784341 -0.4724022 255 255 255 255 0.1182197 0.8850691
-4.57114 44.8376 -33.1626 0.8631324 -0.1784341 -0.4724022 255 255 255 255 0.3147866 0.9028416
-9.14228 40.8789 -40.0193 0.8631324 -0.1784341 -0.4724022 255 255 255 255 0.1295733 0.8523784
-4.57114 36.9201 -46.876 0.8631322 0.3198951 0.3907301 255 255 255 255 0.3147866 0.8019139
-9.42249 43.4434 -41.5 0.8631322 0.3198951 0.3907301 255 255 255 255 0.1182197 0.8850691
-9.14228 40.8789 -40.0193 0.8631322 0.3198951 0.3907301 255 255 255 255 0.1295733 0.8523784
4.71125 39.3634 -48.5668 0 0.5690606 0.8222955 255 255 255 255 0.6908904 0.8330596
-4.57114 36.9201 -46.876 0 0.5690606 0.8222955 255 255 255 255 0.3147866 0.8019139
4.57114 36.9201 -46.876 0 0.5690606 0.8222955 255 255 255 255 0.6852134 0.8019139
5.52806 36.0914 -48.3114 0.8618039 -0.334187 -0.3815929 255 255 255 255 0.7239858 0.7913501
11.395 43.4434 -41.5 0.8618039 -0.334187 -0.3815929 255 255 255 255 0.9617024 0.8850691
11.0561 40.8789 -40.0193 0.8618039 -0.334187 -0.3815929 255 255 255 255 0.9479709 0.8523784
11.0561 40.8789 -40.0193 0.8618038 0.163376 0.4802109 255 255 255 255 0.9479709 0.8523784
5.69748 48.3776 -32.9537 0.8618038 0.163376 0.4802109 255 255 255 255 0.7308505 0.9479675
5.52805 45.6663 -31.7272 0.8618038 0.163376 0.4802109 255 255 255 255 0.7239854 0.9134054
5.52805 45.6663 -31.7272 -0 0.4121569 0.9111129 255 255 255 255 0.7239854 0.9134054
-5.69749 48.3776 -32.9537 -0 0.4121569 0.9111129 255 255 255 255 0.2691492 0.9479675
-5.52805 45.6663 -31.7272 -0 0.4121569 0.9111129 255 255 255 255 0.2760146 0.9134054
-5.52805 45.6663 -31.7272 -0.8618038 0.163376 0.4802109 255 255 255 255 0.2760146 0.9134054
-11.395 43.4434 -41.5 -0.8618038 0.163376 0.4802109 255 255 255 255 0.03829759 0.8850691
-11.0561 40.8789 -40.0193 -0.8618038 0.163376 0.4802109 255 255 255 255 0.05202916 0.8523784
-11.0561 40.8789 -40.0193 -0.8618039 -0.334187 -0.3815929 255 255 255 255 0.05202916 0.8523784
-5.69748 38.5092 -50.0462 -0.8618039 -0.334187 -0.3815929 255 255 255 255 0.2691496 0.8221708
-5.52805 36.0914 -48.3114 -0.8618039 -0.334187 -0.3815929 255 255 255 255 0.2760146 0.7913501
-5.52805 36.0914 -48.3114 0 -0.5829681 -0.8124951 255 255 255 255 0.2760146 0.7913501
5.69749 38.5092 -50.0462 0 -0.5829681 -0.8124951 255 255 255 255 0.7308508 0.8221708
5.52806 36.0914 -48.3114 0 -0.5829681 -0.8124951 255 255 255 255 0.7239858 0.7913501
9.14228 40.8789 -40.0193 0 -0.8660253 0.5000002 255 255 255 255 0.8704267 0.8523784
5.52806 36.0914 -48.3114 0 -0.8660253 0.5000002 255 255 255 255 0.7239858 0.7913501
11.0561 40.8789 -40.0193 0 -0.8660253 0.5000002 255 255 255 255 0.9479709 0.8523784
5.69749 38.5092 -50.0462 -9.999995e-07 0.8660256 -0.4999998 255 255 255 255 0.7308508 0.8221708
9.42249 43.4434 -41.5 -9.999995e-07 0.8660256 -0.4999998 255 255 255 255 0.8817803 0.8850691
11.395 43.4434 -41.5 -9.999995e-07 0.8660256 -0.4999998 255 255 255 255 0.9617024 0.8850691
5.52805 45.6663 -31.7272 0 -0.8660249 0.500001 255 255 255 255 0.7239854 0.9134054
9.14228 40.8789 -40.0193 0 -0.8660249 0.500001 255 255 255 255 0.8704267 0.8523784
11.0561 40.8789 -40.0193 0 -0.8660249 0.500001 255 255 255 255 0.9479709 0.8523784
9.42249 43.4434 -41.5 -9.999999e-07 0.8660249 -0.500001 255 255 255 255 0.8817803 0.8850691
5.69748 48.3776 -32.9537 -9.999999e-07 0.8660249 -0.500001 255 255 255 255 0.7308505 0.9479675
11.395 43.4434 -41.5 -9.999999e-07 0.8660249 -0.500001 255 255 255 255 0.9617024 0.8850691
-5.52805 45.6663 -31.7272 0 -0.866026 0.499999 255 255 255 255 0.2760146 0.9134054
4.57114 44.8376 -33.1626 0 -0.866026 0.499999 255 255 255 255 0.6852134 0.9028416
5.52805 45.6663 -31.7272 0 -0.866026 0.499999 255 255 255 255 0.7239854 0.9134054
4.71125 47.5235 -34.4331 -0 0.8660249 -0.500001 255 255 255 255 0.6908904 0.9370799
-5.69749 48.3776 -32.9537 -0 0.8660249 -0.500001 255 255 255 255 0.2691492 0.9479675
5.69748 48.3776 -32.9537 -0 0.8660249 -0.500001 255 255 255 255 0.7308505 0.9479675
-9.14228 40.8789 -40.0193 0 -0.8660253 0.5000002 255 255 255 255 0.1295733 0.8523784
-5.52805 45.6663 -31.7272 0 -0.8660253 0.5000002 255 255 255 255 0.2760146 0.9134054
-11.0561 40.8789 -40.0193 0 -0.8660253 0.5000002 255 255 255 255 0.05202916 0.8523784
-5.69749 48.3776 -32.9537 0 0.8660253 -0.5000002 255 255 255 255 0.2691492 0.9479675
-9.42249 43.4434 -41.5 0 0.8660253 -0.5000002 255 255 255 255 0.1182197 0.8850691
-11.395 43.4434 -41.5 0 0.8660253 -0.5000002 255 255 255 255 0.03829759 0.8850691
-5.52805 36.0914 -48.3114 0 -0.8660253 0.5000002 255 255 255 255 0.2760146 0.7913501
-5.69748 38.5092 -50.0462 0 0.8660253 -0.5000002 255 255 255 255 0.2691496 0.8221708
5.52806 36.0914 -48.3114 0 -0.866026 0.499999 255 255 255 255 0.7239858 0.7913501
-4.57114 36.9201 -46.876 0 -0.866026 0.499999 255 255 255 255 0.3147866 0.8019139
-5.52805 36.0914 -48.3114 0 -0.866026 0.499999 255 255 255 255 0.2760146 0.7913501
-4.71124 39.3634 -48.5668 0 0.8660249 -0.500001 255 255 255 255 0.3091101 0.8330596
5.69749 38.5092 -50.0462 0 0.8660249 -0.500001 255 255 255 255 0.7308508 0.8221708
-5.69748 38.5092 -50.0462 0 0.8660249 -0.500001 255 255 255 255 0.2691496 0.8221708
9.23244 11.4467 -25.2343 1 0 0 255 255 255 255 0.8740798 0.4771936
9.23244 30.4152 -31.7705 1 0 0 255 255 255 255 0.8740798 0.7189931
9.23244 13.3586 -21.9228 1 0 0 255 255 255 255 0.8740798 0.5015654
12.3402 47.2452 -41.4873 0.151603 0.8560152 -0.4942211 255 255 255 255 1 0.9335324
10.4809 45.5804 -44.9413 0.151603 0.8560152 -0.4942211 255 255 255 255 0.9246649 0.9123104
10.4809 47.4922 -41.6299 0.151603 0.8560152 -0.4942211 255 255 255 255 0.9246649 0.9366809
7.35675 30.4152 -31.7705 -1 0 -0 255 255 255 255 0.7980807 0.7189931
7.35675 11.4467 -25.2343 -1 0 -0 255 255 255 255 0.7980807 0.4771936
7.35675 13.3586 -21.9228 -1 0 -0 255 255 255 255 0.7980807 0.5015654
7.35675 11.4467 -25.2343 0 -0.8660256 0.4999998 255 255 255 255 0.7980807 0.4771936
9.23244 13.3586 -21.9228 0 -0.8660256 0.4999998 255 255 255 255 0.8740798 0.5015654
7.35675 13.3586 -21.9228 0 -0.8660256 0.4999998 255 255 255 255 0.7980807 0.5015654
7.35675 11.4467 -25.2343 0 -0.5000002 -0.8660253 255 255 255 255 0.7980807 0.4771936
9.23244 28.5033 -35.0819 0 -0.5000002 -0.8660253 255 255 255 255 0.8740798 0.6946213
9.23244 11.4467 -25.2343 0 -0.5000002 -0.8660253 255 255 255 255 0.8740798 0.4771936
9.23244 13.3586 -21.9228 0 0.5000002 0.8660253 255 255 255 255 0.8740798 0.5015654
7.35675 30.4152 -31.7705 0 0.5000002 0.8660253 255 255 255 255 0.7980807 0.7189931
7.35675 13.3586 -21.9228 0 0.5000002 0.8660253 255 255 255 255 0.7980807 0.5015654
9.23244 30.4152 -31.7705 0.9874538 -0.136753 0.07895397 255 255 255 255 0.8740798 0.7189931
12.3402 45.3334 -44.7988 0.9874538 -0.136753 0.07895397 255 255 255 255 1 0.9091617
12.3402 47.2452 -41.4873 0.9874538 -0.136753 0.07895397 255 255 255 255 1 0.9335324
10.4809 45.5804 -44.9413 -0 -0.5000002 -0.8660253 255 255 255 255 0.9246649 0.9123104
12.3402 45.3334 -44.7988 -0 -0.5000002 -0.8660253 255 255 255 255 1 0.9091617
7.35675 30.4152 -31.7705 -0.9876811 0.135516 -0.07824001 255 255 255 255 0.7980807 0.7189931
10.4809 45.5804 -44.9413 -0.9876811 0.135516 -0.07824001 255 255 255 255 0.9246649 0.9123104
7.35675 28.5033 -35.0819 -0.9876811 0.135516 -0.07824001 255 255 255 255 0.7980807 0.6946213
9.23244 30.4152 -31.7705 0 0.5000002 0.8660253 255 255 255 255 0.8740798 0.7189931
10.4809 47.4922 -41.6299 0 0.5000002 0.8660253 255 255 255 255 0.9246649 0.9366809
1.91186 17.0188 -15.583 0 0.5000002 0.8660253 255 255 255 255 0.5774647 0.5482235
-1.91186 34.0755 -25.4307 0 0.5000002 0.8660253 255 255 255 255 0.4225353 0.7656525
-1.91186 17.0188 -15.583 0 0.5000002 0.8660253 255 255 255 255 0.4225353 0.5482235
1.91186 52.4594 -32.4561 0 0.9318169 -0.362929 255 255 255 255 0.5774647 1
-1.91186 51.7767 -34.2089 0 0.9318169 -0.362929 255 255 255 255 0.4225353 0.9912972
-1.91186 52.4594 -32.4561 0 0.9318169 -0.362929 255 255 255 255 0.4225353 1
1.91186 33.1376 -27.055 0 -0.5000002 -0.8660253 255 255 255 255 0.5774647 0.7536967
-1.91186 16.081 -17.2074 0 -0.5000002 -0.8660253 255 255 255 255 0.4225353 0.5362689
-1.91186 33.1376 -27.055 0 -0.5000002 -0.8660253 255 255 255 255 0.4225353 0.7536967
1.91186 16.081 -17.2074 0 -0.8660256 0.4999998 255 255 255 255 0.5774647 0.5362689
-1.91186 17.0188 -15.583 0 -0.8660256 0.4999998 255 255 255 255 0.4225353 0.5482235
-1.91186 16.081 -17.2074 0 -0.8660256 0.4999998 255 255 255 255 0.4225353 0.5362689
1.91186 17.0188 -15.583 1 0 0 255 255 255 255 0.5774647 0.5482235
1.91186 33.1376 -27.055 1 0 0 255 255 255 255 0.5774647 0.7536967
1.91186 34.0755 -25.4307 1 0 0 255 255 255 255 0.5774647 0.7656525
-1.91186 17.0188 -15.583 -1 0 0 255 255 255 255 0.4225353 0.5482235
-1.91186 33.1376 -27.055 -1 0 0 255 255 255 255 0.4225353 0.7536967
-1.91186 16.081 -17.2074 -1 0 0 255 255 255 255 0.4225353 0.5362689
1.91186 34.0755 -25.4307 0 0.3569741 0.9341143 255 255 255 255 0.5774647 0.7656525
-1.91186 52.4594 -32.4561 0 0.3569741 0.9341143 255 255 255 255 0.4225353 1
-1.91186 34.0755 -25.4307 0 0.3569741 0.9341143 255 255 255 255 0.4225353 0.7656525
1.91186 51.7767 -34.2089 1 0 0 255 255 255 255 0.5774647 0.9912972
1.91186 52.4594 -32.4561 1 0 0 255 255 255 255 0.5774647 1
-1.91186 33.1376 -27.055 0 -0.3583241 -0.9335973 255 255 255 255 0.4225353 0.7536967
1.91186 51.7767 -34.2089 0 -0.3583241 -0.9335973 255 255 255 255 0.5774647 0.9912972
1.91186 33.1376 -27.055 0 -0.3583241 -0.9335973 255 255 255 255 0.5774647 0.7536967
-1.91186 34.0755 -25.4307 -1 0 0 255 255 255 255 0.4225353 0.7656525
-1.91186 51.7767 -34.2089 -1 0 0 255 255 255 255 0.4225353 0.9912972
-3.192 1.47826 -21.9813 0 1 -0 255 255 255 255 0.3706666 0.3501216
6.38401 1.47826 -16.4526 0 1 -0 255 255 255 255 0.7586672 0.3501216
3.192 1.47826 -21.9813 0 1 -0 255 255 255 255 0.6293334 0.3501216
3.192 -1.35788 -21.9813 0.8660253 0 -0.5000002 255 255 255 255 0.6293334 0.3139681
6.38401 1.47826 -16.4526 0.8660253 0 -0.5000002 255 255 255 255 0.7586672 0.3501216
6.38401 -1.35787 -16.4526 0.8660253 0 -0.5000002 255 255 255 255 0.7586672 0.3139682
6.38401 -1.35787 -16.4526 0.8474089 -0 0.5309409 255 255 255 255 0.7586672 0.3139682
2.92001 1.47826 -10.9239 0.8474089 -0 0.5309409 255 255 255 255 0.6183129 0.3501216
2.92001 -1.35787 -10.9239 0.8474089 -0 0.5309409 255 255 255 255 0.6183129 0.3139682
2.92001 -1.35787 2.88034 0 0 1 255 255 255 255 0.6183129 0.3139682
-2.92002 1.47826 2.88034 0 0 1 255 255 255 255 0.3816867 0.3501216
-2.92002 -1.35787 2.88034 0 0 1 255 255 255 255 0.3816867 0.3139682
-2.92002 -1.35787 -10.9239 -0.8474089 0 0.5309409 255 255 255 255 0.3816867 0.3139682
-6.38401 1.47826 -16.4526 -0.8474089 0 0.5309409 255 255 255 255 0.2413328 0.3501216
-6.38401 -1.35787 -16.4526 -0.8474089 0 0.5309409 255 255 255 255 0.2413328 0.3139682
-6.38401 -1.35787 -16.4526 -0.8660253 0 -0.5000002 255 255 255 255 0.2413328 0.3139682
-3.192 1.47826 -21.9813 -0.8660253 0 -0.5000002 255 255 255 255 0.3706666 0.3501216
-3.192 -1.35788 -21.9813 -0.8660253 0 -0.5000002 255 255 255 255 0.3706666 0.3139681
-3.192 -1.35788 -21.9813 -0 0 -1 255 255 255 255 0.3706666 0.3139681
3.192 1.47826 -21.9813 -0 0 -1 255 255 255 255 0.6293334 0.3501216
3.192 -1.35788 -21.9813 -0 0 -1 255 255 255 255 0.6293334 0.3139681
-3.192 -1.35788 -21.9813 0 -1 0 255 255 255 255 0.3706666 0.3139681
6.38401 -1.35787 -16.4526 0 -1 0 255 255 255 255 0.7586672 0.3139682
-6.38401 -1.35787 -16.4526 0 -1 0 255 255 255 255 0.2413328 0.3139682
-2.92002 -1.35787 -10.9239 -0 -1 0 255 255 255 255 0.3816867 0.3139682
2.92001 -1.35787 -10.9239 -0 -1 0 255 255 255 255 0.6183129 0.3139682
-2.92002 1.47826 -10.9239 0 1 -0 255 255 255 255 0.3816867 0.3501216
2.92001 1.47826 -10.9239 0 1 -0 255 255 255 255 0.6183129 0.3501216
-2.92002 -1.35787 2.88034 -0 -1 0 255 255 255 255 0.3816867 0.3139682
2.92001 1.47826 -10.9239 1 -0 0 255 255 255 255 0.6183129 0.3501216
2.92001 -1.35787 2.88034 1 -0 0 255 255 255 255 0.6183129 0.3139682
2.92001 -1.35787 -10.9239 1 -0 0 255 255 255 255 0.6183129 0.3139682
2.92001 1.47826 2.88034 0 1 -0 255 255 255 255 0.6183129 0.3501216
-2.92002 -1.35787 -10.9239 -1 -0 0 255 255 255 255 0.3816867 0.3139682
-2.92002 1.47826 2.88034 -1 -0 0 255 255 255 255 0.3816867 0.3501216
-2.92002 1.47826 -10.9239 -1 -0 0 255 255 255 255 0.3816867 0.3501216
-9.23244 13.3586 -21.9228 -1 0 0 255 255 255 255 0.1259202 0.5015654
-9.23244 28.5033 -35.0819 -1 0 0 255 255 255 255 0.1259202 0.6946213
-9.23244 11.4467 -25.2343 -1 0 0 255 255 255 255 0.1259202 0.4771936
-12.3402 47.2452 -41.4873 -0.151603 0.8560152 -0.4942211 255 255 255 255 0 0.9335324
-10.4809 45.5804 -44.9413 -0.151603 0.8560152 -0.4942211 255 255 255 255 0.07533511 0.9123104
-12.3402 45.3334 -44.7988 -0.151603 0.8560152 -0.4942211 255 255 255 255 0 0.9091617
-7.35675 30.4152 -31.7705 1 -0 -0 255 255 255 255 0.2019193 0.7189931
-7.35675 11.4467 -25.2343 1 -0 -0 255 255 255 255 0.2019193 0.4771936
-7.35675 28.5033 -35.0819 1 -0 -0 255 255 255 255 0.2019193 0.6946213
-7.35675 13.3586 -21.9228 0 -0.8660256 0.4999998 255 255 255 255 0.2019193 0.5015654
-9.23244 11.4467 -25.2343 0 -0.8660256 0.4999998 255 255 255 255 0.1259202 0.4771936
-7.35675 11.4467 -25.2343 0 -0.8660256 0.4999998 255 255 255 255 0.2019193 0.4771936
-7.35675 13.3586 -21.9228 0 0.5000002 0.8660253 255 255 255 255 0.2019193 0.5015654
-9.23244 30.4152 -31.7705 0 0.5000002 0.8660253 255 255 255 255 0.1259202 0.7189931
-9.23244 13.3586 -21.9228 0 0.5000002 0.8660253 255 255 255 255 0.1259202 0.5015654
-9.23244 11.4467 -25.2343 0 -0.5000002 -0.8660253 255 255 255 255 0.1259202 0.4771936
-7.35675 28.5033 -35.0819 0 -0.5000002 -0.8660253 255 255 255 255 0.2019193 0.6946213
-7.35675 11.4467 -25.2343 0 -0.5000002 -0.8660253 255 255 255 255 0.2019193 0.4771936
-9.23244 30.4152 -31.7705 -0.9874538 -0.136753 0.07895397 255 255 255 255 0.1259202 0.7189931
-12.3402 45.3334 -44.7988 -0.9874538 -0.136753 0.07895397 255 255 255 255 0 0.9091617
-9.23244 28.5033 -35.0819 -0.9874538 -0.136753 0.07895397 255 255 255 255 0.1259202 0.6946213
-10.4809 47.4922 -41.6299 -0 0.5000002 0.8660253 255 255 255 255 0.07533511 0.9366809
-12.3402 47.2452 -41.4873 -0 0.5000002 0.8660253 255 255 255 255 0 0.9335324
-7.35675 28.5033 -35.0819 0.9876811 0.135516 -0.07824001 255 255 255 255 0.2019193 0.6946213
-10.4809 47.4922 -41.6299 0.9876811 0.135516 -0.07824001 255 255 255 255 0.07533511 0.9366809
-7.35675 30.4152 -31.7705 0.9876811 0.135516 -0.07824001 255 255 255 255 0.2019193 0.7189931
-9.23244 28.5033 -35.0819 0 -0.5000002 -0.8660253 255 255 255 255 0.1259202 0.6946213
-10.4809 45.5804 -44.9413 0 -0.5000002 -0.8660253 255 255 255 255 0.07533511 0.9123104
6.64733 29.0576 -33.1943 -0.8660252 0.2500001 0.4330131 255 255 255 255 0.7693363 0.7016872
3.32367 23.6147 -36.6992 -0.8660252 0.2500001 0.4330131 255 255 255 255 0.6346684 0.6323043
6.64733 26.4931 -31.7137 -0.8660252 0.2500001 0.4330131 255 255 255 255 0.7693363 0.6689965
3.32367 29.3714 -26.7282 -0.8660252 -0.2500001 -0.4330131 255 255 255 255 0.6346684 0.7056873
6.64733 29.0576 -33.1943 -0.8660252 -0.2500001 -0.4330131 255 255 255 255 0.7693363 0.7016872
6.64733 26.4931 -31.7137 -0.8660252 -0.2500001 -0.4330131 255 255 255 255 0.7693363 0.6689965
-3.32367 31.936 -28.2088 0 -0.5000002 -0.8660253 255 255 255 255 0.3653316 0.7383794
3.32367 29.3714 -26.7282 0 -0.5000002 -0.8660253 255 255 255 255 0.6346684 0.7056873
-3.32367 29.3714 -26.7282 0 -0.5000002 -0.8660253 255 255 255 255 0.3653316 0.7056873
-6.64733 26.4931 -31.7137 0.8660252 -0.2500001 -0.4330131 255 255 255 255 0.2306636 0.6689965
-3.32367 31.936 -28.2088 0.8660252 -0.2500001 -0.4330131 255 255 255 255 0.3653316 0.7383794
-3.32367 29.3714 -26.7282 0.8660252 -0.2500001 -0.4330131 255 255 255 255 0.3653316 0.7056873
-3.32366 23.6147 -36.6992 0.8660252 0.2500001 0.4330131 255 255 255 255 0.365332 0.6323043
-6.64733 29.0576 -33.1943 0.8660252 0.2500001 0.4330131 255 255 255 255 0.2306636 0.7016872
-6.64733 26.4931 -31.7137 0.8660252 0.2500001 0.4330131 255 255 255 255 0.2306636 0.6689965
3.32367 26.1792 -38.1798 0 0.500001 0.8660249 255 255 255 255 0.6346684 0.664995
-3.32366 23.6147 -36.6992 0 0.500001 0.8660249 255 255 255 255 0.365332 0.6323043
3.32367 23.6147 -36.6992 0 0.500001 0.8660249 255 255 255 255 0.6346684 0.6323043
4.24743 22.8147 -38.0848 0.8660252 -0.2500001 -0.4330131 255 255 255 255 0.6720973 0.6221063
8.49485 29.0576 -33.1943 0.8660252 -0.2500001 -0.4330131 255 255 255 255 0.8441942 0.7016872
8.49485 26.4931 -31.7137 0.8660252 -0.2500001 -0.4330131 255 255 255 255 0.8441942 0.6689965
8.49485 26.4931 -31.7137 0.8660252 0.2500001 0.4330131 255 255 255 255 0.8441942 0.6689965
4.24743 32.736 -26.8232 0.8660252 0.2500001 0.4330131 255 255 255 255 0.6720973 0.7485774
4.24743 30.1714 -25.3425 0.8660252 0.2500001 0.4330131 255 255 255 255 0.6720973 0.7158853
4.24743 30.1714 -25.3425 0 0.500001 0.8660249 255 255 255 255 0.6720973 0.7158853
-4.24743 32.736 -26.8232 0 0.500001 0.8660249 255 255 255 255 0.3279027 0.7485774
-4.24743 30.1714 -25.3425 0 0.500001 0.8660249 255 255 255 255 0.3279027 0.7158853
-8.49485 26.4931 -31.7137 -0.8660252 0.2500001 0.4330131 255 255 255 255 0.1558058 0.6689965
-4.24743 32.736 -26.8232 -0.8660252 0.2500001 0.4330131 255 255 255 255 0.3279027 0.7485774
-8.49485 29.0576 -33.1943 -0.8660252 0.2500001 0.4330131 255 255 255 255 0.1558058 0.7016872
-8.49485 26.4931 -31.7137 -0.8660252 -0.2500001 -0.4330131 255 255 255 255 0.1558058 0.6689965
-4.24743 25.3792 -39.5654 -0.8660252 -0.2500001 -0.4330131 255 255 255 255 0.3279027 0.6547971
-4.24743 22.8147 -38.0848 -0.8660252 -0.2500001 -0.4330131 255 255 255 255 0.3279027 0.6221063
-4.24743 22.8147 -38.0848 0 -0.5000002 -0.8660253 255 255 255 255 0.3279027 0.6221063
4.24743 25.3792 -39.5654 0 -0.5000002 -0.8660253 255 255 255 255 0.6720973 0.6547971
4.24743 22.8147 -38.0848 0 -0.5000002 -0.8660253 255 255 255 255 0.6720973 0.6221063
8.49485 26.4931 -31.7137 0 -0.8660253 0.5000002 255 255 255 255 0.8441942 0.6689965
3.32367 23.6147 -36.6992 0 -0.8660253 0.5000002 255 255 255 255 0.6346684 0.6323043
4.24743 22.8147 -38.0848 0 -0.8660253 0.5000002 255 255 255 255 0.6720973 0.6221063
3.32367 26.1792 -38.1798 -0 0.8660253 -0.5000002 255 255 255 255 0.6346684 0.664995
8.49485 29.0576 -33.1943 -0 0.8660253 -0.5000002 255 255 255 255 0.8441942 0.7016872
4.24743 25.3792 -39.5654 -0 0.8660253 -0.5000002 255 255 255 255 0.6720973 0.6547971
4.24743 30.1714 -25.3425 0 -0.8660253 0.5000002 255 255 255 255 0.6720973 0.7158853
6.64733 26.4931 -31.7137 0 -0.8660253 0.5000002 255 255 255 255 0.7693363 0.6689965
6.64733 29.0576 -33.1943 -1e-06 0.8660253 -0.5000002 255 255 255 255 0.7693363 0.7016872
4.24743 32.736 -26.8232 -1e-06 0.8660253 -0.5000002 255 255 255 255 0.6720973 0.7485774
8.49485 29.0576 -33.1943 -1e-06 0.8660253 -0.5000002 255 255 255 255 0.8441942 0.7016872
-4.24743 30.1714 -25.3425 0 -0.8660253 0.5000002 255 255 255 255 0.3279027 0.7158853
3.32367 29.3714 -26.7282 0 -0.8660253 0.5000002 255 255 255 255 0.6346684 0.7056873
3.32367 31.936 -28.2088 0 0.8660256 -0.4999998 255 255 255 255 0.6346684 0.7383794
-4.24743 32.736 -26.8232 0 0.8660256 -0.4999998 255 255 255 255 0.3279027 0.7485774
4.24743 32.736 -26.8232 0 0.8660256 -0.4999998 255 255 255 255 0.6720973 0.7485774
-6.64733 26.4931 -31.7137 0 -0.8660253 0.5000002 255 255 255 255 0.2306636 0.6689965
-8.49485 26.4931 -31.7137 0 -0.8660253 0.5000002 255 255 255 255 0.1558058 0.6689965
-4.24743 32.736 -26.8232 -9.999995e-07 0.8660256 -0.4999998 255 255 255 255 0.3279027 0.7485774
-6.64733 29.0576 -33.1943 -9.999995e-07 0.8660256 -0.4999998 255 255 255 255 0.2306636 0.7016872
-8.49485 29.0576 -33.1943 -9.999995e-07 0.8660256 -0.4999998 255 255 255 255 0.1558058 0.7016872
-4.24743 22.8147 -38.0848 0 -0.8660256 0.4999998 255 255 255 255 0.3279027 0.6221063
-6.64733 26.4931 -31.7137 0 -0.8660256 0.4999998 255 255 255 255 0.2306636 0.6689965
-8.49485 26.4931 -31.7137 0 -0.8660256 0.4999998 255 255 255 255 0.1558058 0.6689965
-6.64733 29.0576 -33.1943 -1e-06 0.8660253 -0.5000002 255 255 255 255 0.2306636 0.7016872
-4.24743 25.3792 -39.5654 -1e-06 0.8660253 -0.5000002 255 255 255 255 0.3279027 0.6547971
-8.49485 29.0576 -33.1943 -1e-06 0.8660253 -0.5000002 255 255 255 255 0.1558058 0.7016872
-4.24743 22.8147 -38.0848 0 -0.8660253 0.5000002 255 255 255 255 0.3279027 0.6221063
-3.32366 26.1792 -38.1798 0 0.8660253 -0.5000002 255 255 255 255 0.365332 0.664995
-4.24743 25.3792 -39.5654 0 0.8660253 -0.5000002 255 255 255 255 0.3279027 0.6547971
-1.70414 -25.9878 -4.82208 0 -0.5000002 -0.8660253 255 255 255 255 0.4309517 0
1.70414 12.1796 -26.8581 0 -0.5000002 -0.8660253 255 255 255 255 0.5690483 0.4865361
1.70414 -25.9878 -4.82208 0 -0.5000002 -0.8660253 255 255 255 255 0.5690483 0
-3.40828 -24.512 -2.26587 -0.8660252 -0.2500001 -0.4330131 255 255 255 255 0.3619034 0.01881267
-1.70414 12.1796 -26.8581 -0.8660252 -0.2500001 -0.4330131 255 255 255 255 0.4309517 0.4865361
-1.70414 -25.9878 -4.82208 -0.8660252 -0.2500001 -0.4330131 255 255 255 255 0.4309517 0
-1.70414 -23.0362 0.290341 -0.8660252 0.2500001 0.4330131 255 255 255 255 0.4309517 0.03762532
-3.40828 13.6555 -24.3019 -0.8660252 0.2500001 0.4330131 255 255 255 255 0.3619034 0.5053501
-3.40828 -24.512 -2.26587 -0.8660252 0.2500001 0.4330131 255 255 255 255 0.3619034 0.01881267
1.70414 -23.0362 0.290341 0 0.5000002 0.8660253 255 255 255 255 0.5690483 0.03762532
-1.70414 15.1313 -21.7457 0 0.5000002 0.8660253 255 255 255 255 0.4309517 0.5241628
-1.70414 -23.0362 0.290341 0 0.5000002 0.8660253 255 255 255 255 0.4309517 0.03762532
3.40828 -24.512 -2.26587 0.8660252 0.2500001 0.4330131 255 255 255 255 0.6380966 0.01881267
1.70414 15.1313 -21.7457 0.8660252 0.2500001 0.4330131 255 255 255 255 0.5690483 0.5241628
1.70414 -23.0362 0.290341 0.8660252 0.2500001 0.4330131 255 255 255 255 0.5690483 0.03762532
1.70414 -25.9878 -4.82208 0.8660258 -0.2499999 -0.4330119 255 255 255 255 0.5690483 0
3.40828 13.6555 -24.3019 0.8660258 -0.2499999 -0.4330119 255 255 255 255 0.6380966 0.5053501
3.40828 -24.512 -2.26587 0.8660258 -0.2499999 -0.4330119 255 255 255 255 0.6380966 0.01881267
1.70414 -23.0362 0.290341 0 -0.8660253 0.5000002 255 255 255 255 0.5690483 0.03762532
-1.70414 -23.0362 0.290341 0 -0.8660253 0.5000002 255 255 255 255 0.4309517 0.03762532
-1.70414 -25.9878 -4.82208 0 -0.8660253 0.5000002 255 255 255 255 0.4309517 0
-4.24743 13.2454 -32.5599 0 0.8660253 -0.5000002 255 255 255 255 0.3279027 0.5001224
8.49485 16.9237 -26.1888 0 0.8660253 -0.5000002 255 255 255 255 0.8441942 0.5470112
4.24743 13.2454 -32.5599 0 0.8660253 -0.5000002 255 255 255 255 0.6720973 0.5001224
8.49485 13.6555 -24.3019 0.8660254 -0.2499999 -0.4330127 255 255 255 255 0.8441942 0.5053501
4.24743 13.2454 -32.5599 0.8660254 -0.2499999 -0.4330127 255 255 255 255 0.6720973 0.5001224
8.49485 16.9237 -26.1888 0.8660254 -0.2499999 -0.4330127 255 255 255 255 0.8441942 0.5470112
4.24743 17.3338 -17.9307 0.8660252 0.2500001 0.4330131 255 255 255 255 0.6720973 0.5522389
8.49485 16.9237 -26.1888 0.8660252 0.2500001 0.4330131 255 255 255 255 0.8441942 0.5470112
4.24743 20.6021 -19.8177 0.8660252 0.2500001 0.4330131 255 255 255 255 0.6720973 0.5939013
4.24743 17.3338 -17.9307 -0 0.5000002 0.8660253 255 255 255 255 0.6720973 0.5522389
-4.24743 20.6021 -19.8177 -0 0.5000002 0.8660253 255 255 255 255 0.3279027 0.5939013
-4.24743 17.3338 -17.9307 -0 0.5000002 0.8660253 255 255 255 255 0.3279027 0.5522389
-4.24743 17.3338 -17.9307 -0.8660252 0.2500001 0.4330131 255 255 255 255 0.3279027 0.5522389
-8.49485 16.9237 -26.1888 -0.8660252 0.2500001 0.4330131 255 255 255 255 0.1558058 0.5470112
-8.49485 13.6555 -24.3019 -0.8660252 0.2500001 0.4330131 255 255 255 255 0.1558058 0.5053501
-8.49485 13.6555 -24.3019 -0.8660252 -0.2500001 -0.4330131 255 255 255 255 0.1558058 0.5053501
-4.24743 13.2454 -32.5599 -0.8660252 -0.2500001 -0.4330131 255 255 255 255 0.3279027 0.5001224
-4.24743 9.97708 -30.673 -0.8660252 -0.2500001 -0.4330131 255 255 255 255 0.3279027 0.4584597
-4.24743 9.97708 -30.673 0 -0.5000002 -0.8660253 255 255 255 255 0.3279027 0.4584597
4.24743 13.2454 -32.5599 0 -0.5000002 -0.8660253 255 255 255 255 0.6720973 0.5001224
4.24743 9.97708 -30.673 0 -0.5000002 -0.8660253 255 255 255 255 0.6720973 0.4584597
3.40828 13.6555 -24.3019 0 -0.8660253 0.5000002 255 255 255 255 0.6380966 0.5053501
4.24743 9.97708 -30.673 0 -0.8660253 0.5000002 255 255 255 255 0.6720973 0.4584597
8.49485 13.6555 -24.3019 0 -0.8660253 0.5000002 255 255 255 255 0.8441942 0.5053501
4.24743 17.3338 -17.9307 -0 -0.8660253 0.5000002 255 255 255 255 0.6720973 0.5522389
1.70414 15.1313 -21.7457 -0 -0.8660253 0.5000002 255 255 255 255 0.5690483 0.5241628
-1.70414 15.1313 -21.7457 0 -0.8660253 0.5000002 255 255 255 255 0.4309517 0.5241628
-4.24743 17.3338 -17.9307 0 -0.8660253 0.5000002 255 255 255 255 0.3279027 0.5522389
-3.40828 13.6555 -24.3019 0 -0.8660253 0.5000002 255 255 255 255 0.3619034 0.5053501
-8.49485 13.6555 -24.3019 0 -0.8660253 0.5000002 255 255 255 255 0.1558058 0.5053501
-4.24743 9.97708 -30.673 -0 -0.8660253 0.5000002 255 255 255 255 0.3279027 0.4584597
-1.70414 12.1796 -26.8581 -0 -0.8660253 0.5000002 255 255 255 255 0.4309517 0.4865361
1.70414 12.1796 -26.8581 0 -0.8660253 0.5000002 255 255 255 255 0.5690483 0.4865361
-4.24743 20.6021 -19.8177 -0 0.8660253 -0.5000002 255 255 255 255 0.3279027 0.5939013
4.24743 20.6021 -19.8177 -0 0.8660253 -0.5000002 255 255 255 255 0.6720973 0.5939013
-1.91186 24.843 -41.4217 -0 -0.5000002 -0.8660253 255 255 255 255 0.4225353 0.6479619
-1.91186 41.2958 -52.3623 0 0.7802138 -0.6255128 255 255 255 255 0.4225353 0.8576928
-1.91186 8.72424 -29.9497 0 0.5000002 0.8660253 255 255 255 255 0.4225353 0.4424892
-1.91186 7.7864 -31.5741 0 -0.8660249 0.500001 255 255 255 255 0.4225353 0.4305342
-1.91186 25.7809 -39.7973 -1 0 0 255 255 255 255 0.4225353 0.6599177
-1.91186 40.1192 -53.8299 -0 -0.6304798 -0.7762057 255 255 255 255 0.4225353 0.8426942
1.91186 41.2958 -52.3623 -0 0.6293572 0.7771162 255 255 255 255 0.5774647 0.8576928
1.91186 40.1192 -53.8299 1 0 0 255 255 255 255 0.5774647 0.8426942
9.42249 43.4434 -41.5 -0.8631322 0.3198951 0.3907301 255 255 255 255 0.8817803 0.8850691
4.71125 47.5235 -34.4331 -0.863132 -0.178434 -0.472403 255 255 255 255 0.6908904 0.9370799
-4.71125 47.5235 -34.4331 0 -0.427598 -0.903969 255 255 255 255 0.3091097 0.9370799
4.71125 47.5235 -34.4331 0 -0.427598 -0.903969 255 255 255 255 0.6908904 0.9370799
4.57114 44.8376 -33.1626 0 -0.427598 -0.903969 255 255 255 255 0.6852134 0.9028416
-4.71125 47.5235 -34.4331 0.8631324 -0.1784341 -0.4724022 255 255 255 255 0.3091097 0.9370799
-4.57114 36.9201 -46.876 0.8631319 0.319896 0.3907299 255 255 255 255 0.3147866 0.8019139
-4.71124 39.3634 -48.5668 0.8631319 0.319896 0.3907299 255 255 255 255 0.3091101 0.8330596
-9.42249 43.4434 -41.5 0.8631319 0.319896 0.3907299 255 255 255 255 0.1182197 0.8850691
-4.71124 39.3634 -48.5668 -0 0.5690606 0.8222955 255 255 255 255 0.3091101 0.8330596
5.69749 38.5092 -50.0462 0.8618039 -0.334187 -0.3815929 255 255 255 255 0.7308508 0.8221708
11.395 43.4434 -41.5 0.8618038 0.163376 0.4802109 255 255 255 255 0.9617024 0.8850691
5.69748 48.3776 -32.9537 -0 0.4121569 0.9111129 255 255 255 255 0.7308505 0.9479675
-5.69749 48.3776 -32.9537 -0.8618038 0.163376 0.4802109 255 255 255 255 0.2691492 0.9479675
-11.395 43.4434 -41.5 -0.8618039 -0.334187 -0.3815929 255 255 255 255 0.03829759 0.8850691
-5.69748 38.5092 -50.0462 -0 -0.5829681 -0.8124951 255 255 255 255 0.2691496 0.8221708
9.14228 40.8789 -40.0193 0 -0.8660256 0.4999998 255 255 255 255 0.8704267 0.8523784
4.57114 36.9201 -46.876 0 -0.8660256 0.4999998 255 255 255 255 0.6852134 0.8019139
5.52806 36.0914 -48.3114 0 -0.8660256 0.4999998 255 255 255 255 0.7239858 0.7913501
5.69749 38.5092 -50.0462 1e-06 0.8660253 -0.5000002 255 255 255 255 0.7308508 0.8221708
4.71125 39.3634 -48.5668 1e-06 0.8660253 -0.5000002 255 255 255 255 0.6908904 0.8330596
9.42249 43.4434 -41.5 1e-06 0.8660253 -0.5000002 255 255 255 255 0.8817803 0.8850691
5.52805 45.6663 -31.7272 -1e-06 -0.8660253 0.5000002 255 255 255 255 0.7239854 0.9134054
4.57114 44.8376 -33.1626 -1e-06 -0.8660253 0.5000002 255 255 255 255 0.6852134 0.9028416
9.14228 40.8789 -40.0193 -1e-06 -0.8660253 0.5000002 255 255 255 255 0.8704267 0.8523784
4.71125 47.5235 -34.4331 -9.999999e-07 0.8660249 -0.500001 255 255 255 255 0.6908904 0.9370799
-5.52805 45.6663 -31.7272 0 -0.8660256 0.4999998 255 255 255 255 0.2760146 0.9134054
-4.57114 44.8376 -33.1626 0 -0.8660256 0.4999998 255 255 255 255 0.3147866 0.9028416
4.57114 44.8376 -33.1626 0 -0.8660256 0.4999998 255 255 255 255 0.6852134 0.9028416
4.71125 47.5235 -34.4331 0 0.8660264 -0.4999982 255 255 255 255 0.6908904 0.9370799
-4.71125 47.5235 -34.4331 0 0.8660264 -0.4999982 255 255 255 255 0.3091097 0.9370799
-5.69749 48.3776 -32.9537 0 0.8660264 -0.4999982 255 255 255 255 0.2691492 0.9479675
-9.14228 40.8789 -40.0193 9.999995e-07 -0.8660256 0.4999998 255 255 255 255 0.1295733 0.8523784
-4.57114 44.8376 -33.1626 9.999995e-07 -0.8660256 0.4999998 255 255 255 255 0.3147866 0.9028416
-5.52805 45.6663 -31.7272 9.999995e-07 -0.8660256 0.4999998 255 255 255 255 0.2760146 0.9134054
-5.69749 48.3776 -32.9537 -2e-06 0.866026 -0.499999 255 255 255 255 0.2691492 0.9479675
-4.71125 47.5235 -34.4331 -2e-06 0.866026 -0.499999 255 255 255 255 0.3091097 0.9370799
-9.42249 43.4434 -41.5 -2e-06 0.866026 -0.499999 255 255 255 255 0.1182197 0.8850691
-5.52805 36.0914 -48.3114 -9.999995e-07 -0.8660256 0.4999998 255 255 255 255 0.2760146 0.7913501
-4.57114 36.9201 -46.876 -9.999995e-07 -0.8660256 0.4999998 255 255 255 255 0.3147866 0.8019139
-9.14228 40.8789 -40.0193 -9.999995e-07 -0.8660256 0.4999998 255 255 255 255 0.1295733 0.8523784
-9.42249 43.4434 -41.5 -9.999999e-07 0.8660249 -0.500001 255 255 255 255 0.1182197 0.8850691
-4.71124 39.3634 -48.5668 -9.999999e-07 0.8660249 -0.500001 255 255 255 255 0.3091101 0.8330596
-5.69748 38.5092 -50.0462 -9.999999e-07 0.8660249 -0.500001 255 255 255 255 0.2691496 0.8221708
4.57114 36.9201 -46.876 0 -0.866026 0.499999 255 255 255 255 0.6852134 0.8019139
4.71125 39.3634 -48.5668 0 0.8660249 -0.500001 255 255 255 255 0.6908904 0.8330596
9.23244 28.5033 -35.0819 1 0 0 255 255 255 255 0.8740798 0.6946213
12.3402 45.3334 -44.7988 0.151603 0.8560152 -0.4942211 255 255 255 255 1 0.9091617
7.35675 28.5033 -35.0819 -1 0 0 255 255 255 255 0.7980807 0.6946213
9.23244 11.4467 -25.2343 0 -0.8660256 0.4999998 255 255 255 255 0.8740798 0.4771936
7.35675 28.5033 -35.0819 -0 -0.5000002 -0.8660253 255 255 255 255 0.7980807 0.6946213
9.23244 28.5033 -35.0819 0.9874538 -0.136753 0.07895397 255 255 255 255 0.8740798 0.6946213
10.4809 47.4922 -41.6299 -0.9876811 0.135516 -0.07824001 255 255 255 255 0.9246649 0.9366809
12.3402 47.2452 -41.4873 0 0.5000002 0.8660253 255 255 255 255 1 0.9335324
1.91186 34.0755 -25.4307 -0 0.5000002 0.8660253 255 255 255 255 0.5774647 0.7656525
1.91186 51.7767 -34.2089 0 0.9318169 -0.362929 255 255 255 255 0.5774647 0.9912972
1.91186 16.081 -17.2074 0 -0.5000002 -0.8660253 255 255 255 255 0.5774647 0.5362689
1.91186 17.0188 -15.583 0 -0.8660256 0.4999998 255 255 255 255 0.5774647 0.5482235
1.91186 16.081 -17.2074 1 0 -0 255 255 255 255 0.5774647 0.5362689
1.91186 52.4594 -32.4561 -0 0.3569741 0.9341143 255 255 255 255 0.5774647 1
-1.91186 51.7767 -34.2089 -0 -0.3583241 -0.9335973 255 255 255 255 0.4225353 0.9912972
-1.91186 52.4594 -32.4561 -1 0 0 255 255 255 255 0.4225353 1
-6.38401 1.47826 -16.4526 0 1 -0 255 255 255 255 0.2413328 0.3501216
3.192 1.47826 -21.9813 0.8660253 0 -0.5000002 255 255 255 255 0.6293334 0.3501216
6.38401 1.47826 -16.4526 0.8474089 0 0.5309409 255 255 255 255 0.7586672 0.3501216
2.92001 1.47826 2.88034 -0 0 1 255 255 255 255 0.6183129 0.3501216
-2.92002 1.47826 -10.9239 -0.8474089 0 0.5309409 255 255 255 255 0.3816867 0.3501216
-6.38401 1.47826 -16.4526 -0.8660253 -0 -0.5000002 255 255 255 255 0.2413328 0.3501216
-3.192 1.47826 -21.9813 -0 -0 -1 255 255 255 255 0.3706666 0.3501216
3.192 -1.35788 -21.9813 0 -1 0 255 255 255 255 0.6293334 0.3139681
2.92001 -1.35787 2.88034 0 -1 0 255 255 255 255 0.6183129 0.3139682
2.92001 1.47826 2.88034 1 0 0 255 255 255 255 0.6183129 0.3501216
-2.92002 1.47826 2.88034 0 1 -0 255 255 255 255 0.3816867 0.3501216
-2.92002 -1.35787 2.88034 -1 -0 0 255 255 255 255 0.3816867 0.3139682
-9.23244 30.4152 -31.7705 -1 0 0 255 255 255 255 0.1259202 0.7189931
-10.4809 47.4922 -41.6299 -0.151603 0.8560152 -0.4942211 255 255 255 255 0.07533511 0.9366809
-7.35675 13.3586 -21.9228 1 -0 0 255 255 255 255 0.2019193 0.5015654
-9.23244 13.3586 -21.9228 0 -0.8660256 0.4999998 255 255 255 255 0.1259202 0.5015654
-7.35675 30.4152 -31.7705 -0 0.5000002 0.8660253 255 255 255 255 0.2019193 0.7189931
-12.3402 47.2452 -41.4873 -0.9874538 -0.136753 0.07895397 255 255 255 255 0 0.9335324
-10.4809 45.5804 -44.9413 0.9876811 0.135516 -0.07824001 255 255 255 255 0.07533511 0.9123104
-12.3402 45.3334 -44.7988 0 -0.5000002 -0.8660253 255 255 255 255 0 0.9091617
6.64733 29.0576 -33.1943 -0.8660258 0.2499999 0.4330119 255 255 255 255 0.7693363 0.7016872
3.32367 26.1792 -38.1798 -0.8660258 0.2499999 0.4330119 255 255 255 255 0.6346684 0.664995
3.32367 23.6147 -36.6992 -0.8660258 0.2499999 0.4330119 255 255 255 255 0.6346684 0.6323043
3.32367 29.3714 -26.7282 -0.866025 -0.250001 -0.433013 255 255 255 255 0.6346684 0.7056873
3.32367 31.936 -28.2088 -0.866025 -0.250001 -0.433013 255 255 255 255 0.6346684 0.7383794
6.64733 29.0576 -33.1943 -0.866025 -0.250001 -0.433013 255 255 255 255 0.7693363 0.7016872
-3.32367 31.936 -28.2088 -0 -0.500001 -0.8660249 255 255 255 255 0.3653316 0.7383794
3.32367 31.936 -28.2088 -0 -0.500001 -0.8660249 255 255 255 255 0.6346684 0.7383794
3.32367 29.3714 -26.7282 -0 -0.500001 -0.8660249 255 255 255 255 0.6346684 0.7056873
-6.64733 29.0576 -33.1943 0.8660252 -0.2500001 -0.4330131 255 255 255 255 0.2306636 0.7016872
-3.32366 23.6147 -36.6992 0.866025 0.250001 0.433013 255 255 255 255 0.365332 0.6323043
-3.32366 26.1792 -38.1798 0.866025 0.250001 0.433013 255 255 255 255 0.365332 0.664995
-6.64733 29.0576 -33.1943 0.866025 0.250001 0.433013 255 255 255 255 0.2306636 0.7016872
-3.32366 26.1792 -38.1798 -0 0.500001 0.8660249 255 255 255 255 0.365332 0.664995
4.24743 25.3792 -39.5654 0.8660252 -0.2500001 -0.4330131 255 255 255 255 0.6720973 0.6547971
8.49485 29.0576 -33.1943 0.8660252 0.2500001 0.4330131 255 255 255 255 0.8441942 0.7016872
4.24743 30.1714 -25.3425 -0 0.5000002 0.8660253 255 255 255 255 0.6720973 0.7158853
4.24743 32.736 -26.8232 -0 0.5000002 0.8660253 255 255 255 255 0.6720973 0.7485774
-4.24743 32.736 -26.8232 -0 0.5000002 0.8660253 255 255 255 255 0.3279027 0.7485774
-4.24743 30.1714 -25.3425 -0.8660252 0.2500001 0.4330131 255 255 255 255 0.3279027 0.7158853
-8.49485 29.0576 -33.1943 -0.8660252 -0.2500001 -0.4330131 255 255 255 255 0.1558058 0.7016872
-4.24743 25.3792 -39.5654 -0 -0.5000002 -0.8660253 255 255 255 255 0.3279027 0.6547971
3.32367 26.1792 -38.1798 -9.999995e-07 0.8660256 -0.4999998 255 255 255 255 0.6346684 0.664995
6.64733 29.0576 -33.1943 -9.999995e-07 0.8660256 -0.4999998 255 255 255 255 0.7693363 0.7016872
8.49485 29.0576 -33.1943 -9.999995e-07 0.8660256 -0.4999998 255 255 255 255 0.8441942 0.7016872
6.64733 29.0576 -33.1943 1e-06 0.8660253 -0.5000002 255 255 255 255 0.7693363 0.7016872
3.32367 31.936 -28.2088 1e-06 0.8660253 -0.5000002 255 255 255 255 0.6346684 0.7383794
4.24743 32.736 -26.8232 1e-06 0.8660253 -0.5000002 255 255 255 255 0.6720973 0.7485774
-3.32367 29.3714 -26.7282 0 -0.8660253 0.5000002 255 255 255 255 0.3653316 0.7056873
3.32367 31.936 -28.2088 0 0.8660253 -0.5000002 255 255 255 255 0.6346684 0.7383794
-3.32367 31.936 -28.2088 0 0.8660253 -0.5000002 255 255 255 255 0.3653316 0.7383794
-4.24743 32.736 -26.8232 0 0.8660253 -0.5000002 255 255 255 255 0.3279027 0.7485774
-6.64733 29.0576 -33.1943 0 0.8660253 -0.5000002 255 255 255 255 0.2306636 0.7016872
-3.32366 23.6147 -36.6992 -0 -0.8660253 0.5000002 255 255 255 255 0.365332 0.6323043
-1.70414 12.1796 -26.8581 -0 -0.5000002 -0.8660253 255 255 255 255 0.4309517 0.4865361
-3.40828 13.6555 -24.3019 -0.8660252 -0.2500001 -0.4330131 255 255 255 255 0.3619034 0.5053501
-1.70414 15.1313 -21.7457 -0.8660252 0.2500001 0.4330131 255 255 255 255 0.4309517 0.5241628
1.70414 15.1313 -21.7457 -0 0.5000002 0.8660253 255 255 255 255 0.5690483 0.5241628
3.40828 13.6555 -24.3019 0.8660252 0.2500001 0.4330131 255 255 255 255 0.6380966 0.5053501
1.70414 12.1796 -26.8581 0.8660258 -0.2499999 -0.4330119 255 255 255 255 0.5690483 0.4865361
1.70414 -25.9878 -4.82208 0 -0.8660253 0.5000002 255 255 255 255 0.5690483 0
3.40828 -24.512 -2.26587 0 -0.8660253 0.5000002 255 255 255 255 0.6380966 0.01881267
-3.40828 -24.512 -2.26587 -0 -0.8660253 0.5000002 255 255 255 255 0.3619034 0.01881267
-8.49485 16.9237 -26.1888 -0 0.8660253 -0.5000002 255 255 255 255 0.1558058 0.5470112
8.49485 13.6555 -24.3019 0.8660252 -0.2500001 -0.4330131 255 255 255 255 0.8441942 0.5053501
4.24743 9.97708 -30.673 0.8660252 -0.2500001 -0.4330131 255 255 255 255 0.6720973 0.4584597
4.24743 13.2454 -32.5599 0.8660252 -0.2500001 -0.4330131 255 255 255 255 0.6720973 0.5001224
8.49485 13.6555 -24.3019 0.8660252 0.2500001 0.4330131 255 255 255 255 0.8441942 0.5053501
4.24743 20.6021 -19.8177 -0 0.5000002 0.8660253 255 255 255 255 0.6720973 0.5939013
-4.24743 20.6021 -19.8177 -0.8660252 0.2500001 0.4330131 255 255 255 255 0.3279027 0.5939013
-8.49485 16.9237 -26.1888 -0.8660252 -0.2500001 -0.4330131 255 255 255 255 0.1558058 0.5470112
-4.24743 13.2454 -32.5599 -0 -0.5000002 -0.8660253 255 255 255 255 0.3279027 0.5001224
1.70414 12.1796 -26.8581 0 -0.8660256 0.4999998 255 255 255 255 0.5690483 0.4865361
-1.70414 12.1796 -26.8581 0 -0.8660256 0.4999998 255 255 255 255 0.4309517 0.4865361
-4.24743 9.97708 -30.673 0 -0.8660256 0.4999998 255 255 255 255 0.3279027 0.4584597
3 0 1 2 
3 3 4 5 
3 6 7 8 
3 9 10 11 
3 12 13 14 
3 15 16 17 
3 18 19 20 
3 13 21 22 
3 23 24 25 
3 26 27 16 
3 28 29 30 
3 31 32 33 
3 34 35 36 
3 37 38 39 
3 40 41 42 
3 43 44 45 
3 46 47 48 
3 49 50 51 
3 52 53 54 
3 55 56 57 
3 58 59 60 
3 61 62 63 
3 64 65 66 
3 67 68 69 
3 70 71 72 
3 73 74 75 
3 76 77 78 
3 79 80 81 
3 82 83 84 
3 85 86 87 
3 88 82 84 
3 86 89 87 
3 90 91 92 
3 93 94 95 
3 96 97 98 
3 99 100 101 
3 102 103 104 
3 105 106 107 
3 108 109 110 
3 111 112 113 
3 114 115 116 
3 109 117 118 
3 119 120 121 
3 122 123 112 
3 124 125 126 
3 127 128 129 
3 130 131 132 
3 133 134 135 
3 136 137 138 
3 139 140 141 
3 142 143 144 
3 138 145 146 
3 147 148 149 
3 150 151 140 
3 152 153 154 
3 155 156 157 
3 158 159 160 
3 161 162 163 
3 164 165 166 
3 167 168 169 
3 170 171 172 
3 173 174 175 
3 176 174 177 
3 153 178 179 
3 177 180 176 
3 181 182 183 
3 178 184 179 
3 185 186 187 
3 188 189 190 
3 191 192 193 
3 194 195 196 
3 197 198 199 
3 200 201 202 
3 203 204 205 
3 206 207 208 
3 201 209 210 
3 211 212 213 
3 214 215 204 
3 216 217 218 
3 219 220 221 
3 222 223 224 
3 225 226 227 
3 228 229 230 
3 231 232 233 
3 234 235 236 
3 237 238 239 
3 240 241 242 
3 243 244 245 
3 246 247 248 
3 249 250 251 
3 252 253 254 
3 255 256 257 
3 258 259 252 
3 260 261 262 
3 263 264 258 
3 265 266 267 
3 268 263 269 
3 270 271 272 
3 273 274 275 
3 276 277 278 
3 253 279 254 
3 280 257 281 
3 282 283 284 
3 285 286 287 
3 288 289 290 
3 291 292 293 
3 294 295 296 
3 297 298 299 
3 300 301 302 
3 303 304 305 
3 306 307 308 
3 309 310 311 
3 312 313 314 
3 315 316 317 
3 318 319 320 
3 321 322 323 
3 324 325 326 
3 324 327 328 
3 329 327 330 
3 331 330 332 
3 331 333 334 
3 335 333 325 
3 304 336 337 
3 0 338 1 
3 3 339 4 
3 6 340 7 
3 9 341 10 
3 12 342 13 
3 15 26 16 
3 18 343 19 
3 13 342 21 
3 23 344 24 
3 26 345 27 
3 28 346 29 
3 31 347 32 
3 348 349 350 
3 37 351 38 
3 352 353 354 
3 43 355 44 
3 46 356 47 
3 49 357 50 
3 52 358 53 
3 55 359 56 
3 58 360 59 
3 61 361 62 
3 362 363 364 
3 365 366 367 
3 368 369 370 
3 73 371 74 
3 372 373 374 
3 375 376 377 
3 378 379 380 
3 381 382 383 
3 384 385 386 
3 387 388 389 
3 90 390 91 
3 93 391 94 
3 96 392 97 
3 99 393 100 
3 102 394 103 
3 105 395 106 
3 108 396 109 
3 111 122 112 
3 114 397 115 
3 109 396 117 
3 119 398 120 
3 122 399 123 
3 124 400 125 
3 127 401 128 
3 130 402 131 
3 133 403 134 
3 136 404 137 
3 139 150 140 
3 142 405 143 
3 138 137 145 
3 147 406 148 
3 150 407 151 
3 152 408 153 
3 155 409 156 
3 158 410 159 
3 161 411 162 
3 164 412 165 
3 167 413 168 
3 170 414 171 
3 173 415 174 
3 176 175 174 
3 153 408 178 
3 177 416 180 
3 181 417 182 
3 178 418 184 
3 185 419 186 
3 188 420 189 
3 191 421 192 
3 194 422 195 
3 197 423 198 
3 200 424 201 
3 203 214 204 
3 206 425 207 
3 201 424 209 
3 211 426 212 
3 214 427 215 
3 428 429 430 
3 431 432 433 
3 434 435 436 
3 225 437 226 
3 438 439 440 
3 231 441 232 
3 234 442 235 
3 237 443 238 
3 444 445 446 
3 243 447 244 
3 246 448 247 
3 249 449 250 
3 252 259 253 
3 450 451 452 
3 258 264 259 
3 453 454 455 
3 263 456 264 
3 457 458 459 
3 268 456 263 
3 459 458 460 
3 279 461 268 
3 460 280 281 
3 253 461 279 
3 280 255 257 
3 282 462 283 
3 285 463 286 
3 288 464 289 
3 291 465 292 
3 294 466 295 
3 297 467 298 
3 302 468 469 
3 469 300 302 
3 301 470 302 
3 303 471 304 
3 472 473 474 
3 309 475 310 
3 312 476 313 
3 315 477 316 
3 318 478 319 
3 321 479 322 
3 324 335 325 
3 324 326 327 
3 329 328 327 
3 331 329 330 
3 331 332 333 
3 480 481 482 
3 304 471 336 
