ply
format ascii 1.0
comment VCGLIB generated
element vertex 444
property float x
property float y
property float z
property float nx
property float ny
property float nz
property uchar red
property uchar green
property uchar blue
property uchar alpha
property float texture_u
property float texture_v
element face 213
property list uchar int vertex_indices
end_header
-310.946 465.718 -36.7773 -0.6959542 -0 -0.7180862 255 255 255 255 0.378108 0.931436
-317.115 500 -30.7981 -0.6959542 -0 -0.7180862 255 255 255 255 0.36577 1
-310.946 500 -36.7773 -0.6959542 -0 -0.7180862 255 255 255 255 0.378108 1
-182.885 500 -30.7981 0.6959471 -0 -0.7180931 255 255 255 255 0.63423 1
-189.055 465.718 -36.7773 0.6959471 -0 -0.7180931 255 255 255 255 0.62189 0.931436
-189.055 500 -36.7773 0.6959471 -0 -0.7180931 255 255 255 255 0.62189 1
-310.946 465.718 -36.7773 0 -0 -1 255 255 255 255 0.378108 0.931436
-189.055 500 -36.7773 0 -0 -1 255 255 255 255 0.62189 1
-189.055 465.718 -36.7773 0 -0 -1 255 255 255 255 0.62189 0.931436
-236.25 426.949 -36.7773 0.09466399 -0.4049979 -0.9094039 255 255 255 255 0.5275 0.853898
-250 406.864 -29.2638 0.09466399 -0.4049979 -0.9094039 255 255 255 255 0.5 0.813728
-257.916 421.885 -36.7773 0.09466399 -0.4049979 -0.9094039 255 255 255 255 0.484168 0.84377
-189.055 500 -36.7773 0 1 0 255 255 255 255 0.62189 1
-317.115 500 -30.7981 0 1 0 255 255 255 255 0.36577 1
-182.885 500 -30.7981 0 1 0 255 255 255 255 0.63423 1
-295.715 474.94 -36.7773 -0.5211551 -0 -0.853462 255 255 255 255 0.40857 0.94988
-286.899 500 -42.1605 -0.5211551 -0 -0.853462 255 255 255 255 0.426202 1
-286.899 474.94 -42.1605 -0.5211551 -0 -0.853462 255 255 255 255 0.426202 0.94988
-204.285 500 -36.7773 0.5211551 -0 -0.853462 255 255 255 255 0.59143 1
-213.101 477.446 -42.1605 0.5211551 -0 -0.853462 255 255 255 255 0.573798 0.954892
-213.101 500 -42.1605 0.5211551 -0 -0.853462 255 255 255 255 0.573798 1
-213.101 477.446 -42.1605 -0 -0 -1 255 255 255 255 0.573798 0.954892
-286.899 500 -42.1605 -0 -0 -1 255 255 255 255 0.426202 1
-213.101 500 -42.1605 -0 -0 -1 255 255 255 255 0.573798 1
-204.285 474.94 -36.7773 0.3778801 -0.4308931 -0.8194741 255 255 255 255 0.59143 0.94988
-247.724 447.083 -42.1605 0.3778801 -0.4308931 -0.8194741 255 255 255 255 0.504552 0.894166
-213.101 477.446 -42.1605 0.3778801 -0.4308931 -0.8194741 255 255 255 255 0.573798 0.954892
-250 436.45 -36.7773 -0.2750239 -0.3867678 -0.8802116 255 255 255 255 0.5 0.8729
-286.899 474.94 -42.1605 -0.2750239 -0.3867678 -0.8802116 255 255 255 255 0.426202 0.94988
-247.724 447.083 -42.1605 -0.2750239 -0.3867678 -0.8802116 255 255 255 255 0.504552 0.894166
-286.899 500 -42.1605 0 1 -0 255 255 255 255 0.426202 1
-204.285 500 -36.7773 0 1 -0 255 255 255 255 0.59143 1
-213.101 500 -42.1605 0 1 -0 255 255 255 255 0.573798 1
-247.724 447.083 -42.1605 0 -0 -1 255 255 255 255 0.504552 0.894166
-286.899 474.94 -42.1605 0 -0 -1 255 255 255 255 0.426202 0.94988
0 250.58 -31.1953 1 0 -0 255 255 255 255 1 0.50116
0 233.045 -36.2791 1 0 -0 255 255 255 255 1 0.46609
0 243.568 -36.2791 1 0 -0 255 255 255 255 1 0.487136
-218.946 180.558 -42.1605 -0.07197001 -0.5076941 -0.8585261 255 255 255 255 0.562108 0.361116
-226.85 171.733 -36.2791 -0.07197001 -0.5076941 -0.8585261 255 255 255 255 0.5463 0.343466
-228.489 181.179 -41.7281 -0.07197001 -0.5076941 -0.8585261 255 255 255 255 0.543022 0.362358
-207.049 289.4 -36.2791 0.5493843 0.5159433 -0.6572514 255 255 255 255 0.585902 0.5788
-228.841 305.112 -42.1605 0.5493843 0.5159433 -0.6572514 255 255 255 255 0.542318 0.610224
-250 335.134 -36.2791 0.5493843 0.5159433 -0.6572514 255 255 255 255 0.5 0.670268
-119.669 152.83 -31.1953 -0.07416599 -0.369997 -0.9260679 255 255 255 255 0.760662 0.30566
-119.838 165.588 -36.2791 -0.07416599 -0.369997 -0.9260679 255 255 255 255 0.760324 0.331176
-95.5845 160.727 -36.2791 -0.07416599 -0.369997 -0.9260679 255 255 255 255 0.808831 0.321454
-250 196.499 -36.2791 0.4385919 -0.5436569 -0.7155938 255 255 255 255 0.5 0.392998
-284.207 176.644 -42.1605 0.4385919 -0.5436569 -0.7155938 255 255 255 255 0.431586 0.353288
-250 204.24 -42.1605 0.4385919 -0.5436569 -0.7155938 255 255 255 255 0.5 0.40848
-95.5845 160.727 -36.2791 -0 0 -1 255 255 255 255 0.808831 0.321454
0 171.733 -36.2791 -0 0 -1 255 255 255 255 1 0.343466
0 161.209 -36.2791 -0 0 -1 255 255 255 255 1 0.322418
-217.166 176.644 -42.1605 -0.4338102 -0.1973601 -0.8791233 255 255 255 255 0.565668 0.353288
-226.85 171.733 -36.2791 -0.4338102 -0.1973601 -0.8791233 255 255 255 255 0.5463 0.343466
-218.946 180.558 -42.1605 -0.4338102 -0.1973601 -0.8791233 255 255 255 255 0.562108 0.361116
-250 362.838 -31.1954 0.327785 0.3362601 -0.8828852 255 255 255 255 0.5 0.725676
-178.799 280.084 -36.2791 0.327785 0.3362601 -0.8828852 255 255 255 255 0.642402 0.560168
-251.78 351.225 -36.2791 0.327785 0.3362601 -0.8828852 255 255 255 255 0.49644 0.70245
-59.3791 222.545 -42.1605 -0.07205896 0.7656006 -0.6392677 255 255 255 255 0.8812418 0.44509
0 233.045 -36.2791 -0.07205896 0.7656006 -0.6392677 255 255 255 255 1 0.46609
0 228.134 -42.1605 -0.07205896 0.7656006 -0.6392677 255 255 255 255 1 0.456268
-255.245 321.566 -42.1605 -0.5098487 0.5004076 -0.6997475 255 255 255 255 0.48951 0.643132
-348.217 235.064 -36.2791 -0.5098487 0.5004076 -0.6997475 255 255 255 255 0.303566 0.470128
-250 335.134 -36.2791 -0.5098487 0.5004076 -0.6997475 255 255 255 255 0.5 0.670268
-83.9927 233.045 -36.2791 -0 0 -1 255 255 255 255 0.8320146 0.46609
0 243.568 -36.2791 -0 0 -1 255 255 255 255 1 0.487136
0 233.045 -36.2791 -0 0 -1 255 255 255 255 1 0.46609
0 243.568 -36.2791 0 0.5869953 -0.8095903 255 255 255 255 1 0.487136
-137.115 250.58 -31.1953 0 0.5869953 -0.8095903 255 255 255 255 0.72577 0.50116
0 250.58 -31.1953 0 0.5869953 -0.8095903 255 255 255 255 1 0.50116
-251.78 351.225 -36.2791 -0.4151699 0.4174868 -0.8082937 255 255 255 255 0.49644 0.70245
-362.885 250.58 -31.1953 -0.4151699 0.4174868 -0.8082937 255 255 255 255 0.27423 0.50116
-250 362.838 -31.1954 -0.4151699 0.4174868 -0.8082937 255 255 255 255 0.5 0.725676
-250 159.947 -36.2791 0 -0 -1 255 255 255 255 0.5 0.319894
-250 196.499 -36.2791 0 -0 -1 255 255 255 255 0.5 0.392998
-226.85 171.733 -36.2791 0 -0 -1 255 255 255 255 0.5463 0.343466
-273.15 171.733 -36.2791 -0 -0 -1 255 255 255 255 0.4537 0.343466
-207.049 289.4 -36.2791 -0 -0 -1 255 255 255 255 0.585902 0.5788
-251.78 351.225 -36.2791 -0 -0 -1 255 255 255 255 0.49644 0.70245
-178.799 280.084 -36.2791 -0 -0 -1 255 255 255 255 0.642402 0.560168
-500 152.83 -31.1953 0.004222 -0.536358 -0.84398 255 255 255 255 0 0.30566
-357.737 161.95 -36.2791 0.004222 -0.536358 -0.84398 255 255 255 255 0.284526 0.3239
-341.182 154.08 -31.1953 0.004222 -0.536358 -0.84398 255 255 255 255 0.317636 0.30816
-250 335.134 -36.2791 0 -0 -1 255 255 255 255 0.5 0.670268
-356.174 243.568 -36.2791 0 -0 -1 255 255 255 255 0.287652 0.487136
-411.102 171.733 -36.2791 0 0 -1 255 255 255 255 0.177796 0.343466
-500 161.209 -36.2791 0 0 -1 255 255 255 255 0 0.322418
-500 171.733 -36.2791 0 0 -1 255 255 255 255 0 0.343466
-411.102 171.733 -36.2791 0.016082 -0.634423 -0.7728189 255 255 255 255 0.177796 0.343466
-500 176.644 -42.1605 0.016082 -0.634423 -0.7728189 255 255 255 255 0 0.353288
-409.501 178.938 -42.1605 0.016082 -0.634423 -0.7728189 255 255 255 255 0.180998 0.357876
-442.114 226.561 -42.1605 -0 -0 -1 255 255 255 255 0.115772 0.453122
-500 176.644 -42.1605 -0 -0 -1 255 255 255 255 0 0.353288
-500 228.134 -42.1605 -0 -0 -1 255 255 255 255 0 0.456268
-442.114 226.561 -42.1605 0 0.6718869 -0.7406539 255 255 255 255 0.115772 0.453122
-500 233.045 -36.2791 0 0.6718869 -0.7406539 255 255 255 255 0 0.46609
-441.218 233.045 -36.2791 0 0.6718869 -0.7406539 255 255 255 255 0.117564 0.46609
-500 171.733 -36.2791 -1 -0 0 255 255 255 255 0 0.343466
-500 250.58 -31.1953 -1 -0 0 255 255 255 255 0 0.50116
-500 233.045 -36.2791 -1 -0 0 255 255 255 255 0 0.46609
-449.586 243.568 -36.2791 0.09068903 0.2883051 -0.9532343 255 255 255 255 0.100828 0.487136
-433.342 247.235 -33.6244 0.09068903 0.2883051 -0.9532343 255 255 255 255 0.133316 0.49447
-431.252 237.801 -36.2791 0.09068903 0.2883051 -0.9532343 255 255 255 255 0.137496 0.475602
-345.609 228.134 -42.1605 -0 -0 -1 255 255 255 255 0.308782 0.456268
-250 316.432 -42.1605 -0 -0 -1 255 255 255 255 0.5 0.632864
-284.207 176.644 -42.1605 -0 -0 -1 255 255 255 255 0.431586 0.353288
-250 204.24 -42.1605 0 -0 -1 255 255 255 255 0.5 0.40848
0 176.644 -42.1605 1 0 -0 255 255 255 255 1 0.353288
0 228.134 -42.1605 1 0 -0 255 255 255 255 1 0.456268
0 171.733 -36.2791 1 -0 -0 255 255 255 255 1 0.343466
0 152.83 -31.1953 1 -0 -0 255 255 255 255 1 0.30566
0 161.209 -36.2791 1 -0 -0 255 255 255 255 1 0.322418
-500 243.568 -36.2791 -1 0 0 255 255 255 255 0 0.487136
-500 176.644 -42.1605 -1 -0 0 255 255 255 255 0 0.353288
-500 228.134 -42.1605 -1 -0 0 255 255 255 255 0 0.456268
-500 152.83 -31.1953 -1 0 0 255 255 255 255 0 0.30566
-500 161.209 -36.2791 -1 0 0 255 255 255 255 0 0.322418
0 2e-06 14.2392 0 -1 0 255 255 255 255 1 1.4e-08
-500 -5e-06 -31.1953 0 -1 0 255 255 255 255 0 0
0 -5e-06 -31.1953 0 -1 0 255 255 255 255 1 0
-500 2e-06 14.2392 -0 0 1 255 255 255 255 0 1.4e-08
0 500 14.2391 -0 0 1 255 255 255 255 1 1
-500 500 14.2391 -0 0 1 255 255 255 255 0 1
0 500 -31.1954 0 1 0 255 255 255 255 1 1
-500 500 14.2391 0 1 0 255 255 255 255 0 1
0 500 14.2391 0 1 0 255 255 255 255 1 1
-103.246 304.2 -17.1535 0 -0 -1 255 255 255 255 0.793508 0.6084
0 445.8 -17.1536 0 -0 -1 255 255 255 255 1 0.8916
0 304.2 -17.1535 0 -0 -1 255 255 255 255 1 0.6084
-402.341 447.11 -17.1536 -0 -0 -1 255 255 255 255 0.195318 0.89422
-304.2 392.836 -17.1536 -0 -0 -1 255 255 255 255 0.3916 0.785672
-396.754 304.2 -17.1535 -0 -0 -1 255 255 255 255 0.206492 0.6084
-455.591 467.277 -31.1954 -0 -0 -1 255 255 255 255 0.08881799 0.934554
-500 500 -31.1954 -0 -0 -1 255 255 255 255 0 1
-286 464 -31.1954 -0 -0 -1 255 255 255 255 0.428 0.928
-200.905 367.926 -31.1954 -0 -0 -1 255 255 255 255 0.59819 0.735852
-286 385.066 -31.1954 -0 -0 -1 255 255 255 255 0.428 0.770132
-214 385.066 -31.1954 -0 -0 -1 255 255 255 255 0.572 0.770132
-126.322 463.078 -31.1954 0 -0 -1 255 255 255 255 0.747356 0.926156
0 500 -31.1954 0 -0 -1 255 255 255 255 1 1
0 464 -31.1954 0 -0 -1 255 255 255 255 1 0.928
-195.8 392.836 -17.1536 0.4694042 0.3586431 -0.8068673 255 255 255 255 0.6084 0.785672
-200.905 367.926 -31.1954 0.4694042 0.3586431 -0.8068673 255 255 255 255 0.59819 0.735852
-214 385.066 -31.1954 0.4694042 0.3586431 -0.8068673 255 255 255 255 0.572 0.770132
-214 385.066 -31.1954 0.6108541 -0 -0.7917432 255 255 255 255 0.572 0.770132
-195.8 445.8 -17.1536 0.6108541 -0 -0.7917432 255 255 255 255 0.6084 0.8916
-195.8 392.836 -17.1536 0.6108541 -0 -0.7917432 255 255 255 255 0.6084 0.785672
-126.322 463.078 -31.1954 -0.00444 -0.650027 -0.7598981 255 255 255 255 0.747356 0.926156
0 445.8 -17.1536 -0.00444 -0.650027 -0.7598981 255 255 255 255 1 0.8916
-134.95 446.722 -17.1536 -0.00444 -0.650027 -0.7598981 255 255 255 255 0.7301 0.8934439
-103.246 304.2 -17.1535 0 0.6108524 -0.7917445 255 255 255 255 0.793508 0.6084
-102.511 286 -31.1954 0 0.6108524 -0.7917445 255 255 255 255 0.794978 0.572
-110.555 286 -31.1954 0 0.6108524 -0.7917445 255 255 255 255 0.77889 0.572
-500 286 -31.1954 0 0.6108519 -0.7917449 255 255 255 255 0 0.572
-396.754 304.2 -17.1535 0 0.6108519 -0.7917449 255 255 255 255 0.206492 0.6084
-389.445 286 -31.1954 0 0.6108519 -0.7917449 255 255 255 255 0.22111 0.572
-402.341 447.11 -17.1536 -0.008085003 -0.6057512 -0.7956132 255 255 255 255 0.195318 0.89422
-286 464 -31.1954 -0.008085003 -0.6057512 -0.7956132 255 255 255 255 0.428 0.928
-304.2 445.8 -17.1536 -0.008085003 -0.6057512 -0.7956132 255 255 255 255 0.3916 0.8916
-304.2 392.836 -17.1536 -0.4223029 0.4409709 -0.7919628 255 255 255 255 0.3916 0.785672
-311.924 370.268 -25.601 -0.4223029 0.4409709 -0.7919628 255 255 255 255 0.376152 0.740536
-396.754 304.2 -17.1535 -0.4223029 0.4409709 -0.7919628 255 255 255 255 0.206492 0.6084
-286 385.066 -31.1954 -0.6108541 -0 -0.7917432 255 255 255 255 0.428 0.770132
-304.2 445.8 -17.1536 -0.6108541 -0 -0.7917432 255 255 255 255 0.3916 0.8916
-286 464 -31.1954 -0.6108541 -0 -0.7917432 255 255 255 255 0.428 0.928
-214 464 -31.1954 0 -0 -1 255 255 255 255 0.572 0.928
-110.555 286 -31.1954 -0 -0 -1 255 255 255 255 0.77889 0.572
-80.7422 278.493 -31.1954 -0 -0 -1 255 255 255 255 0.8385156 0.556986
0 -5e-06 -31.1953 -0 -0 -1 255 255 255 255 1 0
-389.445 286 -31.1954 0 -0 -1 255 255 255 255 0.22111 0.572
-500 -5e-06 -31.1953 0 -0 -1 255 255 255 255 0 0
-500 286 -31.1954 0 -0 -1 255 255 255 255 0 0.572
0 464 -31.1954 1 -0 0 255 255 255 255 1 0.928
0 500 14.2391 1 -0 0 255 255 255 255 1 1
0 445.8 -17.1536 1 -0 0 255 255 255 255 1 0.8916
0 2e-06 14.2392 1 0 0 255 255 255 255 1 1.4e-08
0 286 -31.1954 1 0 0 255 255 255 255 1 0.572
0 304.2 -17.1535 1 0 0 255 255 255 255 1 0.6084
-500 304.2 -17.1535 -1 -0 0 255 255 255 255 0 0.6084
-500 500 14.2391 -1 -0 0 255 255 255 255 0 1
-500 445.8 -17.1536 -1 -0 0 255 255 255 255 0 0.8916
-500 464 -31.1954 -1 0 0 255 255 255 255 0 0.928
-500 2e-06 14.2392 -1 0 0 255 255 255 255 0 1.4e-08
-500 286 -31.1954 -1 0 0 255 255 255 255 0 0.572
-500 -5e-06 -31.1953 -1 0 0 255 255 255 255 0 0
-433.342 247.235 -33.6244 -0.020478 0.2665889 -0.9635928 255 255 255 255 0.133316 0.49447
-356.174 243.568 -36.2791 -0.020478 0.2665889 -0.9635928 255 255 255 255 0.287652 0.487136
-431.252 237.801 -36.2791 -0.020478 0.2665889 -0.9635928 255 255 255 255 0.137496 0.475602
-348.217 235.064 -36.2791 -0.014614 0.6729221 -0.7395691 255 255 255 255 0.303566 0.470128
-442.114 226.561 -42.1605 -0.014614 0.6729221 -0.7395691 255 255 255 255 0.115772 0.453122
-441.218 233.045 -36.2791 -0.014614 0.6729221 -0.7395691 255 255 255 255 0.117564 0.46609
-409.501 178.938 -42.1605 -0 -0 -1 255 255 255 255 0.180998 0.357876
-284.207 176.644 -42.1605 -0.011549 -0.6307788 -0.7758768 255 255 255 255 0.431586 0.353288
-411.102 171.733 -36.2791 -0.011549 -0.6307788 -0.7758768 255 255 255 255 0.177796 0.343466
-409.501 178.938 -42.1605 -0.011549 -0.6307788 -0.7758768 255 255 255 255 0.180998 0.357876
-357.737 161.95 -36.2791 0 0 -1 255 255 255 255 0.284526 0.3239
-341.182 154.08 -31.1953 -0.007970002 -0.5812511 -0.8136852 255 255 255 255 0.317636 0.30816
-250 159.947 -36.2791 -0.007970002 -0.5812511 -0.8136852 255 255 255 255 0.5 0.319894
-250 152.83 -31.1953 -0.007970002 -0.5812511 -0.8136852 255 255 255 255 0.5 0.30566
-431.252 237.801 -36.2791 0 0 -1 255 255 255 255 0.137496 0.475602
-441.218 233.045 -36.2791 0 0 -1 255 255 255 255 0.117564 0.46609
-449.586 243.568 -36.2791 0 0 -1 255 255 255 255 0.100828 0.487136
-500 233.045 -36.2791 0 0 -1 255 255 255 255 0 0.46609
-500 243.568 -36.2791 0 0 -1 255 255 255 255 0 0.487136
-433.342 247.235 -33.6244 -0.0002479999 0.5870719 -0.8095348 255 255 255 255 0.133316 0.49447
-449.586 243.568 -36.2791 -0.0002479999 0.5870719 -0.8095348 255 255 255 255 0.100828 0.487136
-446.267 250.58 -31.1953 -0.0002479999 0.5870719 -0.8095348 255 255 255 255 0.107466 0.50116
-500 250.58 -31.1953 0 0.5869953 -0.8095903 255 255 255 255 0 0.50116
-449.586 243.568 -36.2791 0 0.5869953 -0.8095903 255 255 255 255 0.100828 0.487136
-500 243.568 -36.2791 0 0.5869953 -0.8095903 255 255 255 255 0 0.487136
-362.885 250.58 -31.1953 0 0.5877 -0.809079 255 255 255 255 0.27423 0.50116
-433.342 247.235 -33.6244 0 0.5877 -0.809079 255 255 255 255 0.133316 0.49447
-446.267 250.58 -31.1953 0 0.5877 -0.809079 255 255 255 255 0.107466 0.50116
-348.217 235.064 -36.2791 0 -0 -1 255 255 255 255 0.303566 0.470128
-250 316.432 -42.1605 0.2817819 0.2878329 -0.9152876 255 255 255 255 0.5 0.632864
-255.245 321.566 -42.1605 0.2817819 0.2878329 -0.9152876 255 255 255 255 0.48951 0.643132
-250 335.134 -36.2791 0.2817819 0.2878329 -0.9152876 255 255 255 255 0.5 0.670268
-250 335.134 -36.2791 0.158468 0.296198 -0.9418889 255 255 255 255 0.5 0.670268
-228.841 305.112 -42.1605 0.158468 0.296198 -0.9418889 255 255 255 255 0.542318 0.610224
-250 316.432 -42.1605 0.158468 0.296198 -0.9418889 255 255 255 255 0.5 0.632864
-250 396.07 -19.3135 -0.5070772 -0.5841953 -0.6337103 255 255 255 255 0.5 0.79214
-257.916 421.885 -36.7773 -0.5070772 -0.5841953 -0.6337103 255 255 255 255 0.484168 0.84377
-250 406.864 -29.2638 -0.5070772 -0.5841953 -0.6337103 255 255 255 255 0.5 0.813728
-317.115 458.192 -17.021 -0.571528 -0.691447 -0.4418789 255 255 255 255 0.36577 0.916384
-310.946 465.718 -36.7773 -0.571528 -0.691447 -0.4418789 255 255 255 255 0.378108 0.931436
-257.916 421.885 -36.7773 -0.571528 -0.691447 -0.4418789 255 255 255 255 0.484168 0.84377
-236.25 426.949 -36.7773 -0 -0 -1 255 255 255 255 0.5275 0.853898
-250 396.07 -19.3135 0.5593702 -0.5825732 -0.5896723 255 255 255 255 0.5 0.79214
-236.25 426.949 -36.7773 0.5593702 -0.5825732 -0.5896723 255 255 255 255 0.5275 0.853898
-182.885 458.192 -17.021 0.5593702 -0.5825732 -0.5896723 255 255 255 255 0.63423 0.916384
-182.885 458.192 -17.021 0.5694153 -0.6931844 -0.4418842 255 255 255 255 0.63423 0.916384
-236.25 426.949 -36.7773 0.5694153 -0.6931844 -0.4418842 255 255 255 255 0.5275 0.853898
-189.055 465.718 -36.7773 0.5694153 -0.6931844 -0.4418842 255 255 255 255 0.62189 0.931436
-500 304.2 -17.1535 0 -0 -1 255 255 255 255 0 0.6084
-500 445.8 -17.1536 0 -0 -1 255 255 255 255 0 0.8916
-500 445.8 -17.1536 0.007484996 -0.5580068 -0.8298026 255 255 255 255 0 0.8916
-455.591 467.277 -31.1954 0.007484996 -0.5580068 -0.8298026 255 255 255 255 0.08881799 0.934554
-402.341 447.11 -17.1536 0.007484996 -0.5580068 -0.8298026 255 255 255 255 0.195318 0.89422
-500 464 -31.1954 0 -0 -1 255 255 255 255 0 0.928
-195.8 392.836 -17.1536 0 -0 -1 255 255 255 255 0.6084 0.785672
-134.95 446.722 -17.1536 0 -0 -1 255 255 255 255 0.7301 0.8934439
-195.8 445.8 -17.1536 0.009913999 -0.654357 -0.7561209 255 255 255 255 0.6084 0.8916
-126.322 463.078 -31.1954 0.009913999 -0.654357 -0.7561209 255 255 255 255 0.747356 0.926156
-134.95 446.722 -17.1536 0.009913999 -0.654357 -0.7561209 255 255 255 255 0.7301 0.8934439
-71.9692 291.159 -27.242 0.08395398 0.2434439 -0.9662747 255 255 255 255 0.8560616 0.582318
-80.7422 278.493 -31.1954 0.08395398 0.2434439 -0.9662747 255 255 255 255 0.8385156 0.556986
-102.511 286 -31.1954 0.08395398 0.2434439 -0.9662747 255 255 255 255 0.794978 0.572
-12.3031 286 -31.1954 -0.035082 0.319822 -0.946828 255 255 255 255 0.9753938 0.572
-80.7422 278.493 -31.1954 -0.035082 0.319822 -0.946828 255 255 255 255 0.8385156 0.556986
-71.9692 291.159 -27.242 -0.035082 0.319822 -0.946828 255 255 255 255 0.8560616 0.582318
-12.3031 286 -31.1954 -0 -0 -1 255 255 255 255 0.9753938 0.572
0 286 -31.1954 -0 -0 -1 255 255 255 255 1 0.572
-12.3031 286 -31.1954 0 0.6108524 -0.7917445 255 255 255 255 0.9753938 0.572
0 304.2 -17.1535 0 0.6108524 -0.7917445 255 255 255 255 1 0.6084
0 286 -31.1954 0 0.6108524 -0.7917445 255 255 255 255 1 0.572
0 304.2 -17.1535 0 0.6118759 -0.7909538 255 255 255 255 1 0.6084
-71.9692 291.159 -27.242 0 0.6118759 -0.7909538 255 255 255 255 0.8560616 0.582318
-103.246 304.2 -17.1535 0 0.6118759 -0.7909538 255 255 255 255 0.793508 0.6084
-316.353 355.998 -31.1954 -0.05312401 0.3787231 -0.9239842 255 255 255 255 0.367294 0.711996
-311.924 370.268 -25.601 -0.05312401 0.3787231 -0.9239842 255 255 255 255 0.376152 0.740536
-301.23 358.12 -31.1954 -0.05312401 0.3787231 -0.9239842 255 255 255 255 0.39754 0.71624
-301.23 358.12 -31.1954 -0.3582699 0.111478 -0.9269388 255 255 255 255 0.39754 0.71624
-311.924 370.268 -25.601 -0.3582699 0.111478 -0.9269388 255 255 255 255 0.376152 0.740536
-295.751 375.728 -31.1954 -0.3582699 0.111478 -0.9269388 255 255 255 255 0.408498 0.751456
-295.751 375.728 -31.1954 -0.4224997 0.4411757 -0.7917435 255 255 255 255 0.408498 0.751456
-304.2 392.836 -17.1536 -0.4224997 0.4411757 -0.7917435 255 255 255 255 0.3916 0.785672
-286 385.066 -31.1954 -0.4224997 0.4411757 -0.7917435 255 255 255 255 0.428 0.770132
-396.754 304.2 -17.1535 -0.4225 0.441177 -0.7917429 255 255 255 255 0.206492 0.6084
-316.353 355.998 -31.1954 -0.4225 0.441177 -0.7917429 255 255 255 255 0.367294 0.711996
-389.445 286 -31.1954 -0.4225 0.441177 -0.7917429 255 255 255 255 0.22111 0.572
-301.23 358.12 -31.1954 0 -0 -1 255 255 255 255 0.39754 0.71624
-228.489 181.179 -41.7281 -0.5345553 -0.5112603 -0.6729514 255 255 255 255 0.543022 0.362358
-250 196.499 -36.2791 -0.5345553 -0.5112603 -0.6729514 255 255 255 255 0.5 0.392998
-250 204.24 -42.1605 -0.5345553 -0.5112603 -0.6729514 255 255 255 255 0.5 0.40848
-228.841 305.112 -42.1605 0 -0 -1 255 255 255 255 0.542318 0.610224
-154.395 226.799 -42.1605 -0 -0 -1 255 255 255 255 0.69121 0.453598
-218.946 180.558 -42.1605 -0 -0 -1 255 255 255 255 0.562108 0.361116
-250 204.24 -42.1605 -0.04938403 -0.06475504 -0.9966785 255 255 255 255 0.5 0.40848
-218.946 180.558 -42.1605 -0.04938403 -0.06475504 -0.9966785 255 255 255 255 0.562108 0.361116
-228.489 181.179 -41.7281 -0.04938403 -0.06475504 -0.9966785 255 255 255 255 0.543022 0.362358
-22.7963 178.642 -42.1605 -0 -0 -1 255 255 255 255 0.9544074 0.357284
0 228.134 -42.1605 -0 -0 -1 255 255 255 255 1 0.456268
0 176.644 -42.1605 -0 -0 -1 255 255 255 255 1 0.353288
0 171.733 -36.2791 -0.06713498 -0.7658627 -0.6394898 255 255 255 255 1 0.343466
-22.7963 178.642 -42.1605 -0.06713498 -0.7658627 -0.6394898 255 255 255 255 0.9544074 0.357284
0 176.644 -42.1605 -0.06713498 -0.7658627 -0.6394898 255 255 255 255 1 0.353288
-178.799 280.084 -36.2791 0.335337 0.321164 -0.8856651 255 255 255 255 0.642402 0.560168
-137.115 250.58 -31.1953 0.335337 0.321164 -0.8856651 255 255 255 255 0.72577 0.50116
-143.827 243.568 -36.2791 0.335337 0.321164 -0.8856651 255 255 255 255 0.712346 0.487136
-150 233.045 -36.2791 0 -0 -1 255 255 255 255 0.7 0.46609
-143.827 243.568 -36.2791 0 -0 -1 255 255 255 255 0.712346 0.487136
-154.395 226.799 -42.1605 0.4325119 0.4378389 -0.7881818 255 255 255 255 0.69121 0.453598
-207.049 289.4 -36.2791 0.4325119 0.4378389 -0.7881818 255 255 255 255 0.585902 0.5788
-150 233.045 -36.2791 0.4325119 0.4378389 -0.7881818 255 255 255 255 0.7 0.46609
-226.85 171.733 -36.2791 0 -0.6481969 -0.7614729 255 255 255 255 0.5463 0.343466
-22.7963 178.642 -42.1605 0 -0.6481969 -0.7614729 255 255 255 255 0.9544074 0.357284
0 171.733 -36.2791 0 -0.6481969 -0.7614729 255 255 255 255 1 0.343466
-59.3791 222.545 -42.1605 -0 -0 -1 255 255 255 255 0.8812418 0.44509
-217.166 176.644 -42.1605 -0 -0 -1 255 255 255 255 0.565668 0.353288
-83.9927 233.045 -36.2791 0 0.6855431 -0.7280321 255 255 255 255 0.8320146 0.46609
-154.395 226.799 -42.1605 0 0.6855431 -0.7280321 255 255 255 255 0.69121 0.453598
-150 233.045 -36.2791 0 0.6855431 -0.7280321 255 255 255 255 0.7 0.46609
-250 152.83 -31.1953 0 -0.5512772 -0.8343222 255 255 255 255 0.5 0.30566
-135.684 160.524 -36.2791 0 -0.5512772 -0.8343222 255 255 255 255 0.728632 0.321048
-119.669 152.83 -31.1953 0 -0.5512772 -0.8343222 255 255 255 255 0.760662 0.30566
-95.5845 160.727 -36.2791 0 -0.541321 -0.840816 255 255 255 255 0.808831 0.321454
0 152.83 -31.1953 0 -0.541321 -0.840816 255 255 255 255 1 0.30566
-119.669 152.83 -31.1953 0 -0.541321 -0.840816 255 255 255 255 0.760662 0.30566
-119.669 152.83 -31.1953 0.11706 -0.366278 -0.9231129 255 255 255 255 0.760662 0.30566
-135.684 160.524 -36.2791 0.11706 -0.366278 -0.9231129 255 255 255 255 0.728632 0.321048
-119.838 165.588 -36.2791 0.11706 -0.366278 -0.9231129 255 255 255 255 0.760324 0.331176
-135.684 160.524 -36.2791 0 0 -1 255 255 255 255 0.728632 0.321048
-119.838 165.588 -36.2791 0 0 -1 255 255 255 255 0.760324 0.331176
-200.905 367.926 -31.1954 0.407623 0.449534 -0.794835 255 255 255 255 0.59819 0.735852
-103.246 304.2 -17.1535 0.407623 0.449534 -0.794835 255 255 255 255 0.793508 0.6084
-110.555 286 -31.1954 0.407623 0.449534 -0.794835 255 255 255 255 0.77889 0.572
-310.946 465.718 -36.7773 -0.9360246 -0.1101469 -0.3342538 255 255 255 255 0.378108 0.931436
-317.115 458.192 -17.021 -0.9360246 -0.1101469 -0.3342538 255 255 255 255 0.36577 0.916384
-317.115 500 -30.7981 -0.9360246 -0.1101469 -0.3342538 255 255 255 255 0.36577 1
-182.885 500 -30.7981 0.9360225 -0.1101491 -0.3342592 255 255 255 255 0.63423 1
-182.885 458.192 -17.021 0.9360225 -0.1101491 -0.3342592 255 255 255 255 0.63423 0.916384
-189.055 465.718 -36.7773 0.9360225 -0.1101491 -0.3342592 255 255 255 255 0.62189 0.931436
-310.946 500 -36.7773 -0 -0 -1 255 255 255 255 0.378108 1
-310.946 500 -36.7773 -0 1 0 255 255 255 255 0.378108 1
-295.715 500 -36.7773 -0.5211551 -0 -0.853462 255 255 255 255 0.40857 1
-204.285 474.94 -36.7773 0.5211551 -0 -0.853462 255 255 255 255 0.59143 0.94988
-204.285 474.94 -36.7773 0.404581 -0.4805299 -0.7780779 255 255 255 255 0.59143 0.94988
-250 436.45 -36.7773 0.404581 -0.4805299 -0.7780779 255 255 255 255 0.5 0.8729
-247.724 447.083 -42.1605 0.404581 -0.4805299 -0.7780779 255 255 255 255 0.504552 0.894166
-250 436.45 -36.7773 -0.4431323 -0.5263174 -0.7256885 255 255 255 255 0.5 0.8729
-295.715 474.94 -36.7773 -0.4431323 -0.5263174 -0.7256885 255 255 255 255 0.40857 0.94988
-286.899 474.94 -42.1605 -0.4431323 -0.5263174 -0.7256885 255 255 255 255 0.426202 0.94988
-295.715 500 -36.7773 0 1 0 255 255 255 255 0.40857 1
-250 196.499 -36.2791 0.33422 -0.312411 -0.8892111 255 255 255 255 0.5 0.392998
-273.15 171.733 -36.2791 0.33422 -0.312411 -0.8892111 255 255 255 255 0.4537 0.343466
-284.207 176.644 -42.1605 0.33422 -0.312411 -0.8892111 255 255 255 255 0.431586 0.353288
-250 362.838 -31.1954 0.362809 0.364833 -0.8574769 255 255 255 255 0.5 0.725676
-137.115 250.58 -31.1953 0.362809 0.364833 -0.8574769 255 255 255 255 0.72577 0.50116
-178.799 280.084 -36.2791 0.362809 0.364833 -0.8574769 255 255 255 255 0.642402 0.560168
-59.3791 222.545 -42.1605 0 0.4887039 -0.8724498 255 255 255 255 0.8812418 0.44509
-83.9927 233.045 -36.2791 0 0.4887039 -0.8724498 255 255 255 255 0.8320146 0.46609
0 233.045 -36.2791 0 0.4887039 -0.8724498 255 255 255 255 1 0.46609
-255.245 321.566 -42.1605 -0.474485 0.458902 -0.7511811 255 255 255 255 0.48951 0.643132
-345.609 228.134 -42.1605 -0.474485 0.458902 -0.7511811 255 255 255 255 0.308782 0.456268
-348.217 235.064 -36.2791 -0.474485 0.458902 -0.7511811 255 255 255 255 0.303566 0.470128
0 243.568 -36.2791 0 0.586996 -0.8095899 255 255 255 255 1 0.487136
-143.827 243.568 -36.2791 0 0.586996 -0.8095899 255 255 255 255 0.712346 0.487136
-137.115 250.58 -31.1953 0 0.586996 -0.8095899 255 255 255 255 0.72577 0.50116
-251.78 351.225 -36.2791 -0.333275 0.323172 -0.885713 255 255 255 255 0.49644 0.70245
-356.174 243.568 -36.2791 -0.333275 0.323172 -0.885713 255 255 255 255 0.287652 0.487136
-362.885 250.58 -31.1953 -0.333275 0.323172 -0.885713 255 255 255 255 0.27423 0.50116
-500 152.83 -31.1953 0.002699001 -0.5187111 -0.8549453 255 255 255 255 0 0.30566
-500 161.209 -36.2791 0.002699001 -0.5187111 -0.8549453 255 255 255 255 0 0.322418
-357.737 161.95 -36.2791 0.002699001 -0.5187111 -0.8549453 255 255 255 255 0.284526 0.3239
-411.102 171.733 -36.2791 -0 -0.7675942 -0.6409362 255 255 255 255 0.177796 0.343466
-500 171.733 -36.2791 -0 -0.7675942 -0.6409362 255 255 255 255 0 0.343466
-500 176.644 -42.1605 -0 -0.7675942 -0.6409362 255 255 255 255 0 0.353288
-442.114 226.561 -42.1605 0.02084701 0.7674295 -0.6407944 255 255 255 255 0.115772 0.453122
-500 228.134 -42.1605 0.02084701 0.7674295 -0.6407944 255 255 255 255 0 0.456268
-500 233.045 -36.2791 0.02084701 0.7674295 -0.6407944 255 255 255 255 0 0.46609
-255.245 321.566 -42.1605 -0 -0 -1 255 255 255 255 0.48951 0.643132
-500 2e-06 14.2392 0 -1 0 255 255 255 255 0 1.4e-08
0 2e-06 14.2392 0 0 1 255 255 255 255 1 1.4e-08
-500 500 -31.1954 -0 1 0 255 255 255 255 0 1
-304.2 445.8 -17.1536 -0 -0 -1 255 255 255 255 0.3916 0.8916
-295.751 375.728 -31.1954 0 -0 -1 255 255 255 255 0.408498 0.751456
-214 464 -31.1954 0.6108541 -0 -0.7917432 255 255 255 255 0.572 0.928
-126.322 463.078 -31.1954 0.004458 -0.610846 -0.791737 255 255 255 255 0.747356 0.926156
0 464 -31.1954 0.004458 -0.610846 -0.791737 255 255 255 255 1 0.928
0 445.8 -17.1536 0.004458 -0.610846 -0.791737 255 255 255 255 1 0.8916
-103.246 304.2 -17.1535 -0.0006929997 0.6108348 -0.7917577 255 255 255 255 0.793508 0.6084
-71.9692 291.159 -27.242 -0.0006929997 0.6108348 -0.7917577 255 255 255 255 0.8560616 0.582318
-102.511 286 -31.1954 -0.0006929997 0.6108348 -0.7917577 255 255 255 255 0.794978 0.572
-500 286 -31.1954 0 0.6108524 -0.7917445 255 255 255 255 0 0.572
-500 304.2 -17.1535 0 0.6108524 -0.7917445 255 255 255 255 0 0.6084
-396.754 304.2 -17.1535 0 0.6108524 -0.7917445 255 255 255 255 0.206492 0.6084
-402.341 447.11 -17.1536 -0.01143 -0.5915219 -0.8062079 255 255 255 255 0.195318 0.89422
-455.591 467.277 -31.1954 -0.01143 -0.5915219 -0.8062079 255 255 255 255 0.08881799 0.934554
-286 464 -31.1954 -0.01143 -0.5915219 -0.8062079 255 255 255 255 0.428 0.928
-304.2 392.836 -17.1536 -0.6108541 -0 -0.7917432 255 255 255 255 0.3916 0.785672
-102.511 286 -31.1954 0 0 -1 255 255 255 255 0.794978 0.572
0 500 -31.1954 1 0 0 255 255 255 255 1 1
0 -5e-06 -31.1953 1 0 -0 255 255 255 255 1 0
-500 500 -31.1954 -1 0 0 255 255 255 255 0 1
-348.217 235.064 -36.2791 -0.010505 0.6446992 -0.7643642 255 255 255 255 0.303566 0.470128
-345.609 228.134 -42.1605 -0.010505 0.6446992 -0.7643642 255 255 255 255 0.308782 0.456268
-442.114 226.561 -42.1605 -0.010505 0.6446992 -0.7643642 255 255 255 255 0.115772 0.453122
-284.207 176.644 -42.1605 0 -0.7675942 -0.6409362 255 255 255 255 0.431586 0.353288
-273.15 171.733 -36.2791 0 -0.7675942 -0.6409362 255 255 255 255 0.4537 0.343466
-341.182 154.08 -31.1953 -0.010371 -0.5579181 -0.8298312 255 255 255 255 0.317636 0.30816
-357.737 161.95 -36.2791 -0.010371 -0.5579181 -0.8298312 255 255 255 255 0.284526 0.3239
-250 159.947 -36.2791 -0.010371 -0.5579181 -0.8298312 255 255 255 255 0.5 0.319894
-500 250.58 -31.1953 0 0.5869948 -0.8095907 255 255 255 255 0 0.50116
-446.267 250.58 -31.1953 0 0.5869948 -0.8095907 255 255 255 255 0.107466 0.50116
-449.586 243.568 -36.2791 0 0.5869948 -0.8095907 255 255 255 255 0.100828 0.487136
-362.885 250.58 -31.1953 4.9e-05 0.5870261 -0.809568 255 255 255 255 0.27423 0.50116
-356.174 243.568 -36.2791 4.9e-05 0.5870261 -0.809568 255 255 255 255 0.287652 0.487136
-433.342 247.235 -33.6244 4.9e-05 0.5870261 -0.809568 255 255 255 255 0.133316 0.49447
-250 396.07 -19.3135 -0.5539631 -0.5763191 -0.6008171 255 255 255 255 0.5 0.79214
-317.115 458.192 -17.021 -0.5539631 -0.5763191 -0.6008171 255 255 255 255 0.36577 0.916384
-257.916 421.885 -36.7773 -0.5539631 -0.5763191 -0.6008171 255 255 255 255 0.484168 0.84377
-257.916 421.885 -36.7773 0 -0 -1 255 255 255 255 0.484168 0.84377
-250 396.07 -19.3135 0.5070811 -0.5841941 -0.6337082 255 255 255 255 0.5 0.79214
-250 406.864 -29.2638 0.5070811 -0.5841941 -0.6337082 255 255 255 255 0.5 0.813728
-236.25 426.949 -36.7773 0.5070811 -0.5841941 -0.6337082 255 255 255 255 0.5275 0.853898
-500 445.8 -17.1536 0.045029 -0.6102321 -0.7909421 255 255 255 255 0 0.8916
-500 464 -31.1954 0.045029 -0.6102321 -0.7909421 255 255 255 255 0 0.928
-455.591 467.277 -31.1954 0.045029 -0.6102321 -0.7909421 255 255 255 255 0.08881799 0.934554
-195.8 445.8 -17.1536 0 -0 -1 255 255 255 255 0.6084 0.8916
-195.8 445.8 -17.1536 -0.006465 -0.614884 -0.788591 255 255 255 255 0.6084 0.8916
-214 464 -31.1954 -0.006465 -0.614884 -0.788591 255 255 255 255 0.572 0.928
-126.322 463.078 -31.1954 -0.006465 -0.614884 -0.788591 255 255 255 255 0.747356 0.926156
-12.3031 286 -31.1954 0.000338 0.6107091 -0.791855 255 255 255 255 0.9753938 0.572
-71.9692 291.159 -27.242 0.000338 0.6107091 -0.791855 255 255 255 255 0.8560616 0.582318
0 304.2 -17.1535 0.000338 0.6107091 -0.791855 255 255 255 255 1 0.6084
-295.751 375.728 -31.1954 -0.42274 0.441022 -0.791701 255 255 255 255 0.408498 0.751456
-311.924 370.268 -25.601 -0.42274 0.441022 -0.791701 255 255 255 255 0.376152 0.740536
-304.2 392.836 -17.1536 -0.42274 0.441022 -0.791701 255 255 255 255 0.3916 0.785672
-396.754 304.2 -17.1535 -0.422648 0.4414729 -0.7914989 255 255 255 255 0.206492 0.6084
-311.924 370.268 -25.601 -0.422648 0.4414729 -0.7914989 255 255 255 255 0.376152 0.740536
-316.353 355.998 -31.1954 -0.422648 0.4414729 -0.7914989 255 255 255 255 0.367294 0.711996
-316.353 355.998 -31.1954 -0 -0 -1 255 255 255 255 0.367294 0.711996
-228.489 181.179 -41.7281 -0.5258989 -0.4915819 -0.6941019 255 255 255 255 0.543022 0.362358
-226.85 171.733 -36.2791 -0.5258989 -0.4915819 -0.6941019 255 255 255 255 0.5463 0.343466
-250 196.499 -36.2791 -0.5258989 -0.4915819 -0.6941019 255 255 255 255 0.5 0.392998
-154.395 226.799 -42.1605 0.5536439 0.5263059 -0.645353 255 255 255 255 0.69121 0.453598
-228.841 305.112 -42.1605 0.5536439 0.5263059 -0.645353 255 255 255 255 0.542318 0.610224
-207.049 289.4 -36.2791 0.5536439 0.5263059 -0.645353 255 255 255 255 0.585902 0.5788
-226.85 171.733 -36.2791 0.007956998 -0.7739778 -0.6331628 255 255 255 255 0.5463 0.343466
-217.166 176.644 -42.1605 0.007956998 -0.7739778 -0.6331628 255 255 255 255 0.565668 0.353288
-22.7963 178.642 -42.1605 0.007956998 -0.7739778 -0.6331628 255 255 255 255 0.9544074 0.357284
-83.9927 233.045 -36.2791 0.02374299 0.5303558 -0.8474427 255 255 255 255 0.8320146 0.46609
-59.3791 222.545 -42.1605 0.02374299 0.5303558 -0.8474427 255 255 255 255 0.8812418 0.44509
-154.395 226.799 -42.1605 0.02374299 0.5303558 -0.8474427 255 255 255 255 0.69121 0.453598
-250 152.83 -31.1953 0.002934999 -0.5812668 -0.8137077 255 255 255 255 0.5 0.30566
-250 159.947 -36.2791 0.002934999 -0.5812668 -0.8137077 255 255 255 255 0.5 0.319894
-135.684 160.524 -36.2791 0.002934999 -0.5812668 -0.8137077 255 255 255 255 0.728632 0.321048
-95.5845 160.727 -36.2791 0.002619 -0.518712 -0.854945 255 255 255 255 0.808831 0.321454
0 161.209 -36.2791 0.002619 -0.518712 -0.854945 255 255 255 255 1 0.322418
0 152.83 -31.1953 0.002619 -0.518712 -0.854945 255 255 255 255 1 0.30566
-200.905 367.926 -31.1954 0.3779459 0.3946529 -0.8374999 255 255 255 255 0.59819 0.735852
-195.8 392.836 -17.1536 0.3779459 0.3946529 -0.8374999 255 255 255 255 0.6084 0.785672
-103.246 304.2 -17.1535 0.3779459 0.3946529 -0.8374999 255 255 255 255 0.793508 0.6084
3 0 1 2 
3 3 4 5 
3 6 7 8 
3 9 10 11 
3 12 13 14 
3 15 16 17 
3 18 19 20 
3 21 22 23 
3 24 25 26 
3 27 28 29 
3 30 31 32 
3 21 33 34 
3 35 36 37 
3 38 39 40 
3 41 42 43 
3 44 45 46 
3 47 48 49 
3 50 51 52 
3 53 54 55 
3 56 57 58 
3 59 60 61 
3 62 63 64 
3 65 66 67 
3 68 69 70 
3 71 72 73 
3 74 75 76 
3 74 77 75 
3 78 79 80 
3 81 82 83 
3 84 85 79 
3 86 87 88 
3 89 90 91 
3 92 93 94 
3 95 96 97 
3 98 99 100 
3 101 102 103 
3 104 105 106 
3 106 105 107 
3 36 108 109 
3 110 111 112 
3 35 110 36 
3 99 113 100 
3 114 100 115 
3 116 98 117 
3 118 119 120 
3 121 122 123 
3 124 125 126 
3 127 128 129 
3 130 131 132 
3 133 134 135 
3 136 137 138 
3 139 140 141 
3 142 143 144 
3 145 146 147 
3 148 149 150 
3 151 152 153 
3 154 155 156 
3 157 158 159 
3 160 161 162 
3 163 164 165 
3 134 166 135 
3 166 137 135 
3 167 168 169 
3 170 171 172 
3 171 167 169 
3 173 174 175 
3 176 177 178 
3 174 178 175 
3 179 180 181 
3 180 182 181 
3 183 184 185 
3 186 187 188 
3 189 190 191 
3 192 104 106 
3 193 194 195 
3 77 196 86 
3 197 198 199 
3 200 201 202 
3 202 203 204 
3 205 206 207 
3 208 209 210 
3 211 212 213 
3 214 200 85 
3 215 216 217 
3 218 219 220 
3 221 222 223 
3 224 225 226 
3 227 6 8 
3 228 229 230 
3 231 232 233 
3 130 234 235 
3 236 237 238 
3 239 134 133 
3 240 241 127 
3 242 243 244 
3 166 140 139 
3 245 246 247 
3 248 249 250 
3 169 251 252 
3 253 254 255 
3 256 257 258 
3 259 260 261 
3 262 263 264 
3 265 266 267 
3 268 269 270 
3 170 271 167 
3 272 273 274 
3 105 275 107 
3 107 276 277 
3 278 279 280 
3 281 282 283 
3 284 285 286 
3 287 288 289 
3 290 80 291 
3 292 293 294 
3 295 296 297 
3 298 299 277 
3 277 276 298 
3 300 301 302 
3 291 65 290 
3 303 304 305 
3 306 307 308 
3 309 310 311 
3 76 312 74 
3 51 313 76 
3 314 315 316 
3 271 136 167 
3 317 318 319 
3 320 321 322 
3 6 323 7 
3 12 324 13 
3 15 325 16 
3 18 326 19 
3 21 34 22 
3 327 328 329 
3 330 331 332 
3 30 333 31 
3 334 335 336 
3 50 313 51 
3 337 338 339 
3 340 341 342 
3 343 344 345 
3 65 291 66 
3 346 347 348 
3 349 350 351 
3 78 84 79 
3 352 353 354 
3 84 214 85 
3 86 196 87 
3 355 356 357 
3 92 192 93 
3 358 359 360 
3 98 116 99 
3 104 361 105 
3 36 110 108 
3 35 111 110 
3 114 98 100 
3 118 362 119 
3 121 363 122 
3 124 364 125 
3 127 241 128 
3 130 365 131 
3 136 366 137 
3 145 367 146 
3 368 369 370 
3 371 372 373 
3 374 375 376 
3 377 378 379 
3 163 380 164 
3 134 140 166 
3 166 138 137 
3 167 381 168 
3 171 170 167 
3 173 382 174 
3 176 383 177 
3 174 176 178 
3 179 183 180 
3 180 384 182 
3 183 179 184 
3 385 386 387 
3 192 92 104 
3 388 389 355 
3 77 74 196 
3 390 391 392 
3 202 201 203 
3 393 394 395 
3 396 397 398 
3 214 201 200 
3 399 400 401 
3 227 402 6 
3 403 404 405 
3 130 132 234 
3 406 407 408 
3 240 409 241 
3 410 411 412 
3 169 168 251 
3 413 414 415 
3 416 417 418 
3 419 420 421 
3 170 422 271 
3 423 424 425 
3 107 275 276 
3 281 298 282 
3 290 78 80 
3 426 427 428 
3 429 430 431 
3 298 281 299 
3 432 433 434 
3 435 436 437 
3 438 439 440 
3 76 313 312 
3 441 442 443 
3 271 366 136 
